<?xml version="1.0" encoding="utf-8"?>
<!-- Generator: Adobe Illustrator 23.0.3, SVG Export Plug-In . SVG Version: 6.00 Build 0)  -->
<svg version="1.1" id="Layer_1" xmlns="http://www.w3.org/2000/svg" xmlns:xlink="http://www.w3.org/1999/xlink" x="0px" y="0px"
	 viewBox="0 0 24 24" style="enable-background:new 0 0 24 24;" xml:space="preserve">

<path fill="none" d="M0,0h24v24H0V0z"/>
<path fill="#5093FF" d="M12,3L12,3c-5,0-9,4-9,9v0c0,4.9,4,9,9,9h0c4.9,0,9-4,9-9v0C21,7,17,3,12,3z M10.7,16.3c-0.4,0.4-1,0.4-1.4,0
	l-3.6-3.6c-0.4-0.4-0.4-1,0-1.4s1-0.4,1.4,0l2.9,2.9l6.9-6.9c0.4-0.4,1-0.4,1.4,0s0.4,1,0,1.4L10.7,16.3z"/>
</svg>
