<?xml version="1.0" encoding="utf-8"?>
<!-- Generator: Adobe Illustrator 23.0.3, SVG Export Plug-In . SVG Version: 6.00 Build 0)  -->
<svg version="1.1" id="Layer_1" xmlns="http://www.w3.org/2000/svg" xmlns:xlink="http://www.w3.org/1999/xlink" x="0px" y="0px"
	 viewBox="0 0 24 24" style="enable-background:new 0 0 24 24;" xml:space="preserve">

<g>
	<path fill="#5093FF" d="M4,12c0-0.5-0.4-1-1-1H2c-0.6,0-1,0.4-1,1v0c0,0.5,0.4,1,1,1h1C3.6,13,4,12.5,4,12L4,12z"/>
	<path fill="#5093FF" d="M12,3.9L12,3.9c0.6,0,1-0.4,1-1V2c0-0.5-0.4-1-1-1h0c-0.6,0-1,0.4-1,1v1C11,3.5,11.4,3.9,12,3.9z"/>
	<path fill="#5093FF" d="M22,11h-1c-0.6,0-1,0.4-1,1v0c0,0.5,0.4,1,1,1h1c0.6,0,1-0.4,1-1v0C23,11.4,22.6,11,22,11z"/>
	<path fill="#5093FF" d="M18,6c0.4,0.4,1,0.4,1.4,0l0.4-0.4c0.4-0.4,0.4-1,0-1.4c-0.4-0.4-1-0.4-1.4,0l-0.4,0.4C17.6,5,17.6,5.6,18,6
		L18,6z"/>
	<path fill="#5093FF" d="M4.6,6C5,6.4,5.7,6.4,6,6c0.4-0.4,0.4-1,0-1.4L5.7,4.2c-0.4-0.4-1-0.4-1.4,0c-0.4,0.4-0.4,1,0,1.4L4.6,6z"/>
	<path fill="#5093FF" d="M19.4,17.9c-0.4-0.4-1-0.4-1.4,0c-0.4,0.4-0.4,1,0,1.4l0.4,0.4c0.4,0.4,1,0.4,1.4,0s0.4-1,0-1.4L19.4,17.9z"/>
	<path fill="#5093FF" d="M6,17.9c-0.4-0.4-1-0.4-1.4,0l-0.4,0.4c-0.4,0.4-0.4,1,0,1.4s1,0.4,1.4,0l0.4-0.4C6.4,18.9,6.4,18.3,6,17.9
		L6,17.9z"/>
	<path fill="#5093FF" d="M12,5.6c-3.5,0-6.4,2.9-6.4,6.4c0,2.4,1.4,4.5,3.4,5.6V21c0,0.5,0.4,1,1,1h4c0.5,0,1-0.5,1-1v-3.4
		c2-1.1,3.4-3.2,3.4-5.6C18.4,8.4,15.5,5.6,12,5.6z"/>
</g>
</svg>
