<?xml version="1.0" encoding="utf-8"?>
<!-- Generator: Adobe Illustrator 23.0.3, SVG Export Plug-In . SVG Version: 6.00 Build 0)  -->
<svg version="1.1" xmlns="http://www.w3.org/2000/svg" xmlns:xlink="http://www.w3.org/1999/xlink" x="0px" y="0px"
	 viewBox="0 0 39 39" style="enable-background:new 0 0 39 39;" xml:space="preserve">

<g id="Layer_28">
	<rect y="0"  fill="none" width="39" height="39"/>
</g>
<g id="Layer_30">
	<linearGradient id="SVGID_1_" gradientUnits="userSpaceOnUse" x1="6" y1="11.9661" x2="11.1622" y2="11.9661">
		<stop  offset="0" style="stop-color:#019BFB"/>
		<stop  offset="1" style="stop-color:#0290F1"/>
	</linearGradient>
	<path  fill="url(#SVGID_1_)" d="M7,16.1L7,16.1c0.5,0,0.9-0.4,1-0.9C8.4,13,9.4,11,10.9,9.5c0.4-0.4,0.3-1,0-1.4l0,0c-0.4-0.4-1-0.4-1.4,0
		c-1.8,1.8-3,4.2-3.4,6.8C5.9,15.6,6.4,16.1,7,16.1z"/>
	<linearGradient id="SVGID_2_" gradientUnits="userSpaceOnUse" x1="27.8631" y1="11.9587" x2="33" y2="11.9587">
		<stop  offset="0" style="stop-color:#019BFB"/>
		<stop  offset="1" style="stop-color:#0290F1"/>
	</linearGradient>
	<path  fill="url(#SVGID_2_)" d="M31,15.2c0.1,0.5,0.5,0.9,1,0.9h0c0.6,0,1.1-0.6,1-1.2c-0.4-2.6-1.6-4.9-3.4-6.8c-0.4-0.4-1-0.4-1.4,0
		c-0.4,0.4-0.4,1,0,1.4C29.6,11,30.6,13,31,15.2z"/>
	<linearGradient id="SVGID_3_" gradientUnits="userSpaceOnUse" x1="30.6588" y1="10.5424" x2="37" y2="10.5424">
		<stop  offset="0" style="stop-color:#019BFB"/>
		<stop  offset="1" style="stop-color:#0290F1"/>
	</linearGradient>
	<path  fill="url(#SVGID_3_)" d="M32.4,5.3c-0.4-0.4-1-0.4-1.4,0c-0.4,0.4-0.4,1,0,1.4c2.2,2.3,3.7,5.2,4.1,8.5c0.1,0.5,0.5,0.9,1,0.9
		c0.6,0,1.1-0.5,1-1.1C36.5,11.2,34.8,7.9,32.4,5.3z"/>
	<linearGradient id="SVGID_4_" gradientUnits="userSpaceOnUse" x1="2" y1="10.5527" x2="8.3622" y2="10.5527">
		<stop  offset="0" style="stop-color:#019BFB"/>
		<stop  offset="1" style="stop-color:#0290F1"/>
	</linearGradient>
	<path  fill="url(#SVGID_4_)" d="M8.1,5.3L8.1,5.3c-0.4-0.4-1-0.4-1.4,0C4.2,7.9,2.5,11.2,2,15c-0.1,0.6,0.4,1.1,1,1.1c0.5,0,0.9-0.4,1-0.9
		c0.4-3.3,1.9-6.3,4.1-8.5C8.5,6.3,8.4,5.7,8.1,5.3z"/>
	<linearGradient id="SVGID_5_" gradientUnits="userSpaceOnUse" x1="19.5008" y1="4.1767" x2="19.5003" y2="31.1767">
		<stop  offset="0" style="stop-color:#00A0FF"/>
		<stop  offset="1" style="stop-color:#047BDF"/>
	</linearGradient>
	<path  fill="url(#SVGID_5_)" d="M29,17c0-4-2.9-7.3-6.6-8.5c0.4-0.6,0.6-1.2,0.6-2C23,4.6,21.4,3,19.5,3S16,4.6,16,6.5c0,0.7,0.2,1.4,0.6,2
		C12.9,9.7,10,13,10,17c0,4.3-1.6,8.1-2.8,11C6.8,28.9,6,30,6,31c0,0.6,0.4,1,1,1h25c0.6,0,1-0.4,1-1c0-1-0.8-2.1-1.2-3
		C30.5,25.1,29,21.3,29,17z M18,6.5C18,5.7,18.7,5,19.5,5S21,5.7,21,6.5S20.3,8,19.5,8S18,7.3,18,6.5z M20,30H8.4
		C10,26.8,12,22,12,17c0-3.9,3.6-7,7.5-7s7.5,3.1,7.5,7c0,5,2,9.8,3.6,13H20z"/>
	<linearGradient id="SVGID_6_" gradientUnits="userSpaceOnUse" x1="19.5003" y1="32.5" x2="19.5003" y2="37">
		<stop  offset="0" style="stop-color:#047BDF"/>
		<stop  offset="1" style="stop-color:#047BDF"/>
	</linearGradient>
	<path  fill="url(#SVGID_6_)" d="M22,32.5c-0.6,0-1,0.4-1,1c0,0,0,0,0,0c0,0.8-0.7,1.5-1.5,1.5c-0.8,0-1.5-0.7-1.5-1.5h0c0-0.6-0.4-1-1-1
		s-1,0.4-1,1c0,0,0,0,0,0c0,1.9,1.6,3.5,3.5,3.5c1.9,0,3.5-1.6,3.5-3.5h0C23,32.9,22.6,32.5,22,32.5z"/>
</g>
</svg>
