<?xml version="1.0" encoding="utf-8"?>
<!-- Generator: Adobe Illustrator 23.0.3, SVG Export Plug-In . SVG Version: 6.00 Build 0)  -->
<svg version="1.1" id="Layer_1" xmlns="http://www.w3.org/2000/svg" xmlns:xlink="http://www.w3.org/1999/xlink" x="0px" y="0px"
	 viewBox="0 0 24 24" style="enable-background:new 0 0 24 24;" xml:space="preserve">

<path fill="none" d="M0,0h24v24H0V0z"/>
<path fill="#B7B7B7" d="M20.2,7.8c-0.1-0.5-0.5-0.8-1-0.8H4.8c-0.5,0-0.9,0.3-1,0.8L3,12v1c0,0.6,0.5,1,1,1v5c0,0.5,0.4,1,1,1h8
	c0.6,0,1-0.5,1-1v-5h4v5c0,0.5,0.5,1,1,1s1-0.5,1-1v-5c0.5,0,1-0.4,1-1v-1L20.2,7.8z M12,18H6v-4h6V18z M5,6h14c0.5,0,1-0.4,1-1
	s-0.5-1-1-1H5C4.4,4,4,4.4,4,5S4.4,6,5,6z"/>
</svg>
