<?xml version="1.0" encoding="utf-8"?>
<svg version="1.1" id="Layer_1" xmlns="http://www.w3.org/2000/svg" xmlns:xlink="http://www.w3.org/1999/xlink" x="0px" y="0px"
	 viewBox="0 0 24 24" style="enable-background:new 0 0 24 24;" xml:space="preserve">
<style type="text/css">
	.st0{fill:none;}
	.st1{fill:#B7B7B7;}
</style>
<path fill="none" d="M0,0h24v24H0V0z"/>
<path fill="#B7B7B7" d="M20,6h-4V4c0-1.1-0.9-2-2-2h-4C8.9,2,8,2.9,8,4v2H4C2.9,6,2,6.9,2,8v11c0,1.1,0.9,2,2,2h16c1.1,0,2-0.9,2-2V8
	C22,6.9,21.1,6,20,6z M14,6h-4V4h4V6z"/>
</svg>
