<?xml version="1.0" encoding="utf-8"?>
<!-- Generator: Adobe Illustrator 23.0.3, SVG Export Plug-In . SVG Version: 6.00 Build 0)  -->
<svg version="1.1" id="Layer_1" xmlns="http://www.w3.org/2000/svg" xmlns:xlink="http://www.w3.org/1999/xlink" x="0px" y="0px"
	 viewBox="0 0 24 24" style="enable-background:new 0 0 24 24;" xml:space="preserve">

<path fill="none" d="M0,0h24v24H0V0z"/>
<path fill="#B7B7B7" d="M7,18c-1.1,0-2,0.9-2,2s0.9,2,2,2s2-0.9,2-2S8.1,18,7,18z M1,3c0,0.5,0.5,1,1,1h1l3.6,7.6L5.3,14
	c-0.7,1.3,0.2,3,1.8,3h11c0.5,0,1-0.5,1-1s-0.5-1-1-1H7l1.1-2h7.4c0.7,0,1.4-0.4,1.7-1l3.6-6.5C21.3,4.8,20.8,4,20,4H5.2L4.5,2.6
	C4.4,2.2,4,2,3.6,2H2C1.5,2,1,2.5,1,3z M17,18c-1.1,0-2,0.9-2,2s0.9,2,2,2s2-0.9,2-2S18.1,18,17,18z"/>
</svg>
