<?xml version="1.0" encoding="utf-8"?>
<svg version="1.1" id="Layer_1" xmlns="http://www.w3.org/2000/svg" xmlns:xlink="http://www.w3.org/1999/xlink" x="0px" y="0px"
	 viewBox="0 0 24 24" style="enable-background:new 0 0 24 24;" xml:space="preserve">
<path fill="none" d="M0,0h24v24H0V0z"/>
<path fill="#B7B7B7" d="M12,2C8.1,2,5,5.1,5,9c0,4.2,4.4,9.9,6.2,12.1c0.4,0.5,1.1,0.5,1.5,0C14.6,18.9,19,13.2,19,9
	C19,5.1,15.9,2,12,2z M12,11.5c-1.4,0-2.5-1.1-2.5-2.5s1.1-2.5,2.5-2.5s2.5,1.1,2.5,2.5S13.4,11.5,12,11.5z"/>
</svg>
