<?xml version="1.0" encoding="utf-8"?>
<!-- Generator: Adobe Illustrator 23.0.3, SVG Export Plug-In . SVG Version: 6.00 Build 0)  -->
<svg version="1.1" id="Layer_1" xmlns="http://www.w3.org/2000/svg" xmlns:xlink="http://www.w3.org/1999/xlink" x="0px" y="0px"
	 viewBox="0 0 24 24" style="enable-background:new 0 0 24 24;" xml:space="preserve">

<path fill="none" d="M0,0h24v24H0V0z"/>
<path fill="#7C8086" d="M13.4,20.1c-0.8,0.7-1.9,0.7-2.7,0L10.6,20C5.3,15.3,1.9,12.2,2,8.3C2.1,6.6,2.9,4.9,4.3,4C7,2.2,10.2,3,12,5.1
	C13.8,3,17,2.2,19.7,4C21.1,5,22,6.6,22,8.3C22.1,12.2,18.7,15.3,13.4,20.1C13.4,20,13.3,20.1,13.4,20.1z"/>
</svg>
