<?xml version="1.0" encoding="utf-8"?>
<svg version="1.1" id="Layer_1" xmlns="http://www.w3.org/2000/svg" xmlns:xlink="http://www.w3.org/1999/xlink" x="0px" y="0px"
	 viewBox="0 0 24 24" style="enable-background:new 0 0 24 24;" xml:space="preserve">
<path fill="none" d="M0,0h24v24H0V0z"/>
<path fill="#7C8086" d="M16,11c1.7,0,3-1.3,3-3s-1.3-3-3-3s-3,1.3-3,3S14.3,11,16,11z M8,11c1.7,0,3-1.3,3-3S9.7,5,8,5S5,6.3,5,8
	S6.3,11,8,11z M8,13c-2.3,0-7,1.2-7,3.5V18c0,0.5,0.5,1,1,1h12c0.6,0,1-0.5,1-1v-1.5C15,14.2,10.3,13,8,13z M16,13
	c-0.3,0-0.6,0-1,0.1c0,0,0,0,0,0c1.1,0.8,1.9,1.9,1.9,3.4V18c0,0.4-0.1,0.7-0.2,1H22c0.5,0,1-0.5,1-1v-1.5C23,14.2,18.3,13,16,13z"
	/>
</svg>
