<?xml version="1.0" encoding="utf-8"?>
<!-- Generator: Adobe Illustrator 24.0.2, SVG Export Plug-In . SVG Version: 6.00 Build 0)  -->
<svg version="1.1" xmlns="http://www.w3.org/2000/svg" xmlns:xlink="http://www.w3.org/1999/xlink" x="0px" y="0px"
	 viewBox="0 0 39 39" style="enable-background:new 0 0 39 39;" xml:space="preserve">
<style type="text/css">
	.st105{fill:none;stroke:url(#SVGID_99_);stroke-width:2;stroke-linecap:round;stroke-linejoin:round;stroke-miterlimit:10;}
	.st106{fill:url(#SVGID_100_);}
</style>
<g id="Layer_32">
	<path d="M3,37L3,37c-0.6,0-1-0.4-1-1V3c0-0.6,0.4-1,1-1h0c0.6,0,1,0.4,1,1v33C4,36.6,3.6,37,3,37z"/>
	<path d="M3,37h33c0.6,0,1-0.4,1-1l0,0c0-0.6-0.4-1-1-1H3c-0.6,0-1,0.4-1,1l0,0C2,36.6,2.4,37,3,37z"/>
	<linearGradient id="SVGID_99_" gradientUnits="userSpaceOnUse" x1="6" y1="18.5007" x2="35" y2="18.5007">
		<stop  offset="0" style="stop-color:#00A0FF"/>
		<stop  offset="1" style="stop-color:#0EA1FD"/>
	</linearGradient>
	<path fill="none" stroke="0EA1FD" stroke-width="2" stroke-linecap="round" stroke-linejoin="round" stroke-miterlimit="10" d="M7,6c1.9,0,2.9,2.1,3.4,4.2c0.3,1.4,1,8.3,1,8.3s0.6,6.5,1,8.3C13,29,14,31,16,31l0.1,0c2,0,3.1-2.2,3.6-4.2
		c0.4-1.8,1-8.3,1-8.3s0.7-6.9,1-8.3C22.1,8.1,23.1,6,25,6H25c1.9,0,2.9,2.1,3.4,4.2c0.3,1.4,1,8.3,1,8.3s0.6,6.5,1,8.3
		C30.9,28.8,32,31,34,31"/>
	<linearGradient id="SVGID_100_" gradientUnits="userSpaceOnUse" x1="19.4309" y1="2.1716" x2="19.5024" y2="37.1715">
		<stop  offset="0" style="stop-color:#00A0FF"/>
		<stop  offset="1" style="stop-color:#0EA1FD"/>
	</linearGradient>
	<path fill="url(#SVGID_100_)" d="M36,35H4V3c0-0.6-0.4-1-1-1S2,2.4,2,3v33c0,0.6,0.4,1,1,1h33c0.6,0,1-0.4,1-1C37,35.4,36.6,35,36,35z"/>
</g>
</svg>
