<?xml version="1.0" encoding="utf-8" ?>
<!-- Generator: Adobe Illustrator 24.1.1, SVG Export Plug-In . SVG Version: 6.00 Build 0)  -->
<svg version="1.1" id="Layer_1" xmlns="http://www.w3.org/2000/svg" xmlns:xlink="http://www.w3.org/1999/xlink" x="0px" y="0px"
     viewBox="0 0 39 39" style="enable-background:new 0 0 39 39;" xml:space="preserve">
<rect fill="none" opacity="0.5" width="39" height="39" />

<linearGradient id="SVGID_1_" gradientUnits="userSpaceOnUse" x1="2" y1="19.5" x2="37" y2="19.5">
    <stop offset="0" style="stop-color:#00A0FF" />
    <stop offset="1" style="stop-color:#42A5F6" />
</linearGradient>

<path fill="url(#SVGID_1_)" d="M36,35H4V3c0-0.6-0.4-1-1-1S2,2.4,2,3v33c0,0.6,0.4,1,1,1h33c0.6,0,1-0.4,1-1C37,35.4,36.6,35,36,35z" />

<g>
<linearGradient id="SVGID_2_" gradientUnits="userSpaceOnUse" x1="8.9999" y1="18.5" x2="10.9999" y2="18.5">
    <stop offset="0" style="stop-color:#00A0FF" />
    <stop offset="1" style="stop-color:#42A5F6" />
</linearGradient>

<path fill="url(#SVGID_2_)" d="M10,11c-0.6,0-1,0.4-1,1v13c0,0.6,0.4,1,1,1c0.6,0,1-0.4,1-1V12C11,11.4,10.6,11,10,11z" />

<linearGradient id="SVGID_3_" gradientUnits="userSpaceOnUse" x1="12" y1="18.5" x2="14" y2="18.5">
    <stop offset="0" style="stop-color:#00A0FF" />
    <stop offset="1" style="stop-color:#42A5F6" />
</linearGradient>

<path fill="url(#SVGID_3_)" d="M13,5c-0.6,0-1,0.4-1,1v25c0,0.6,0.4,1,1,1c0.6,0,1-0.4,1-1V6C14,5.4,13.6,5,13,5z" />

<linearGradient id="SVGID_4_" gradientUnits="userSpaceOnUse" x1="15" y1="19.5" x2="17" y2="19.5">
    <stop offset="0" style="stop-color:#00A0FF" />
    <stop offset="1" style="stop-color:#42A5F6" />
</linearGradient>

<path fill="url(#SVGID_4_)" d="M16,9c-0.6,0-1,0.4-1,1v19c0,0.6,0.4,1,1,1c0.6,0,1-0.4,1-1V10C17,9.4,16.6,9,16,9z" />

<linearGradient id="SVGID_5_" gradientUnits="userSpaceOnUse" x1="17.9997" y1="19" x2="19.9997" y2="19">
    <stop offset="0" style="stop-color:#00A0FF" />
    <stop offset="1" style="stop-color:#42A5F6" />
</linearGradient>

<path fill="url(#SVGID_5_)" d="M19,12c-0.6,0-1,0.4-1,1v12c0,0.6,0.4,1,1,1c0.6,0,1-0.4,1-1V13C20,12.4,19.6,12,19,12z" />

<linearGradient id="SVGID_6_" gradientUnits="userSpaceOnUse" x1="21" y1="20.5" x2="23" y2="20.5">
    <stop offset="0" style="stop-color:#00A0FF" />
    <stop offset="1" style="stop-color:#42A5F6" />
</linearGradient>

<path fill="url(#SVGID_6_)" d="M22,14c-0.6,0-1,0.4-1,1v11c0,0.6,0.4,1,1,1s1-0.4,1-1V15C23,14.4,22.6,14,22,14z" />

<linearGradient id="SVGID_7_" gradientUnits="userSpaceOnUse" x1="23.9993" y1="19.5" x2="25.9993" y2="19.5">
    <stop offset="0" style="stop-color:#00A0FF" />
    <stop offset="1" style="stop-color:#42A5F6" />
</linearGradient>

<path fill="url(#SVGID_7_)" d="M25,17c-0.6,0-1,0.4-1,1v3c0,0.6,0.4,1,1,1c0.6,0,1-0.4,1-1v-3C26,17.4,25.6,17,25,17z" />

<linearGradient id="SVGID_8_" gradientUnits="userSpaceOnUse" x1="27" y1="19.5" x2="29" y2="19.5">
    <stop offset="0" style="stop-color:#00A0FF" />
    <stop offset="1" style="stop-color:#42A5F6" />
</linearGradient>

<path fill="url(#SVGID_8_)" d="M28,15c-0.6,0-1,0.4-1,1v7c0,0.6,0.4,1,1,1s1-0.4,1-1v-7C29,15.4,28.6,15,28,15z" />

<linearGradient id="SVGID_9_" gradientUnits="userSpaceOnUse" x1="30" y1="20" x2="32" y2="20">
    <stop offset="0" style="stop-color:#00A0FF" />
    <stop offset="1" style="stop-color:#42A5F6" />
</linearGradient>

<path fill="url(#SVGID_9_)" d="M31,18c-0.6,0-1,0.4-1,1v2c0,0.6,0.4,1,1,1s1-0.4,1-1v-2C32,18.4,31.6,18,31,18z" />

<linearGradient id="SVGID_10_" gradientUnits="userSpaceOnUse" x1="6" y1="19.5" x2="8" y2="19.5">
    <stop offset="0" style="stop-color:#00A0FF" />
    <stop offset="1" style="stop-color:#42A5F6" />
</linearGradient>

<path fill="url(#SVGID_10_)" d="M7,16c-0.6,0-1,0.4-1,1v5c0,0.6,0.4,1,1,1s1-0.4,1-1v-5C8,16.4,7.6,16,7,16z" />

<linearGradient id="SVGID_11_" gradientUnits="userSpaceOnUse" x1="33" y1="20" x2="35" y2="20">
    <stop offset="0" style="stop-color:#00A0FF" />
    <stop offset="1" style="stop-color:#42A5F6" />
</linearGradient>

<circle fill="url(#SVGID_11_)" cx="34" cy="20" r="1" />

</g>
</svg>
