<?xml version="1.0" encoding="utf-8"?>
<!-- Generator: Adobe Illustrator 23.0.3, SVG Export Plug-In . SVG Version: 6.00 Build 0)  -->
<svg version="1.1" xmlns="http://www.w3.org/2000/svg" xmlns:xlink="http://www.w3.org/1999/xlink" x="0px" y="0px"
	 viewBox="0 0 39 39" style="enable-background:new 0 0 39 39;" xml:space="preserve">

<g id="Layer_1"  display="none">
	<g  display="inline">
		<linearGradient id="SVGID_1_" gradientUnits="userSpaceOnUse" x1="10" y1="11" x2="10" y2="32">
			<stop  offset="0" style="stop-color:#00A0FF"/>
			<stop  offset="1" style="stop-color:#42A5F6"/>
		</linearGradient>
		<path  fill="url(#SVGID_1_)" d="M8,28h1v3c0,0.6,0.4,1,1,1s1-0.4,1-1v-3h1c0.6,0,1-0.4,1-1V16c0-0.6-0.4-1-1-1h-1v-3c0-0.6-0.4-1-1-1
			s-1,0.4-1,1v3H8c-0.6,0-1,0.4-1,1v11C7,27.6,7.4,28,8,28z M11,17v9H9v-9H11z"/>
		<linearGradient id="SVGID_2_" gradientUnits="userSpaceOnUse" x1="30" y1="11" x2="30" y2="32">
			<stop  offset="0" style="stop-color:#00A0FF"/>
			<stop  offset="1" style="stop-color:#42A5F6"/>
		</linearGradient>
		<path  fill="url(#SVGID_2_)" d="M28,28h1v3c0,0.6,0.4,1,1,1s1-0.4,1-1v-3h1c0.6,0,1-0.4,1-1V16c0-0.6-0.4-1-1-1h-1v-3c0-0.6-0.4-1-1-1
			s-1,0.4-1,1v3h-1c-0.6,0-1,0.4-1,1v11C27,27.6,27.4,28,28,28z M31,17v9h-2v-9H31z"/>
		<linearGradient id="SVGID_3_" gradientUnits="userSpaceOnUse" x1="20" y1="4" x2="20" y2="26">
			<stop  offset="0" style="stop-color:#00A0FF"/>
			<stop  offset="1" style="stop-color:#42A5F6"/>
		</linearGradient>
		<path  fill="url(#SVGID_3_)" d="M18,22h1v3c0,0.6,0.4,1,1,1s1-0.4,1-1v-3h1c0.6,0,1-0.4,1-1V9c0-0.6-0.4-1-1-1h-1V5c0-0.6-0.4-1-1-1
			s-1,0.4-1,1v3h-1c-0.6,0-1,0.4-1,1v12C17,21.6,17.4,22,18,22z M21,10v10h-2V10H21z"/>
		<linearGradient id="SVGID_4_" gradientUnits="userSpaceOnUse" x1="19.5" y1="2" x2="19.5" y2="37">
			<stop  offset="0" style="stop-color:#00A0FF"/>
			<stop  offset="1" style="stop-color:#42A5F6"/>
		</linearGradient>
		<path  fill="url(#SVGID_4_)" d="M36,35H4V3c0-0.6-0.4-1-1-1S2,2.4,2,3v33c0,0.6,0.4,1,1,1h33c0.6,0,1-0.4,1-1C37,35.4,36.6,35,36,35z"/>
	</g>
</g>
<g id="Layer_2"  display="none">
	<g  display="inline">
		<linearGradient id="SVGID_5_" gradientUnits="userSpaceOnUse" x1="19.5" y1="2" x2="19.5" y2="37">
			<stop  offset="0" style="stop-color:#00A0FF"/>
			<stop  offset="1" style="stop-color:#42A5F6"/>
		</linearGradient>
		<path  fill="url(#SVGID_5_)" d="M36,35H5.8l5.9-10.3l6.1,3.5c0.5,0.3,1.1,0.1,1.4-0.4l8.3-14.3l8,4.6c0.5,0.3,1.1,0.1,1.4-0.4
			c0.3-0.5,0.1-1.1-0.4-1.4l-8.9-5.1c-0.5-0.3-1.1-0.1-1.4,0.4L17.9,26l-6.1-3.5c-0.5-0.3-1.1-0.1-1.4,0.4L4,34.1V3c0-0.6-0.4-1-1-1
			S2,2.4,2,3v33c0,0.6,0.4,1,1,1h33c0.6,0,1-0.4,1-1C37,35.4,36.6,35,36,35z"/>
		<linearGradient id="SVGID_6_" gradientUnits="userSpaceOnUse" x1="7" y1="10" x2="7" y2="12">
			<stop  offset="0" style="stop-color:#00A0FF"/>
			<stop  offset="1" style="stop-color:#42A5F6"/>
		</linearGradient>
		<circle  fill="url(#SVGID_6_)" cx="7" cy="11" r="1"/>
		<linearGradient id="SVGID_7_" gradientUnits="userSpaceOnUse" x1="11" y1="10" x2="11" y2="12">
			<stop  offset="0" style="stop-color:#00A0FF"/>
			<stop  offset="1" style="stop-color:#42A5F6"/>
		</linearGradient>
		<circle  fill="url(#SVGID_7_)" cx="11" cy="11" r="1"/>
		<linearGradient id="SVGID_8_" gradientUnits="userSpaceOnUse" x1="15" y1="10" x2="15" y2="12">
			<stop  offset="0" style="stop-color:#00A0FF"/>
			<stop  offset="1" style="stop-color:#42A5F6"/>
		</linearGradient>
		<circle  fill="url(#SVGID_8_)" cx="15" cy="11" r="1"/>
		<linearGradient id="SVGID_9_" gradientUnits="userSpaceOnUse" x1="19" y1="10" x2="19" y2="12">
			<stop  offset="0" style="stop-color:#00A0FF"/>
			<stop  offset="1" style="stop-color:#42A5F6"/>
		</linearGradient>
		<circle  fill="url(#SVGID_9_)" cx="19" cy="11" r="1"/>
		<linearGradient id="SVGID_10_" gradientUnits="userSpaceOnUse" x1="7" y1="18" x2="7" y2="20">
			<stop  offset="0" style="stop-color:#00A0FF"/>
			<stop  offset="1" style="stop-color:#42A5F6"/>
		</linearGradient>
		<circle  fill="url(#SVGID_10_)" cx="7" cy="19" r="1"/>
		<linearGradient id="SVGID_11_" gradientUnits="userSpaceOnUse" x1="11" y1="18" x2="11" y2="20">
			<stop  offset="0" style="stop-color:#00A0FF"/>
			<stop  offset="1" style="stop-color:#42A5F6"/>
		</linearGradient>
		<circle  fill="url(#SVGID_11_)" cx="11" cy="19" r="1"/>
		<linearGradient id="SVGID_12_" gradientUnits="userSpaceOnUse" x1="15" y1="18" x2="15" y2="20">
			<stop  offset="0" style="stop-color:#00A0FF"/>
			<stop  offset="1" style="stop-color:#42A5F6"/>
		</linearGradient>
		<circle  fill="url(#SVGID_12_)" cx="15" cy="19" r="1"/>
		<linearGradient id="SVGID_13_" gradientUnits="userSpaceOnUse" x1="23" y1="10" x2="23" y2="12">
			<stop  offset="0" style="stop-color:#00A0FF"/>
			<stop  offset="1" style="stop-color:#42A5F6"/>
		</linearGradient>
		<circle  fill="url(#SVGID_13_)" cx="23" cy="11" r="1"/>
		<linearGradient id="SVGID_14_" gradientUnits="userSpaceOnUse" x1="19" y1="18" x2="19" y2="20">
			<stop  offset="0" style="stop-color:#00A0FF"/>
			<stop  offset="1" style="stop-color:#42A5F6"/>
		</linearGradient>
		<circle  fill="url(#SVGID_14_)" cx="19" cy="19" r="1"/>
	</g>
</g>
<g id="Layer_3"  display="none">
	<g  display="inline">
		<linearGradient id="SVGID_15_" gradientUnits="userSpaceOnUse" x1="28.9595" y1="2" x2="28.9595" y2="18.0811">
			<stop  offset="0" style="stop-color:#00A0FF"/>
			<stop  offset="1" style="stop-color:#42A5F6"/>
		</linearGradient>
		<path  fill="url(#SVGID_15_)" d="M21.9,2c-0.5,0-0.9,0.4-0.9,0.9v14.2c0,0.5,0.4,0.9,0.9,0.9h14.2c0.5,0,0.9-0.4,0.9-0.9
			C37,8.8,30.2,2,21.9,2z M35.1,16.2H22.8V3.9C29.4,4.4,34.6,9.6,35.1,16.2z"/>
		<linearGradient id="SVGID_16_" gradientUnits="userSpaceOnUse" x1="18" y1="5" x2="18" y2="37">
			<stop  offset="0" style="stop-color:#00A0FF"/>
			<stop  offset="1" style="stop-color:#42A5F6"/>
		</linearGradient>
		<path  fill="url(#SVGID_16_)" d="M33,20H19V6c0-0.6-0.4-1-1-1C9.2,5,2,12.2,2,21s7.2,16,16,16s16-7.2,16-16C34,20.4,33.6,20,33,20z M18,35
			c-7.7,0-14-6.3-14-14C4,13.6,9.7,7.6,17,7.1V21c0,0.6,0.4,1,1,1h13.9C31.4,29.3,25.4,35,18,35z"/>
	</g>
</g>
<g id="Layer_4"  display="none">
	<g  display="inline">
		<g>
			<linearGradient id="SVGID_17_" gradientUnits="userSpaceOnUse" x1="19.5" y1="2" x2="19.5" y2="37">
				<stop  offset="0" style="stop-color:#00A0FF"/>
				<stop  offset="1" style="stop-color:#42A5F6"/>
			</linearGradient>
			<path  fill="url(#SVGID_17_)" d="M36,35H4V3c0-0.6-0.4-1-1-1S2,2.4,2,3v33c0,0.6,0.4,1,1,1h33c0.6,0,1-0.4,1-1C37,35.4,36.6,35,36,35z"/>
		</g>
		<g>
			<linearGradient id="SVGID_18_" gradientUnits="userSpaceOnUse" x1="20.4748" y1="6.75" x2="20.4748" y2="33.25">
				<stop  offset="0" style="stop-color:#00A0FF"/>
				<stop  offset="1" style="stop-color:#42A5F6"/>
			</linearGradient>
			<path  fill="url(#SVGID_18_)" d="M7,24c0.6,0,1-0.4,1-1v-5c0-1.1,0.9-2,2-2s2,0.9,2,2v8c0,2.2,1.8,4,4,4s4-1.8,4-4V11
				c0.1-1.3,1.2-2.3,2.5-2.3s2.3,1,2.5,2.3v17c0,0,0,0.1,0,0.1c0,0.1,0,0.1,0,0.2c0,2.8,2.2,5,5,5s5-2.2,5-5c0-0.1,0-0.1,0-0.2
				c0,0,0-0.1,0-0.1v-6c0-0.6-0.4-1-1-1c-0.6,0-1,0.4-1,1v6h0c0,0.1,0,0.2,0,0.3c0,1.7-1.3,3-3,3s-3-1.3-3-3c0-0.1,0-0.2,0-0.3h0V11
				c-0.1-2.4-2.1-4.3-4.5-4.3S18.1,8.6,18,11v15c0,1.1-0.9,2-2,2s-2-0.9-2-2v-8c0-2.2-1.8-4-4-4s-4,1.8-4,4v5C6,23.6,6.4,24,7,24z"
				/>
		</g>
	</g>
</g>
<g id="Layer_5"  display="none">
	<linearGradient id="SVGID_19_" gradientUnits="userSpaceOnUse" x1="19.5" y1="2" x2="19.5" y2="37">
		<stop  offset="0" style="stop-color:#00A0FF"/>
		<stop  offset="1" style="stop-color:#42A5F6"/>
	</linearGradient>
	<path  display="inline" fill="url(#SVGID_19_)" d="M36,20h-7c-0.6,0-1,0.4-1,1v14h-2V8c0-0.6-0.4-1-1-1h-7c-0.6,0-1,0.4-1,1v27h-2V16c0-0.6-0.4-1-1-1H7
		c-0.6,0-1,0.4-1,1v19H4V3c0-0.6-0.4-1-1-1S2,2.4,2,3v33c0,0.6,0.4,1,1,1h33c0.6,0,1-0.4,1-1V21C37,20.4,36.6,20,36,20z M30,22h5v13
		h-5V22z M19,9h5v26h-5V9z M8,17h5v18H8V17z"/>
</g>
<g id="Layer_6"  display="none">
	<g  display="inline">
		<linearGradient id="SVGID_20_" gradientUnits="userSpaceOnUse" x1="19.5" y1="2" x2="19.5" y2="37">
			<stop  offset="0" style="stop-color:#00A0FF"/>
			<stop  offset="1" style="stop-color:#42A5F6"/>
		</linearGradient>
		<path  fill="url(#SVGID_20_)" d="M36,35H4V3c0-0.6-0.4-1-1-1S2,2.4,2,3v33c0,0.6,0.4,1,1,1h33c0.6,0,1-0.4,1-1C37,35.4,36.6,35,36,35z"/>
		<linearGradient id="SVGID_21_" gradientUnits="userSpaceOnUse" x1="19.9464" y1="6.3008" x2="19.9464" y2="21.2326">
			<stop  offset="0" style="stop-color:#00A0FF"/>
			<stop  offset="1" style="stop-color:#42A5F6"/>
		</linearGradient>
		<path  fill="url(#SVGID_21_)" d="M7.7,21l9-8l6.9,4c0.3,0.2,0.6,0.2,0.9,0c0.2,0,0.3-0.1,0.4-0.2L33.6,8c0.4-0.4,0.4-1,0-1.4
			c-0.4-0.4-1-0.4-1.4,0l-8.3,8.3L17.2,11c0,0-0.1,0-0.2-0.1c-0.4-0.2-0.9-0.2-1.2,0.1l-9.5,8.5c-0.4,0.4-0.4,1-0.1,1.4
			C6.6,21.3,7.2,21.3,7.7,21z"/>
		<linearGradient id="SVGID_22_" gradientUnits="userSpaceOnUse" x1="20.976" y1="14.2939" x2="20.976" y2="32.3917">
			<stop  offset="0" style="stop-color:#00A0FF"/>
			<stop  offset="1" style="stop-color:#42A5F6"/>
		</linearGradient>
		<path  fill="url(#SVGID_22_)" d="M16.3,22c-0.2-0.1-0.3-0.1-0.5-0.1c-0.3,0-0.6,0.1-0.8,0.3l-8.5,8.5c-0.4,0.4-0.4,1,0,1.4
			c0.4,0.4,1,0.4,1.4,0l8-8l9.8,5.4c0.5,0.3,1.1,0.1,1.4-0.4c0,0,0,0,0,0c0,0,0,0,0,0l8.5-13.2c0.3-0.5,0.2-1.1-0.3-1.4
			c-0.5-0.3-1.1-0.2-1.4,0.3l-8.1,12.5L16.3,22z"/>
	</g>
</g>
<g id="Layer_7">
	<g>
		<linearGradient id="SVGID_23_" gradientUnits="userSpaceOnUse" x1="19.5" y1="2" x2="19.5" y2="37">
			<stop  offset="0" style="stop-color:#00A0FF"/>
			<stop  offset="1" style="stop-color:#42A5F6"/>
		</linearGradient>
		<path  fill="url(#SVGID_23_)" d="M36,35H4V3c0-0.6-0.4-1-1-1S2,2.4,2,3v33c0,0.6,0.4,1,1,1h33c0.6,0,1-0.4,1-1C37,35.4,36.6,35,36,35z"/>
		<linearGradient id="SVGID_24_" gradientUnits="userSpaceOnUse" x1="14.5" y1="17" x2="14.5" y2="32">
			<stop  offset="0" style="stop-color:#00A0FF"/>
			<stop  offset="1" style="stop-color:#42A5F6"/>
		</linearGradient>
		<path  fill="url(#SVGID_24_)" d="M14.5,32c4.1,0,7.5-3.4,7.5-7.5S18.6,17,14.5,17S7,20.4,7,24.5S10.4,32,14.5,32z M14.5,19
			c3,0,5.5,2.5,5.5,5.5c0,3-2.5,5.5-5.5,5.5S9,27.5,9,24.5C9,21.5,11.5,19,14.5,19z"/>
		<linearGradient id="SVGID_25_" gradientUnits="userSpaceOnUse" x1="28.5" y1="13" x2="28.5" y2="24">
			<stop  offset="0" style="stop-color:#00A0FF"/>
			<stop  offset="1" style="stop-color:#42A5F6"/>
		</linearGradient>
		<path  fill="url(#SVGID_25_)" d="M28.5,24c3,0,5.5-2.5,5.5-5.5c0-3-2.5-5.5-5.5-5.5S23,15.5,23,18.5C23,21.5,25.5,24,28.5,24z M28.5,15
			c1.9,0,3.5,1.6,3.5,3.5S30.4,22,28.5,22S25,20.4,25,18.5S26.6,15,28.5,15z"/>
		<linearGradient id="SVGID_26_" gradientUnits="userSpaceOnUse" x1="19" y1="6" x2="19" y2="14">
			<stop  offset="0" style="stop-color:#00A0FF"/>
			<stop  offset="1" style="stop-color:#42A5F6"/>
		</linearGradient>
		<path  fill="url(#SVGID_26_)" d="M19,14c2.2,0,4-1.8,4-4c0-2.2-1.8-4-4-4s-4,1.8-4,4C15,12.2,16.8,14,19,14z M19,8c1.1,0,2,0.9,2,2
			c0,1.1-0.9,2-2,2s-2-0.9-2-2C17,8.9,17.9,8,19,8z"/>
	</g>
</g>
<g id="Layer_8"  display="none">
	<linearGradient id="SVGID_27_" gradientUnits="userSpaceOnUse" x1="19.3626" y1="2" x2="19.3626" y2="37">
		<stop  offset="0" style="stop-color:#00A0FF"/>
		<stop  offset="1" style="stop-color:#42A5F6"/>
	</linearGradient>
	<path  display="inline" fill="url(#SVGID_27_)" d="M35.9,35H34V11c0-0.3-0.2-0.6-0.4-0.8c0,0,0,0,0,0c-0.1-0.1-0.2-0.1-0.3-0.1c-0.1,0-0.1,0-0.2,0
		c0,0-0.1,0-0.1,0c0,0-0.1,0-0.1,0c-0.1,0-0.2,0-0.2,0c0,0-0.1,0-0.1,0c0,0-0.1,0-0.1,0L22,16.6L15.6,6.4c-0.1-0.2-0.1-0.3-0.3-0.5
		c-0.1-0.1-0.3-0.2-0.5-0.2c0,0-0.1,0-0.1,0c-0.1,0-0.2,0-0.2,0c-0.2,0-0.3,0-0.5,0.1c-0.2,0.1-0.3,0.2-0.3,0.4L3.9,18V3
		c0-0.6-0.4-1-1-1s-1,0.4-1,1v33c0,0.6,0.4,1,1,1h33c0.6,0,1-0.4,1-1C36.9,35.4,36.4,35,35.9,35z M3.9,30.2l9.7-9.2l7.9,8.4
		c0.4,0.4,1,0.4,1.4,0l9.1-8.6V35H3.9V30.2z M14.5,8.4l6.1,9.8c0,0.1,0.1,0.2,0.1,0.3c0.3,0.5,0.9,0.6,1.4,0.3l0,0c0,0,0,0,0,0
		s0,0,0,0l9.8-6.1v5.3l-9.7,9.2l-7.9-8.4c-0.2-0.2-0.4-0.3-0.7-0.3c-0.3,0-0.5,0.1-0.7,0.3l-9.1,8.6v-6.4L14.5,8.4z"/>
</g>
<g id="Layer_9"  display="none">
	<linearGradient id="SVGID_28_" gradientUnits="userSpaceOnUse" x1="20" y1="2" x2="20" y2="38">
		<stop  offset="0" style="stop-color:#00A0FF"/>
		<stop  offset="1" style="stop-color:#42A5F6"/>
	</linearGradient>
	<path  display="inline" fill="url(#SVGID_28_)" d="M20,2C10.1,2,2,10.1,2,20c0,9.9,8.1,18,18,18s18-8.1,18-18C38,10.1,29.9,2,20,2z M35.9,19h-7
		c-0.5-4.2-3.8-7.5-7.9-7.9v-7C29,4.5,35.5,11,35.9,19z M20,13c3.9,0,7,3.1,7,7c0,3.9-3.1,7-7,7s-7-3.1-7-7C13,16.1,16.1,13,20,13z
		 M20,36c-8.8,0-16-7.2-16-16c0-8.5,6.6-15.4,15-15.9v7c-4.5,0.5-8,4.3-8,8.9c0,5,4,9,9,9c4.6,0,8.4-3.5,8.9-8h7
		C35.4,29.4,28.5,36,20,36z"/>
</g>
<g id="Layer_10"  display="none">
	<linearGradient id="SVGID_29_" gradientUnits="userSpaceOnUse" x1="19.5" y1="3" x2="19.5" y2="37">
		<stop  offset="0" style="stop-color:#00A0FF"/>
		<stop  offset="1" style="stop-color:#42A5F6"/>
	</linearGradient>
	<path  display="inline" fill="url(#SVGID_29_)" d="M37,3h-9h-2h-8h-2H2C1.4,3,1,3.4,1,4v7v2v6v2v6v2v7c0,0.6,0.4,1,1,1h14h2h8h2h9c0.6,0,1-0.4,1-1v-7v-2v-6v-2
		v-6v-2V4C38,3.4,37.6,3,37,3z M26,5v6h-8V5H26z M18,19v-6h8v6H18z M26,21v6h-8v-6H26z M3,5h13v6H3V5z M3,13h13v6H3V13z M3,21h13v6
		H3V21z M3,35v-6h13v6H3z M18,35v-6h8v6H18z M36,35h-8v-6h8V35z M36,27h-8v-6h8V27z M36,19h-8v-6h8V19z M28,11V5h8v6H28z"/>
</g>
<g id="Layer_11"  display="none">
	<g  display="inline">
		<linearGradient id="SVGID_30_" gradientUnits="userSpaceOnUse" x1="4" y1="2" x2="4" y2="8">
			<stop  offset="0" style="stop-color:#00A0FF"/>
			<stop  offset="1" style="stop-color:#42A5F6"/>
		</linearGradient>
		<path  fill="url(#SVGID_30_)" d="M6,2H2C1.4,2,1,2.4,1,3c0,0.6,0.4,1,1,1h1v3c0,0.6,0.4,1,1,1s1-0.4,1-1V4h1c0.6,0,1-0.4,1-1C7,2.4,6.6,2,6,2
			z"/>
		<linearGradient id="SVGID_31_" gradientUnits="userSpaceOnUse" x1="4" y1="10" x2="4" y2="28">
			<stop  offset="0" style="stop-color:#00A0FF"/>
			<stop  offset="1" style="stop-color:#42A5F6"/>
		</linearGradient>
		<path  fill="url(#SVGID_31_)" d="M6,12c0.6,0,1-0.4,1-1c0-0.6-0.4-1-1-1H5H3H2c-0.6,0-1,0.4-1,1c0,0.6,0.4,1,1,1h1v14H2c-0.6,0-1,0.4-1,1
			c0,0.6,0.4,1,1,1h1h2h1c0.6,0,1-0.4,1-1c0-0.6-0.4-1-1-1H5V12H6z"/>
		<linearGradient id="SVGID_32_" gradientUnits="userSpaceOnUse" x1="4" y1="31" x2="4" y2="37">
			<stop  offset="0" style="stop-color:#00A0FF"/>
			<stop  offset="1" style="stop-color:#42A5F6"/>
		</linearGradient>
		<path  fill="url(#SVGID_32_)" d="M6,35H5v-3c0-0.6-0.4-1-1-1s-1,0.4-1,1v3H2c-0.6,0-1,0.4-1,1c0,0.6,0.4,1,1,1h4c0.6,0,1-0.4,1-1
			C7,35.4,6.6,35,6,35z"/>
		<linearGradient id="SVGID_33_" gradientUnits="userSpaceOnUse" x1="25" y1="2" x2="25" y2="37">
			<stop  offset="0" style="stop-color:#00A0FF"/>
			<stop  offset="1" style="stop-color:#42A5F6"/>
		</linearGradient>
		<path  fill="url(#SVGID_33_)" d="M37,2H13c-0.6,0-1,0.4-1,1v7v2v14v2v8c0,0.6,0.4,1,1,1h24c0.6,0,1-0.4,1-1v-8v-2V12v-2V3C38,2.4,37.6,2,37,2
			z M36,35H14v-7h22V35z M36,26H14V12h22V26z M36,10H14V4h22V10z"/>
	</g>
</g>
<g id="Layer_12"  display="none">
	<g  display="inline">
		<g>
			<linearGradient id="SVGID_34_" gradientUnits="userSpaceOnUse" x1="12.0549" y1="5.8284" x2="12.0549" y2="34">
				<stop  offset="0" style="stop-color:#00A0FF"/>
				<stop  offset="1" style="stop-color:#42A5F6"/>
			</linearGradient>
			<path  fill="url(#SVGID_34_)" d="M12.8,6.1c-0.4-0.4-1-0.4-1.4,0l-5.7,5.7c-0.4,0.4-0.4,1,0,1.4c0.4,0.4,1,0.4,1.4,0L11,9.3V33
				c0,0.6,0.4,1,1,1s1-0.4,1-1V9.2l4,4c0.4,0.4,1,0.4,1.4,0c0.4-0.4,0.4-1,0-1.4L12.8,6.1z"/>
		</g>
		<g>
			<linearGradient id="SVGID_35_" gradientUnits="userSpaceOnUse" x1="27.0549" y1="6" x2="27.0549" y2="34.1715">
				<stop  offset="0" style="stop-color:#00A0FF"/>
				<stop  offset="1" style="stop-color:#42A5F6"/>
			</linearGradient>
			<path  fill="url(#SVGID_35_)" d="M33.4,26.8c-0.4-0.4-1-0.4-1.4,0l-4,4V7c0-0.6-0.4-1-1-1s-1,0.4-1,1v23.7l-3.9-3.9c-0.4-0.4-1-0.4-1.4,0
				c-0.4,0.4-0.4,1,0,1.4l5.7,5.7c0.4,0.4,1,0.4,1.4,0l5.7-5.7C33.8,27.8,33.8,27.2,33.4,26.8z"/>
		</g>
	</g>
</g>
<g id="Layer_13"  display="none">
	<g  display="inline">
		<linearGradient id="SVGID_36_" gradientUnits="userSpaceOnUse" x1="18.4993" y1="34" x2="18.4993" y2="36">
			<stop  offset="0" style="stop-color:#00A0FF"/>
			<stop  offset="1" style="stop-color:#047BDF"/>
		</linearGradient>
		<path  fill="url(#SVGID_36_)" d="M32,34H5c-0.6,0-1,0.4-1,1c0,0.6,0.4,1,1,1h27c0.6,0,1-0.4,1-1C33,34.4,32.6,34,32,34z"/>
		<linearGradient id="SVGID_37_" gradientUnits="userSpaceOnUse" x1="18.4993" y1="34" x2="18.4993" y2="36">
			<stop  offset="0" style="stop-color:#00A0FF"/>
			<stop  offset="1" style="stop-color:#047BDF"/>
		</linearGradient>
		<path  fill="url(#SVGID_37_)" d="M32,34H5c-0.6,0-1,0.4-1,1c0,0.6,0.4,1,1,1h27c0.6,0,1-0.4,1-1C33,34.4,32.6,34,32,34L32,34z"/>
	</g>
	<g  display="inline">
		<linearGradient id="SVGID_38_" gradientUnits="userSpaceOnUse" x1="26.6173" y1="4.0007" x2="26.6173" y2="12.7647">
			<stop  offset="0" style="stop-color:#00A0FF"/>
			<stop  offset="1" style="stop-color:#047BDF"/>
		</linearGradient>
		<path  fill="url(#SVGID_38_)" d="M25.9,6.2l2.9,2.9l-1.2,1.2l-2.9-2.9L25.9,6.2 M25.9,4c-0.4,0-0.8,0.1-1.1,0.4l-2.3,2.3
			c-0.4,0.4-0.4,1,0,1.4l4.3,4.3c0.2,0.2,0.5,0.3,0.7,0.3s0.5-0.1,0.7-0.3l2.3-2.3c0.6-0.6,0.6-1.6,0-2.2L27,4.4
			C26.7,4.1,26.3,4,25.9,4L25.9,4z"/>
	</g>
	<g  display="inline">
		<linearGradient id="SVGID_39_" gradientUnits="userSpaceOnUse" x1="15.3024" y1="9.3948" x2="15.3024" y2="30">
			<stop  offset="0" style="stop-color:#00A0FF"/>
			<stop  offset="1" style="stop-color:#047BDF"/>
		</linearGradient>
		<path  fill="url(#SVGID_39_)" d="M20.3,11.8l2.9,2.9L9.9,28H7v-2.9L20.3,11.8 M20.3,9.4c-0.3,0-0.5,0.1-0.7,0.3L5.2,24
			C5.1,24.2,5,24.4,5,24.6v4.6C5,29.7,5.3,30,5.8,30h4.6c0.2,0,0.4-0.1,0.5-0.2l14.4-14.3c0.4-0.4,0.4-1,0-1.4L21,9.7
			C20.8,9.5,20.6,9.4,20.3,9.4L20.3,9.4z"/>
	</g>
</g>
<g id="Layer_14"  display="none">
	<g  display="inline">
		<linearGradient id="SVGID_40_" gradientUnits="userSpaceOnUse" x1="23" y1="17.9346" x2="23" y2="19.9346">
			<stop  offset="0" style="stop-color:#00A0FF"/>
			<stop  offset="1" style="stop-color:#047BDF"/>
		</linearGradient>
		<circle  fill="url(#SVGID_40_)" cx="23" cy="18.9" r="1"/>
		<linearGradient id="SVGID_41_" gradientUnits="userSpaceOnUse" x1="27" y1="17.9346" x2="27" y2="19.9346">
			<stop  offset="0" style="stop-color:#00A0FF"/>
			<stop  offset="1" style="stop-color:#047BDF"/>
		</linearGradient>
		<circle  fill="url(#SVGID_41_)" cx="27" cy="18.9" r="1"/>
		<linearGradient id="SVGID_42_" gradientUnits="userSpaceOnUse" x1="31" y1="17.9346" x2="31" y2="19.9346">
			<stop  offset="0" style="stop-color:#00A0FF"/>
			<stop  offset="1" style="stop-color:#047BDF"/>
		</linearGradient>
		<circle  fill="url(#SVGID_42_)" cx="31" cy="18.9" r="1"/>
		<linearGradient id="SVGID_43_" gradientUnits="userSpaceOnUse" x1="33.7118" y1="12.2777" x2="33.7118" y2="25.5914">
			<stop  offset="0" style="stop-color:#00A0FF"/>
			<stop  offset="1" style="stop-color:#047BDF"/>
		</linearGradient>
		<path  fill="url(#SVGID_43_)" d="M37.2,18.2l-5.7-5.7c-0.4-0.4-1-0.4-1.4,0c-0.4,0.4-0.4,1,0,1.4l4.9,4.9l-4.9,4.9c-0.4,0.4-0.4,1,0,1.4
			c0.4,0.4,1,0.4,1.4,0l5.7-5.7C37.6,19.3,37.6,18.6,37.2,18.2z"/>
		<linearGradient id="SVGID_44_" gradientUnits="userSpaceOnUse" x1="11" y1="10" x2="11" y2="28">
			<stop  offset="0" style="stop-color:#00A0FF"/>
			<stop  offset="1" style="stop-color:#047BDF"/>
		</linearGradient>
		<path  fill="url(#SVGID_44_)" d="M11,10c-5,0-9,4-9,9c0,5,4,9,9,9s9-4,9-9C20,14,16,10,11,10z M11,26c-3.9,0-7-3.1-7-7c0-3.9,3.1-7,7-7
			s7,3.1,7,7C18,22.9,14.9,26,11,26z"/>
	</g>
</g>
<g id="Layer_15"  display="none">
	<g  display="inline">
		<linearGradient id="SVGID_45_" gradientUnits="userSpaceOnUse" x1="19.1056" y1="3" x2="19.1056" y2="18">
			<stop  offset="0" style="stop-color:#00A0FF"/>
			<stop  offset="1" style="stop-color:#047BDF"/>
		</linearGradient>
		<path  fill="url(#SVGID_45_)" d="M5.2,17.1C6.3,10.3,12.3,5,19.5,5c5.3,0,9.8,2.8,12.4,7H26c-0.6,0-1,0.4-1,1c0,0.6,0.4,1,1,1h8
			c0.6,0,1-0.4,1-1V5c0-0.6-0.4-1-1-1s-1,0.4-1,1v5c-3-4.2-7.9-7-13.5-7c-8.2,0-15,6-16.3,13.8c-0.1,0.6,0.4,1.2,1,1.2
			C4.7,18,5.1,17.6,5.2,17.1z"/>
		<linearGradient id="SVGID_46_" gradientUnits="userSpaceOnUse" x1="19.9701" y1="21" x2="19.9701" y2="36">
			<stop  offset="0" style="stop-color:#00A0FF"/>
			<stop  offset="1" style="stop-color:#047BDF"/>
		</linearGradient>
		<path  fill="url(#SVGID_46_)" d="M34.9,21c-0.5,0-0.9,0.4-1,0.9C32.8,28.7,26.8,34,19.6,34c-5.3,0-9.8-2.8-12.4-7h5.9c0.6,0,1-0.4,1-1
			c0-0.6-0.4-1-1-1h-8c-0.6,0-1,0.4-1,1v8c0,0.6,0.4,1,1,1s1-0.4,1-1v-5c3,4.2,7.9,7,13.5,7c8.2,0,15-6,16.3-13.8
			C36,21.6,35.5,21,34.9,21z"/>
	</g>
</g>
<g id="Layer_16"  display="none">
	<g  display="inline">
		<linearGradient id="SVGID_47_" gradientUnits="userSpaceOnUse" x1="19.5" y1="2" x2="19.5" y2="34">
			<stop  offset="0" style="stop-color:#00A0FF"/>
			<stop  offset="1" style="stop-color:#42A5F6"/>
		</linearGradient>
		<path  fill="url(#SVGID_47_)" d="M12,32H6v-8h27c0,0.6,0.4,1,1,1c0.6,0,1-0.4,1-1v-1c0,0,0,0,0,0s0,0,0,0V13c0,0,0,0,0,0s0,0,0,0V3
			c0,0,0,0,0,0c0-0.6-0.4-1-1-1H5C4.4,2,4,2.4,4,3v30c0,0.6,0.4,1,1,1h7c0.6,0,1-0.4,1-1S12.6,32,12,32z M33,12H6V4h27V12z M6,22v-8
			h27v8H6z"/>
		<linearGradient id="SVGID_48_" gradientUnits="userSpaceOnUse" x1="26.4945" y1="27" x2="26.4945" y2="37.76">
			<stop  offset="0" style="stop-color:#00A0FF"/>
			<stop  offset="1" style="stop-color:#42A5F6"/>
		</linearGradient>
		<path  fill="url(#SVGID_48_)" d="M32.8,27c-1.4,0-2.7,0.6-3.7,1.6L28.8,29c-0.4,0.4-0.4,1.1,0,1.5c0.4,0.3,0.9,0.3,1.3,0l0.5-0.4
			c0.7-0.7,1.5-1,2.3-1c2,0,3.7,2,3.2,4.2c-0.3,1.2-1.3,2.2-2.5,2.5c-1.1,0.2-2.2-0.1-3-0.9l-2.6-2.4h0L26.5,31l0,0l-2.7-2.5
			c-0.9-1-2.2-1.5-3.6-1.5c-2.9,0-5.2,2.4-5.2,5.4c0,3,2.3,5.4,5.2,5.4c1.4,0,2.7-0.6,3.7-1.6l0.4-0.4c0.4-0.4,0.4-1.1,0-1.5
			c-0.4-0.3-0.9-0.3-1.3,0l-0.5,0.4c-0.7,0.7-1.5,1-2.3,1c-2,0-3.7-2-3.2-4.2c0.3-1.2,1.3-2.2,2.5-2.5c1.1-0.2,2.2,0.1,3,0.9
			l2.6,2.4h0l1.5,1.3l2.7,2.5c1.3,1.3,3.2,1.9,5.2,1.3c1.8-0.6,3.3-2.3,3.5-4.3C38.4,29.9,35.9,27,32.8,27z"/>
		<linearGradient id="SVGID_49_" gradientUnits="userSpaceOnUse" x1="10" y1="7" x2="10" y2="9">
			<stop  offset="0" style="stop-color:#00A0FF"/>
			<stop  offset="1" style="stop-color:#42A5F6"/>
		</linearGradient>
		<path  fill="url(#SVGID_49_)" d="M9,9h2c0.6,0,1-0.4,1-1s-0.4-1-1-1H9C8.4,7,8,7.4,8,8S8.4,9,9,9z"/>
		<linearGradient id="SVGID_50_" gradientUnits="userSpaceOnUse" x1="10" y1="17" x2="10" y2="19">
			<stop  offset="0" style="stop-color:#00A0FF"/>
			<stop  offset="1" style="stop-color:#42A5F6"/>
		</linearGradient>
		<path  fill="url(#SVGID_50_)" d="M11,17H9c-0.6,0-1,0.4-1,1s0.4,1,1,1h2c0.6,0,1-0.4,1-1S11.6,17,11,17z"/>
		<linearGradient id="SVGID_51_" gradientUnits="userSpaceOnUse" x1="10" y1="27" x2="10" y2="29">
			<stop  offset="0" style="stop-color:#00A0FF"/>
			<stop  offset="1" style="stop-color:#42A5F6"/>
		</linearGradient>
		<path  fill="url(#SVGID_51_)" d="M9,27c-0.6,0-1,0.4-1,1s0.4,1,1,1h2c0.6,0,1-0.4,1-1s-0.4-1-1-1H9z"/>
	</g>
</g>
<g id="Layer_17"  display="none">
	<g  display="inline">
		<linearGradient id="SVGID_52_" gradientUnits="userSpaceOnUse" x1="11" y1="2" x2="11" y2="10">
			<stop  offset="0" style="stop-color:#00A0FF"/>
			<stop  offset="1" style="stop-color:#047BDF"/>
		</linearGradient>
		<path  fill="url(#SVGID_52_)" d="M14,2H8C7.4,2,7,2.4,7,3v6c0,0.6,0.4,1,1,1s1-0.4,1-1V4h5c0.6,0,1-0.4,1-1C15,2.4,14.6,2,14,2z"/>
		<linearGradient id="SVGID_53_" gradientUnits="userSpaceOnUse" x1="11" y1="28" x2="11" y2="36">
			<stop  offset="0" style="stop-color:#00A0FF"/>
			<stop  offset="1" style="stop-color:#047BDF"/>
		</linearGradient>
		<path  fill="url(#SVGID_53_)" d="M14,34H9v-5c0-0.6-0.4-1-1-1s-1,0.4-1,1v6c0,0.6,0.4,1,1,1h6c0.6,0,1-0.4,1-1C15,34.4,14.6,34,14,34z"/>
		<linearGradient id="SVGID_54_" gradientUnits="userSpaceOnUse" x1="8" y1="12" x2="8" y2="26">
			<stop  offset="0" style="stop-color:#00A0FF"/>
			<stop  offset="1" style="stop-color:#047BDF"/>
		</linearGradient>
		<path  fill="url(#SVGID_54_)" d="M14,12H2c-0.6,0-1,0.4-1,1v12c0,0.6,0.4,1,1,1h12c0.6,0,1-0.4,1-1V13C15,12.4,14.6,12,14,12z M13,14v10H3V14
			H13z"/>
		<linearGradient id="SVGID_55_" gradientUnits="userSpaceOnUse" x1="8" y1="16" x2="8" y2="22">
			<stop  offset="0" style="stop-color:#00A0FF"/>
			<stop  offset="1" style="stop-color:#047BDF"/>
		</linearGradient>
		<path  fill="url(#SVGID_55_)" d="M6,20h1v1c0,0.6,0.4,1,1,1s1-0.4,1-1v-1h1c0.6,0,1-0.4,1-1c0-0.6-0.4-1-1-1H9v-1c0-0.6-0.4-1-1-1s-1,0.4-1,1
			v1H6c-0.6,0-1,0.4-1,1C5,19.6,5.4,20,6,20z"/>
		<linearGradient id="SVGID_56_" gradientUnits="userSpaceOnUse" x1="28.0185" y1="2.3184" x2="28.0185" y2="12.398">
			<stop  offset="0" style="stop-color:#00A0FF"/>
			<stop  offset="1" style="stop-color:#047BDF"/>
		</linearGradient>
		<path  fill="url(#SVGID_56_)" d="M19,12.4l18-0.1c0.6,0,1-0.5,1-1l0-8c0-0.6-0.5-1-1-1L19,2.4c-0.6,0-1,0.5-1,1l0,8C18,12,18.5,12.4,19,12.4z
			 M20,4.4l16-0.1l0,6l-16,0.1L20,4.4z"/>
		<linearGradient id="SVGID_57_" gradientUnits="userSpaceOnUse" x1="28.0716" y1="14.3183" x2="28.0716" y2="24.3978">
			<stop  offset="0" style="stop-color:#00A0FF"/>
			<stop  offset="1" style="stop-color:#047BDF"/>
		</linearGradient>
		<path  fill="url(#SVGID_57_)" d="M37,14.3l-18,0.1c-0.6,0-1,0.5-1,1l0,8c0,0.6,0.5,1,1,1l18-0.1c0.6,0,1-0.5,1-1l0-8
			C38.1,14.8,37.6,14.3,37,14.3z M36.1,22.3l-16,0.1l0-6l16-0.1L36.1,22.3z"/>
		<linearGradient id="SVGID_58_" gradientUnits="userSpaceOnUse" x1="28" y1="26" x2="28" y2="36">
			<stop  offset="0" style="stop-color:#00A0FF"/>
			<stop  offset="1" style="stop-color:#047BDF"/>
		</linearGradient>
		<path  fill="url(#SVGID_58_)" d="M37,26H19c-0.6,0-1,0.4-1,1v8c0,0.6,0.4,1,1,1h18c0.6,0,1-0.4,1-1v-8C38,26.4,37.6,26,37,26z M36,28v6H20v-6
			H36z"/>
	</g>
</g>
<g id="Layer_18"  display="none">
	<linearGradient id="SVGID_59_" gradientUnits="userSpaceOnUse" x1="19.5" y1="1" x2="19.5" y2="38">
		<stop  offset="0" style="stop-color:#00A0FF"/>
		<stop  offset="1" style="stop-color:#047BDF"/>
	</linearGradient>
	<path  display="inline" fill="url(#SVGID_59_)" d="M37,1h-6h-2H17h-2h-5H8H2C1.4,1,1,1.4,1,2v6v2v5v2v5v2v13c0,0.6,0.4,1,1,1h6h2h5h2h6c0.6,0,1-0.4,1-1v-6h5h2
		h6c0.6,0,1-0.4,1-1v-6v-2v-5v-2v-5V8V2C38,1.4,37.6,1,37,1z M15,15h-5v-5h5V15z M17,10h5v5h-5V10z M15,17v5h-5v-5H15z M15,24v5h-5
		v-5H15z M17,24h5v5h-5V24z M17,22v-5h5v5H17z M24,17h5v5h-5V17z M24,15v-5h5v5H24z M24,8V3h5v5H24z M22,3v5h-5V3H22z M15,3v5h-5V3
		H15z M3,3h5v5H3V3z M3,10h5v5H3V10z M3,17h5v5H3V17z M8,24v5H3v-5H8z M3,36v-5h5v5H3z M10,36v-5h5v5H10z M22,36h-5v-5h5V36z M24,29
		v-5h5v5H24z M36,29h-5v-5h5V29z M36,22h-5v-5h5V22z M36,15h-5v-5h5V15z M31,8V3h5v5H31z"/>
</g>
<g id="Layer_19"  display="none">
	<linearGradient id="SVGID_60_" gradientUnits="userSpaceOnUse" x1="19.5" y1="1" x2="19.5" y2="38">
		<stop  offset="0" style="stop-color:#00A0FF"/>
		<stop  offset="1" style="stop-color:#047BDF"/>
	</linearGradient>
	<path  display="inline" fill="url(#SVGID_60_)" d="M37,1h-6h-2H17h-2h-5H8H2C1.4,1,1,1.4,1,2v6v2v27c0,0.6,0.4,1,1,1h6h2h5h2h12h2h6c0.6,0,1-0.4,1-1V10V8V2
		C38,1.4,37.6,1,37,1z M29,3v5h-5V3H29z M22,3v5h-5V3H22z M15,3v5h-5V3H15z M3,3h5v5H3V3z M3,36V10h5v26H3z M10,36V10h5v26H10z
		 M17,10h5v26h-5V10z M24,36V10h5v26H24z M36,36h-5V10h5V36z M31,8V3h5v5H31z"/>
</g>
<g id="Layer_20"  display="none">
	<linearGradient id="SVGID_61_" gradientUnits="userSpaceOnUse" x1="19.5" y1="1" x2="19.5" y2="38">
		<stop  offset="0" style="stop-color:#00A0FF"/>
		<stop  offset="1" style="stop-color:#047BDF"/>
	</linearGradient>
	<path  display="inline" fill="url(#SVGID_61_)" d="M37,1H10H8H2C1.4,1,1,1.4,1,2v6v2v12v2v5v2v6c0,0.6,0.4,1,1,1h6h2h27c0.6,0,1-0.4,1-1v-6v-2v-5v-2V10V8V2
		C38,1.4,37.6,1,37,1z M3,3h5v5H3V3z M8,10v5H3v-5H8z M3,17h5v5H3V17z M3,24h5v5H3V24z M3,36v-5h5v5H3z M36,36H10v-5h26V36z M36,29
		H10v-5h26V29z M10,22v-5h26v5H10z M36,15H10v-5h26V15z M10,8V3h26v5H10z"/>
</g>
<g id="Layer_21"  display="none">
	<linearGradient id="SVGID_62_" gradientUnits="userSpaceOnUse" x1="18.5" y1="1" x2="18.5" y2="34">
		<stop  offset="0" style="stop-color:#00A0FF"/>
		<stop  offset="1" style="stop-color:#047BDF"/>
	</linearGradient>
	<path  display="inline" fill="url(#SVGID_62_)" d="M36,1H1C0.4,1,0,1.4,0,2v6v2v23c0,0.6,0.4,1,1,1h8c0.5,0,1-0.4,1-1v0c0-0.6-0.4-1-1-1V10h5v5c0,0.6,0.4,1,1,1
		s1-0.4,1-1v-5h5v1c0,0.6,0.4,1,1,1s1-0.4,1-1v-1h5v1c0,0.6,0.4,1,1,1s1-0.4,1-1v-1h5v5c0,0.6,0.4,1,1,1s1-0.4,1-1v-5V8V2
		C37,1.4,36.6,1,36,1z M7,32H2V10h5V32z M2,8V3h5v5H2z M9,8V3h5v5H9z M16,8V3h5v5H16z M23,8V3h5v5H23z M30,8V3h5v5H30z"/>
	<linearGradient id="SVGID_63_" gradientUnits="userSpaceOnUse" x1="19" y1="24" x2="19" y2="27">
		<stop  offset="0" style="stop-color:#00A0FF"/>
		<stop  offset="1" style="stop-color:#047BDF"/>
	</linearGradient>
	<path  display="inline" fill="url(#SVGID_63_)" d="M19,27L19,27c-0.6,0-1-0.4-1-1v-1c0-0.6,0.4-1,1-1h0c0.6,0,1,0.4,1,1v1C20,26.6,19.6,27,19,27z"/>
	<linearGradient id="SVGID_64_" gradientUnits="userSpaceOnUse" x1="32" y1="24" x2="32" y2="27">
		<stop  offset="0" style="stop-color:#00A0FF"/>
		<stop  offset="1" style="stop-color:#047BDF"/>
	</linearGradient>
	<path  display="inline" fill="url(#SVGID_64_)" d="M32,27L32,27c-0.6,0-1-0.4-1-1v-1c0-0.6,0.4-1,1-1h0c0.6,0,1,0.4,1,1v1C33,26.6,32.6,27,32,27z"/>
	<g  display="inline">
		<linearGradient id="SVGID_65_" gradientUnits="userSpaceOnUse" x1="25.5" y1="14" x2="25.5" y2="38">
			<stop  offset="0" style="stop-color:#00A0FF"/>
			<stop  offset="1" style="stop-color:#047BDF"/>
		</linearGradient>
		<path  fill="url(#SVGID_65_)" d="M28,16c0.6,0,1,0.4,1,1v1v2h2h6v16H14V20h6h2v-2v-1c0-0.6,0.4-1,1-1H28 M28,14h-5c-1.7,0-3,1.3-3,3v1h-6
			c-1.1,0-2,0.9-2,2v16c0,1.1,0.9,2,2,2h23c1.1,0,2-0.9,2-2V20c0-1.1-0.9-2-2-2h-6v-1C31,15.3,29.7,14,28,14L28,14z"/>
	</g>
	<g  display="inline">
		<linearGradient id="SVGID_66_" gradientUnits="userSpaceOnUse" x1="25.5" y1="18" x2="25.5" y2="30">
			<stop  offset="0" style="stop-color:#00A0FF"/>
			<stop  offset="1" style="stop-color:#047BDF"/>
		</linearGradient>
		<path  fill="url(#SVGID_66_)" d="M37,20v4c0,2.2-1.8,4-4,4H18c-2.2,0-4-1.8-4-4v-4H37 M37,18H14c-1.1,0-2,0.9-2,2v4c0,3.3,2.7,6,6,6h15
			c3.3,0,6-2.7,6-6v-4C39,18.9,38.1,18,37,18L37,18z"/>
	</g>
</g>
<g id="Layer_22"  display="none">
	<g  display="inline">
		<linearGradient id="SVGID_67_" gradientUnits="userSpaceOnUse" x1="19.5" y1="2" x2="19.5" y2="12">
			<stop  offset="0" style="stop-color:#00A0FF"/>
			<stop  offset="1" style="stop-color:#047BDF"/>
		</linearGradient>
		<path  fill="url(#SVGID_67_)" d="M36,2H3C2.4,2,2,2.4,2,3v8c0,0.6,0.4,1,1,1h3.1c0.6,0,1-0.4,1-1c0-0.6-0.4-1-1-1H4V4h31v6H23
			c-0.6,0-1,0.4-1,1c0,0.6,0.4,1,1,1h13c0.6,0,1-0.4,1-1V3C37,2.4,36.6,2,36,2z"/>
		<linearGradient id="SVGID_68_" gradientUnits="userSpaceOnUse" x1="14.0549" y1="6.8284" x2="14.0549" y2="24">
			<stop  offset="0" style="stop-color:#00A0FF"/>
			<stop  offset="1" style="stop-color:#047BDF"/>
		</linearGradient>
		<path  fill="url(#SVGID_68_)" d="M14.8,7.1c-0.4-0.4-1-0.4-1.4,0l-5.7,5.7c-0.4,0.4-0.4,1,0,1.4c0.4,0.4,1,0.4,1.4,0l3.9-3.9V23
			c0,0.6,0.4,1,1,1s1-0.4,1-1V10.2l4,4c0.4,0.4,1,0.4,1.4,0c0.4-0.4,0.4-1,0-1.4L14.8,7.1z"/>
		<linearGradient id="SVGID_69_" gradientUnits="userSpaceOnUse" x1="25.0549" y1="14" x2="25.0549" y2="31.1715">
			<stop  offset="0" style="stop-color:#00A0FF"/>
			<stop  offset="1" style="stop-color:#047BDF"/>
		</linearGradient>
		<path  fill="url(#SVGID_69_)" d="M25,14c-0.6,0-1,0.4-1,1v12.7l-3.9-3.9c-0.4-0.4-1-0.4-1.4,0c-0.4,0.4-0.4,1,0,1.4l5.7,5.7
			c0.4,0.4,1,0.4,1.4,0l5.7-5.7c0.4-0.4,0.4-1,0-1.4c-0.4-0.4-1-0.4-1.4,0l-4,4V15C26,14.4,25.6,14,25,14z"/>
		<linearGradient id="SVGID_70_" gradientUnits="userSpaceOnUse" x1="19.5" y1="26" x2="19.5" y2="36">
			<stop  offset="0" style="stop-color:#00A0FF"/>
			<stop  offset="1" style="stop-color:#047BDF"/>
		</linearGradient>
		<path  fill="url(#SVGID_70_)" d="M36,26h-3c-0.6,0-1,0.4-1,1c0,0.6,0.4,1,1,1h2v6H4v-6h12c0.6,0,1-0.4,1-1c0-0.6-0.4-1-1-1H3
			c-0.6,0-1,0.4-1,1v8c0,0.6,0.4,1,1,1h33c0.6,0,1-0.4,1-1v-8C37,26.4,36.6,26,36,26z"/>
	</g>
</g>
<g id="Layer_23"  display="none">
	<g  display="inline">
		<linearGradient id="SVGID_71_" gradientUnits="userSpaceOnUse" x1="9.0054" y1="8" x2="9.0054" y2="10">
			<stop  offset="0" style="stop-color:#00A0FF"/>
			<stop  offset="1" style="stop-color:#047BDF"/>
		</linearGradient>
		<path  fill="url(#SVGID_71_)" d="M8,10h2c0.6,0,1-0.4,1-1s-0.4-1-1-1H8C7.5,8,7,8.4,7,9S7.5,10,8,10z"/>
		<linearGradient id="SVGID_72_" gradientUnits="userSpaceOnUse" x1="9.0054" y1="18" x2="9.0054" y2="20">
			<stop  offset="0" style="stop-color:#00A0FF"/>
			<stop  offset="1" style="stop-color:#047BDF"/>
		</linearGradient>
		<path  fill="url(#SVGID_72_)" d="M10,18H8c-0.6,0-1,0.4-1,1s0.4,1,1,1h2c0.6,0,1-0.4,1-1S10.6,18,10,18z"/>
		<linearGradient id="SVGID_73_" gradientUnits="userSpaceOnUse" x1="18.5109" y1="3" x2="18.5109" y2="35">
			<stop  offset="0" style="stop-color:#00A0FF"/>
			<stop  offset="1" style="stop-color:#047BDF"/>
		</linearGradient>
		<path  fill="url(#SVGID_73_)" d="M15,33H5v-8h27c0,0.6,0.4,1,1,1s1-0.4,1-1v-1c0,0,0,0,0,0s0,0,0,0V14c0,0,0,0,0,0s0,0,0,0V4c0,0,0,0,0,0
			c0-0.6-0.4-1-1-1H4l0,0h0C3.5,3,3,3.4,3,4v30c0,0.1,0,0.2,0.1,0.3c0,0.1,0.1,0.1,0.1,0.2c0.1,0.1,0.2,0.2,0.3,0.3
			C3.6,34.9,3.8,35,3.9,35c0,0,0,0,0.1,0l0,0h0h11c0.6,0,1-0.4,1-1S15.6,33,15,33z M32,13H5V5h27V13z M5,23v-8h27v8H5z"/>
		<linearGradient id="SVGID_74_" gradientUnits="userSpaceOnUse" x1="28" y1="32" x2="28" y2="34">
			<stop  offset="0" style="stop-color:#00A0FF"/>
			<stop  offset="1" style="stop-color:#047BDF"/>
		</linearGradient>
		<path  fill="url(#SVGID_74_)" d="M24,33c0,0.5,0.5,1,1,1h6c0.5,0,1-0.5,1-1s-0.5-1-1-1h-6C24.5,32,24,32.5,24,33z"/>
		<linearGradient id="SVGID_75_" gradientUnits="userSpaceOnUse" x1="33.5" y1="28" x2="33.5" y2="38">
			<stop  offset="0" style="stop-color:#00A0FF"/>
			<stop  offset="1" style="stop-color:#047BDF"/>
		</linearGradient>
		<path  fill="url(#SVGID_75_)" d="M33,28h-3c-0.5,0-1,0.5-1,1s0.5,1,1,1h3c1.7,0,3,1.3,3,3s-1.3,3-3,3h-3c-0.5,0-1,0.5-1,1s0.5,1,1,1h3
			c2.8,0,5-2.2,5-5S35.8,28,33,28z"/>
		<linearGradient id="SVGID_76_" gradientUnits="userSpaceOnUse" x1="22.5" y1="28" x2="22.5" y2="38">
			<stop  offset="0" style="stop-color:#00A0FF"/>
			<stop  offset="1" style="stop-color:#047BDF"/>
		</linearGradient>
		<path  fill="url(#SVGID_76_)" d="M26,36h-3c-1.7,0-3-1.3-3-3s1.3-3,3-3h3c0.5,0,1-0.5,1-1s-0.5-1-1-1h-3c-2.8,0-5,2.2-5,5s2.2,5,5,5h3
			c0.5,0,1-0.5,1-1S26.5,36,26,36z"/>
		<linearGradient id="SVGID_77_" gradientUnits="userSpaceOnUse" x1="9.0054" y1="28" x2="9.0054" y2="30">
			<stop  offset="0" style="stop-color:#00A0FF"/>
			<stop  offset="1" style="stop-color:#047BDF"/>
		</linearGradient>
		<path  fill="url(#SVGID_77_)" d="M8,28c-0.6,0-1,0.4-1,1s0.4,1,1,1h2c0.6,0,1-0.4,1-1s-0.4-1-1-1H8z"/>
	</g>
</g>
<g id="Layer_27"  display="none">
	<g  display="inline">
		<linearGradient id="SVGID_78_" gradientUnits="userSpaceOnUse" x1="20" y1="16.5" x2="20" y2="28.5">
			<stop  offset="0" style="stop-color:#00A0FF"/>
			<stop  offset="1" style="stop-color:#047BDF"/>
		</linearGradient>
		<path  fill="url(#SVGID_78_)" d="M15,23.5h4v4c0,0.6,0.4,1,1,1s1-0.4,1-1v-4h4c0.6,0,1-0.4,1-1c0-0.6-0.4-1-1-1h-4v-4c0-0.6-0.4-1-1-1
			s-1,0.4-1,1v4h-4c-0.6,0-1,0.4-1,1C14,23.1,14.4,23.5,15,23.5z"/>
		<linearGradient id="SVGID_79_" gradientUnits="userSpaceOnUse" x1="19.5" y1="3" x2="19.5" y2="37">
			<stop  offset="0" style="stop-color:#00A0FF"/>
			<stop  offset="1" style="stop-color:#047BDF"/>
		</linearGradient>
		<path  fill="url(#SVGID_79_)" d="M36,3h-8h-8h-8H3C2.4,3,2,3.4,2,4v32c0,0.6,0.4,1,1,1h33c0.6,0,1-0.4,1-1V4C37,3.4,36.6,3,36,3z M29,5h6v5
			h-6V5z M27,10h-6V5h6V10z M19,10h-6V5h6V10z M11,11c0,0.6,0.4,1,1,1h23v23H4V5h7V11z"/>
	</g>
</g>
<g id="Layer_25"  display="none">
	<g  display="inline">
		<linearGradient id="SVGID_80_" gradientUnits="userSpaceOnUse" x1="19.5" y1="3" x2="19.5" y2="36">
			<stop  offset="0" style="stop-color:#00A0FF"/>
			<stop  offset="1" style="stop-color:#047BDF"/>
		</linearGradient>
		<path  fill="url(#SVGID_80_)" d="M37,4C37,4,37,4,37,4c0-0.6-0.4-1-1-1H3C2.4,3,2,3.4,2,4v31c0,0.6,0.4,1,1,1h33c0.6,0,1-0.4,1-1c0,0,0,0,0,0
			V4z M17,5h18v29H17V5z M15,34H4V5h11V34z"/>
		<linearGradient id="SVGID_81_" gradientUnits="userSpaceOnUse" x1="9.5" y1="19" x2="9.5" y2="21">
			<stop  offset="0" style="stop-color:#00A0FF"/>
			<stop  offset="1" style="stop-color:#047BDF"/>
		</linearGradient>
		<path  fill="url(#SVGID_81_)" d="M12,19H7c-0.6,0-1,0.4-1,1c0,0.6,0.4,1,1,1h5c0.6,0,1-0.4,1-1C13,19.4,12.6,19,12,19z"/>
		<linearGradient id="SVGID_82_" gradientUnits="userSpaceOnUse" x1="9.5" y1="14" x2="9.5" y2="16">
			<stop  offset="0" style="stop-color:#00A0FF"/>
			<stop  offset="1" style="stop-color:#047BDF"/>
		</linearGradient>
		<path  fill="url(#SVGID_82_)" d="M7,16h5c0.6,0,1-0.4,1-1c0-0.6-0.4-1-1-1H7c-0.6,0-1,0.4-1,1C6,15.6,6.4,16,7,16z"/>
		<linearGradient id="SVGID_83_" gradientUnits="userSpaceOnUse" x1="9.5" y1="9" x2="9.5" y2="11">
			<stop  offset="0" style="stop-color:#00A0FF"/>
			<stop  offset="1" style="stop-color:#047BDF"/>
		</linearGradient>
		<path  fill="url(#SVGID_83_)" d="M7,11h5c0.6,0,1-0.4,1-1c0-0.6-0.4-1-1-1H7c-0.6,0-1,0.4-1,1C6,10.6,6.4,11,7,11z"/>
	</g>
</g>
<g id="Layer_26"  display="none">
	<g  display="inline">
		<linearGradient id="SVGID_84_" gradientUnits="userSpaceOnUse" x1="18.5" y1="3" x2="18.5" y2="36">
			<stop  offset="0" style="stop-color:#00A0FF"/>
			<stop  offset="1" style="stop-color:#047BDF"/>
		</linearGradient>
		<path  fill="url(#SVGID_84_)" d="M35,3L35,3H2C1.4,3,1,3.4,1,4v31c0,0.6,0.4,1,1,1h14c0.6,0,1-0.4,1-1c0-0.6-0.4-1-1-1V5h18v12
			c0,0.6,0.4,1,1,1h0c0.6,0,1-0.4,1-1V4C36,3.4,35.6,3,35,3z M14,34H3V5h11V34z"/>
		<linearGradient id="SVGID_85_" gradientUnits="userSpaceOnUse" x1="8.5" y1="19" x2="8.5" y2="21">
			<stop  offset="0" style="stop-color:#00A0FF"/>
			<stop  offset="1" style="stop-color:#047BDF"/>
		</linearGradient>
		<path  fill="url(#SVGID_85_)" d="M11,19H6c-0.6,0-1,0.4-1,1c0,0.6,0.4,1,1,1h5c0.6,0,1-0.4,1-1C12,19.4,11.6,19,11,19z"/>
		<linearGradient id="SVGID_86_" gradientUnits="userSpaceOnUse" x1="8.5" y1="14" x2="8.5" y2="16">
			<stop  offset="0" style="stop-color:#00A0FF"/>
			<stop  offset="1" style="stop-color:#047BDF"/>
		</linearGradient>
		<path  fill="url(#SVGID_86_)" d="M6,16h5c0.6,0,1-0.4,1-1c0-0.6-0.4-1-1-1H6c-0.6,0-1,0.4-1,1C5,15.6,5.4,16,6,16z"/>
		<linearGradient id="SVGID_87_" gradientUnits="userSpaceOnUse" x1="8.5" y1="9" x2="8.5" y2="11">
			<stop  offset="0" style="stop-color:#00A0FF"/>
			<stop  offset="1" style="stop-color:#047BDF"/>
		</linearGradient>
		<path  fill="url(#SVGID_87_)" d="M6,11h5c0.6,0,1-0.4,1-1c0-0.6-0.4-1-1-1H6c-0.6,0-1,0.4-1,1C5,10.6,5.4,11,6,11z"/>
	</g>
	<linearGradient id="SVGID_88_" gradientUnits="userSpaceOnUse" x1="27.9978" y1="17" x2="27.9978" y2="39">
		<stop  offset="0" style="stop-color:#00A0FF"/>
		<stop  offset="1" style="stop-color:#047BDF"/>
	</linearGradient>
	<path  display="inline" fill="none" stroke="url(#SVGID_88_)" stroke-width="2" stroke-miterlimit="10" d="M35.4,29c0-0.3,0.1-0.6,0.1-1s0-0.7-0.1-1l2.1-1.6c0.2-0.1,0.2-0.4,0.1-0.6l-2-3.5c-0.1-0.2-0.4-0.3-0.6-0.2
		l-2.5,1c-0.5-0.4-1.1-0.7-1.7-1l-0.4-2.6c0-0.2-0.2-0.4-0.5-0.4h-4c-0.3,0-0.5,0.2-0.5,0.4l-0.4,2.6c-0.6,0.3-1.2,0.6-1.7,1L21,21
		c-0.2-0.1-0.5,0-0.6,0.2l-2,3.5c-0.1,0.2-0.1,0.5,0.1,0.6l2.1,1.7c0,0.3-0.1,0.6-0.1,1s0,0.7,0.1,1l-2.1,1.6
		c-0.2,0.1-0.2,0.4-0.1,0.6l2,3.5c0.1,0.2,0.4,0.3,0.6,0.2l2.5-1c0.5,0.4,1.1,0.7,1.7,1l0.4,2.6c0,0.2,0.2,0.4,0.5,0.4h4
		c0.3,0,0.5-0.2,0.5-0.4l0.4-2.6c0.6-0.3,1.2-0.6,1.7-1l2.5,1c0.2,0.1,0.5,0,0.6-0.2l2-3.5c0.1-0.2,0.1-0.5-0.1-0.6L35.4,29z
		 M28,31.5c-1.9,0-3.5-1.6-3.5-3.5s1.6-3.5,3.5-3.5s3.5,1.6,3.5,3.5S29.9,31.5,28,31.5z"/>
</g>
</svg>
