<?xml version="1.0" encoding="utf-8"?>
<!-- Generator: Adobe Illustrator 23.0.3, SVG Export Plug-In . SVG Version: 6.00 Build 0)  -->
<svg version="1.1" xmlns="http://www.w3.org/2000/svg" xmlns:xlink="http://www.w3.org/1999/xlink" x="0px" y="0px"
	 viewBox="0 0 39 39" style="enable-background:new 0 0 39 39;" xml:space="preserve">

<g id="Layer_1"  display="none">
	<g  display="inline">
		<linearGradient id="SVGID_1_" gradientUnits="userSpaceOnUse" x1="10" y1="11" x2="10" y2="32">
			<stop  offset="0" style="stop-color:#00A0FF"/>
			<stop  offset="1" style="stop-color:#047BDF"/>
		</linearGradient>
		<path  fill="url(#SVGID_1_)" d="M8,28h1v3c0,0.6,0.4,1,1,1s1-0.4,1-1v-3h1c0.6,0,1-0.4,1-1V16c0-0.6-0.4-1-1-1h-1v-3c0-0.6-0.4-1-1-1
			s-1,0.4-1,1v3H8c-0.6,0-1,0.4-1,1v11C7,27.6,7.4,28,8,28z M11,17v9H9v-9H11z"/>
		<linearGradient id="SVGID_2_" gradientUnits="userSpaceOnUse" x1="30" y1="11" x2="30" y2="32">
			<stop  offset="0" style="stop-color:#00A0FF"/>
			<stop  offset="1" style="stop-color:#047BDF"/>
		</linearGradient>
		<path  fill="url(#SVGID_2_)" d="M28,28h1v3c0,0.6,0.4,1,1,1s1-0.4,1-1v-3h1c0.6,0,1-0.4,1-1V16c0-0.6-0.4-1-1-1h-1v-3c0-0.6-0.4-1-1-1
			s-1,0.4-1,1v3h-1c-0.6,0-1,0.4-1,1v11C27,27.6,27.4,28,28,28z M31,17v9h-2v-9H31z"/>
		<linearGradient id="SVGID_3_" gradientUnits="userSpaceOnUse" x1="20" y1="4" x2="20" y2="26">
			<stop  offset="0" style="stop-color:#00A0FF"/>
			<stop  offset="1" style="stop-color:#047BDF"/>
		</linearGradient>
		<path  fill="url(#SVGID_3_)" d="M18,22h1v3c0,0.6,0.4,1,1,1s1-0.4,1-1v-3h1c0.6,0,1-0.4,1-1V9c0-0.6-0.4-1-1-1h-1V5c0-0.6-0.4-1-1-1
			s-1,0.4-1,1v3h-1c-0.6,0-1,0.4-1,1v12C17,21.6,17.4,22,18,22z M21,10v10h-2V10H21z"/>
		<linearGradient id="SVGID_4_" gradientUnits="userSpaceOnUse" x1="19.5" y1="2" x2="19.5" y2="37">
			<stop  offset="0" style="stop-color:#00A0FF"/>
			<stop  offset="1" style="stop-color:#047BDF"/>
		</linearGradient>
		<path  fill="url(#SVGID_4_)" d="M36,35H4V3c0-0.6-0.4-1-1-1S2,2.4,2,3v33c0,0.6,0.4,1,1,1h33c0.6,0,1-0.4,1-1C37,35.4,36.6,35,36,35z"/>
	</g>
</g>
<g id="Layer_2"  display="none">
	<path  display="inline" d="M36,35H5.8l5.9-10.3l6.1,3.5c0.5,0.3,1.1,0.1,1.4-0.4l8.3-14.3l8,4.6c0.5,0.3,1.1,0.1,1.4-0.4
		c0.3-0.5,0.1-1.1-0.4-1.4l-8.9-5.1c-0.5-0.3-1.1-0.1-1.4,0.4L17.9,26l-6.1-3.5c-0.5-0.3-1.1-0.1-1.4,0.4L4,34.1V3c0-0.6-0.4-1-1-1
		S2,2.4,2,3v33c0,0.6,0.4,1,1,1h33c0.6,0,1-0.4,1-1C37,35.4,36.6,35,36,35z"/>
	<circle  display="inline" cx="7" cy="11" r="1"/>
	<circle  display="inline" cx="11" cy="11" r="1"/>
	<circle  display="inline" cx="15" cy="11" r="1"/>
	<circle  display="inline" cx="19" cy="11" r="1"/>
	<circle  display="inline" cx="7" cy="19" r="1"/>
	<circle  display="inline" cx="11" cy="19" r="1"/>
	<circle  display="inline" cx="15" cy="19" r="1"/>
	<circle  display="inline" cx="23" cy="11" r="1"/>
	<circle  display="inline" cx="19" cy="19" r="1"/>
</g>
<g id="Layer_3"  display="none">
	<g  display="inline">
		<linearGradient id="SVGID_5_" gradientUnits="userSpaceOnUse" x1="28.9595" y1="2" x2="28.9595" y2="18.0811">
			<stop  offset="0" style="stop-color:#00A0FF"/>
			<stop  offset="1" style="stop-color:#047BDF"/>
		</linearGradient>
		<path  fill="url(#SVGID_5_)" d="M21.9,2c-0.5,0-0.9,0.4-0.9,0.9v14.2c0,0.5,0.4,0.9,0.9,0.9h14.2c0.5,0,0.9-0.4,0.9-0.9C37,8.8,30.2,2,21.9,2
			z M35.1,16.2H22.8V3.9C29.4,4.4,34.6,9.6,35.1,16.2z"/>
		<linearGradient id="SVGID_6_" gradientUnits="userSpaceOnUse" x1="18" y1="5" x2="18" y2="37">
			<stop  offset="0" style="stop-color:#00A0FF"/>
			<stop  offset="1" style="stop-color:#047BDF"/>
		</linearGradient>
		<path  fill="url(#SVGID_6_)" d="M33,20H19V6c0-0.6-0.4-1-1-1C9.2,5,2,12.2,2,21s7.2,16,16,16s16-7.2,16-16C34,20.4,33.6,20,33,20z M18,35
			c-7.7,0-14-6.3-14-14C4,13.6,9.7,7.6,17,7.1V21c0,0.6,0.4,1,1,1h13.9C31.4,29.3,25.4,35,18,35z"/>
	</g>
</g>
<g id="Layer_4"  display="none">
	<g  display="inline">
		<g>
			<linearGradient id="SVGID_7_" gradientUnits="userSpaceOnUse" x1="19.5" y1="2" x2="19.5" y2="37">
				<stop  offset="0" style="stop-color:#00A0FF"/>
				<stop  offset="1" style="stop-color:#047BDF"/>
			</linearGradient>
			<path  fill="url(#SVGID_7_)" d="M36,35H4V3c0-0.6-0.4-1-1-1S2,2.4,2,3v33c0,0.6,0.4,1,1,1h33c0.6,0,1-0.4,1-1C37,35.4,36.6,35,36,35z"/>
		</g>
		<g>
			<linearGradient id="SVGID_8_" gradientUnits="userSpaceOnUse" x1="20.4748" y1="6.75" x2="20.4748" y2="33.25">
				<stop  offset="0" style="stop-color:#00A0FF"/>
				<stop  offset="1" style="stop-color:#047BDF"/>
			</linearGradient>
			<path  fill="url(#SVGID_8_)" d="M7,24c0.6,0,1-0.4,1-1v-5c0-1.1,0.9-2,2-2s2,0.9,2,2v8c0,2.2,1.8,4,4,4s4-1.8,4-4V11
				c0.1-1.3,1.2-2.3,2.5-2.3s2.3,1,2.5,2.3v17c0,0,0,0.1,0,0.1c0,0.1,0,0.1,0,0.2c0,2.8,2.2,5,5,5s5-2.2,5-5c0-0.1,0-0.1,0-0.2
				c0,0,0-0.1,0-0.1v-6c0-0.6-0.4-1-1-1c-0.6,0-1,0.4-1,1v6h0c0,0.1,0,0.2,0,0.3c0,1.7-1.3,3-3,3s-3-1.3-3-3c0-0.1,0-0.2,0-0.3h0V11
				c-0.1-2.4-2.1-4.3-4.5-4.3S18.1,8.6,18,11v15c0,1.1-0.9,2-2,2s-2-0.9-2-2v-8c0-2.2-1.8-4-4-4s-4,1.8-4,4v5C6,23.6,6.4,24,7,24z"
				/>
		</g>
	</g>
</g>
<g id="Layer_5"  display="none">
	<linearGradient id="SVGID_9_" gradientUnits="userSpaceOnUse" x1="19.5" y1="2" x2="19.5" y2="37">
		<stop  offset="0" style="stop-color:#00A0FF"/>
		<stop  offset="1" style="stop-color:#047BDF"/>
	</linearGradient>
	<path  display="inline" fill="url(#SVGID_9_)" d="M36,20h-7c-0.6,0-1,0.4-1,1v14h-2V8c0-0.6-0.4-1-1-1h-7c-0.6,0-1,0.4-1,1v27h-2V16c0-0.6-0.4-1-1-1H7
		c-0.6,0-1,0.4-1,1v19H4V3c0-0.6-0.4-1-1-1S2,2.4,2,3v33c0,0.6,0.4,1,1,1h33c0.6,0,1-0.4,1-1V21C37,20.4,36.6,20,36,20z M30,22h5v13
		h-5V22z M19,9h5v26h-5V9z M8,17h5v18H8V17z"/>
</g>
<g id="Layer_6"  display="none">
	<g  display="inline">
		<linearGradient id="SVGID_10_" gradientUnits="userSpaceOnUse" x1="19.5" y1="2" x2="19.5" y2="37">
			<stop  offset="0" style="stop-color:#00A0FF"/>
			<stop  offset="1" style="stop-color:#047BDF"/>
		</linearGradient>
		<path  fill="url(#SVGID_10_)" d="M36,35H4V3c0-0.6-0.4-1-1-1S2,2.4,2,3v33c0,0.6,0.4,1,1,1h33c0.6,0,1-0.4,1-1C37,35.4,36.6,35,36,35z"/>
		<linearGradient id="SVGID_11_" gradientUnits="userSpaceOnUse" x1="19.9464" y1="6.3008" x2="19.9464" y2="21.2326">
			<stop  offset="0" style="stop-color:#00A0FF"/>
			<stop  offset="1" style="stop-color:#047BDF"/>
		</linearGradient>
		<path  fill="url(#SVGID_11_)" d="M7.7,21l9-8l6.9,4c0.3,0.2,0.6,0.2,0.9,0c0.2,0,0.3-0.1,0.4-0.2L33.6,8c0.4-0.4,0.4-1,0-1.4
			c-0.4-0.4-1-0.4-1.4,0l-8.3,8.3L17.2,11c0,0-0.1,0-0.2-0.1c-0.4-0.2-0.9-0.2-1.2,0.1l-9.5,8.5c-0.4,0.4-0.4,1-0.1,1.4
			C6.6,21.3,7.2,21.3,7.7,21z"/>
		<linearGradient id="SVGID_12_" gradientUnits="userSpaceOnUse" x1="20.976" y1="14.2939" x2="20.976" y2="32.3917">
			<stop  offset="0" style="stop-color:#00A0FF"/>
			<stop  offset="1" style="stop-color:#047BDF"/>
		</linearGradient>
		<path  fill="url(#SVGID_12_)" d="M16.3,22c-0.2-0.1-0.3-0.1-0.5-0.1c-0.3,0-0.6,0.1-0.8,0.3l-8.5,8.5c-0.4,0.4-0.4,1,0,1.4
			c0.4,0.4,1,0.4,1.4,0l8-8l9.8,5.4c0.5,0.3,1.1,0.1,1.4-0.4c0,0,0,0,0,0c0,0,0,0,0,0l8.5-13.2c0.3-0.5,0.2-1.1-0.3-1.4
			c-0.5-0.3-1.1-0.2-1.4,0.3l-8.1,12.5L16.3,22z"/>
	</g>
</g>
<g id="Layer_7"  display="none">
	<g  display="inline">
		<linearGradient id="SVGID_13_" gradientUnits="userSpaceOnUse" x1="19.5" y1="2" x2="19.5" y2="37">
			<stop  offset="0" style="stop-color:#00A0FF"/>
			<stop  offset="1" style="stop-color:#047BDF"/>
		</linearGradient>
		<path  fill="url(#SVGID_13_)" d="M36,35H4V3c0-0.6-0.4-1-1-1S2,2.4,2,3v33c0,0.6,0.4,1,1,1h33c0.6,0,1-0.4,1-1C37,35.4,36.6,35,36,35z"/>
		<linearGradient id="SVGID_14_" gradientUnits="userSpaceOnUse" x1="14.5" y1="17" x2="14.5" y2="32">
			<stop  offset="0" style="stop-color:#00A0FF"/>
			<stop  offset="1" style="stop-color:#047BDF"/>
		</linearGradient>
		<path  fill="url(#SVGID_14_)" d="M14.5,32c4.1,0,7.5-3.4,7.5-7.5S18.6,17,14.5,17S7,20.4,7,24.5S10.4,32,14.5,32z M14.5,19
			c3,0,5.5,2.5,5.5,5.5c0,3-2.5,5.5-5.5,5.5S9,27.5,9,24.5C9,21.5,11.5,19,14.5,19z"/>
		<linearGradient id="SVGID_15_" gradientUnits="userSpaceOnUse" x1="28.5" y1="13" x2="28.5" y2="24">
			<stop  offset="0" style="stop-color:#00A0FF"/>
			<stop  offset="1" style="stop-color:#047BDF"/>
		</linearGradient>
		<path  fill="url(#SVGID_15_)" d="M28.5,24c3,0,5.5-2.5,5.5-5.5c0-3-2.5-5.5-5.5-5.5S23,15.5,23,18.5C23,21.5,25.5,24,28.5,24z M28.5,15
			c1.9,0,3.5,1.6,3.5,3.5S30.4,22,28.5,22S25,20.4,25,18.5S26.6,15,28.5,15z"/>
		<linearGradient id="SVGID_16_" gradientUnits="userSpaceOnUse" x1="19" y1="6" x2="19" y2="14">
			<stop  offset="0" style="stop-color:#00A0FF"/>
			<stop  offset="1" style="stop-color:#047BDF"/>
		</linearGradient>
		<path  fill="url(#SVGID_16_)" d="M19,14c2.2,0,4-1.8,4-4c0-2.2-1.8-4-4-4s-4,1.8-4,4C15,12.2,16.8,14,19,14z M19,8c1.1,0,2,0.9,2,2
			c0,1.1-0.9,2-2,2s-2-0.9-2-2C17,8.9,17.9,8,19,8z"/>
	</g>
</g>
<g id="Layer_8"  display="none">
	<linearGradient id="SVGID_17_" gradientUnits="userSpaceOnUse" x1="19.3626" y1="2" x2="19.3626" y2="37">
		<stop  offset="0" style="stop-color:#00A0FF"/>
		<stop  offset="1" style="stop-color:#047BDF"/>
	</linearGradient>
	<path  display="inline" fill="url(#SVGID_17_)" d="M35.9,35H34V11c0-0.3-0.2-0.6-0.4-0.8c0,0,0,0,0,0c-0.1-0.1-0.2-0.1-0.3-0.1c-0.1,0-0.1,0-0.2,0
		c0,0-0.1,0-0.1,0c0,0-0.1,0-0.1,0c-0.1,0-0.2,0-0.2,0c0,0-0.1,0-0.1,0c0,0-0.1,0-0.1,0L22,16.6L15.6,6.4c-0.1-0.2-0.1-0.3-0.3-0.5
		c-0.1-0.1-0.3-0.2-0.5-0.2c0,0-0.1,0-0.1,0c-0.1,0-0.2,0-0.2,0c-0.2,0-0.3,0-0.5,0.1c-0.2,0.1-0.3,0.2-0.3,0.4L3.9,18V3
		c0-0.6-0.4-1-1-1s-1,0.4-1,1v33c0,0.6,0.4,1,1,1h33c0.6,0,1-0.4,1-1C36.9,35.4,36.4,35,35.9,35z M3.9,30.2l9.7-9.2l7.9,8.4
		c0.4,0.4,1,0.4,1.4,0l9.1-8.6V35H3.9V30.2z M14.5,8.4l6.1,9.8c0,0.1,0.1,0.2,0.1,0.3c0.3,0.5,0.9,0.6,1.4,0.3l0,0c0,0,0,0,0,0
		s0,0,0,0l9.8-6.1v5.3l-9.7,9.2l-7.9-8.4c-0.2-0.2-0.4-0.3-0.7-0.3c-0.3,0-0.5,0.1-0.7,0.3l-9.1,8.6v-6.4L14.5,8.4z"/>
</g>
<g id="Layer_9">
	<linearGradient id="SVGID_18_" gradientUnits="userSpaceOnUse" x1="20" y1="2" x2="20" y2="38">
		<stop  offset="0" style="stop-color:#00A0FF"/>
		<stop  offset="1" style="stop-color:#047BDF"/>
	</linearGradient>
	<path  fill="url(#SVGID_18_)" d="M20,2C10.1,2,2,10.1,2,20c0,9.9,8.1,18,18,18s18-8.1,18-18C38,10.1,29.9,2,20,2z M35.9,19h-7
		c-0.5-4.2-3.8-7.5-7.9-7.9v-7C29,4.5,35.5,11,35.9,19z M20,13c3.9,0,7,3.1,7,7c0,3.9-3.1,7-7,7s-7-3.1-7-7C13,16.1,16.1,13,20,13z
		 M20,36c-8.8,0-16-7.2-16-16c0-8.5,6.6-15.4,15-15.9v7c-4.5,0.5-8,4.3-8,8.9c0,5,4,9,9,9c4.6,0,8.4-3.5,8.9-8h7
		C35.4,29.4,28.5,36,20,36z"/>
</g>
<g id="Layer_10">
</g>
<g id="Layer_11">
</g>
</svg>
