<?xml version="1.0" encoding="utf-8"?>
<!-- Generator: Adobe Illustrator 24.0.2, SVG Export Plug-In . SVG Version: 6.00 Build 0)  -->
<svg version="1.1" xmlns="http://www.w3.org/2000/svg" xmlns:xlink="http://www.w3.org/1999/xlink" x="0px" y="0px"
	 viewBox="0 0 39 39" style="enable-background:new 0 0 39 39;" xml:space="preserve">
    <defs>
        <linearGradient id="g1" gradientUnits="userSpaceOnUse" x1="19.4309" y1="2.1716" x2="19.5024" y2="37.1715">
            <stop offset="0" style="stop-color:#00A0FF" />
            <stop offset="1" style="stop-color:#047BDF" />
        </linearGradient>
        <linearGradient id="g2" gradientUnits="userSpaceOnUse" x1="20.4714" y1="4.0235" x2="20.5286" y2="31.9764">
            <stop offset="0" style="stop-color:#00A0FF" />
            <stop offset="1" style="stop-color:#047BDF" />
        </linearGradient>
    </defs>
	<path fill="url(#g1)" d="M36,35H4V3c0-0.6-0.4-1-1-1S2,2.4,2,3v33c0,0.6,0.4,1,1,1h33c0.6,0,1-0.4,1-1C37,35.4,36.6,35,36,35"/>
	<path fill="none" stroke="00A0FF" stroke-width="2" stroke-linecap="round" stroke-linejoin="round" stroke-miterlimit="10" d="M32,5c0,3.5-0.4,8.2-2.6,10.4C26.9,18,23.1,18,20.5,18s-6.4,0-8.9,2.6C9.4,22.8,9,27.5,9,31"/>
</svg>
