<?xml version="1.0" encoding="utf-8" ?>
<svg version="1.1" id="Layer_1" xmlns="http://www.w3.org/2000/svg" xmlns:xlink="http://www.w3.org/1999/xlink" x="0px" y="0px"
     viewBox="0 0 39 39" style="enable-background:new 0 0 39 39;" xml:space="preserve">
<rect fill="none" width="39" height="39" />

<linearGradient id="SVGID_1_" gradientUnits="userSpaceOnUse" x1="19.5" y1="2" x2="19.5" y2="37">
    <stop offset="0" style="stop-color:#00A0FF" />
    <stop offset="1" style="stop-color:#047BDF" />
</linearGradient>

<path fill="url(#SVGID_1_)" d="M36,35H4V3c0-0.6-0.4-1-1-1S2,2.4,2,3v33c0,0.6,0.4,1,1,1h33c0.6,0,1-0.4,1-1S36.6,35,36,35z" />

<linearGradient id="SVGID_2_" gradientUnits="userSpaceOnUse" x1="10" y1="11" x2="10" y2="26">
    <stop offset="0" style="stop-color:#0196F7" />
    <stop offset="1" style="stop-color:#0387E9" />
</linearGradient>

<path fill="url(#SVGID_2_)" d="M10,26c0.6,0,1-0.4,1-1V12c0-0.6-0.4-1-1-1s-1,0.4-1,1v13C9,25.6,9.4,26,10,26z" />

<linearGradient id="SVGID_3_" gradientUnits="userSpaceOnUse" x1="13" y1="5" x2="13" y2="32">
    <stop offset="0" style="stop-color:#009DFC" />
    <stop offset="1" style="stop-color:#0380E4" />
</linearGradient>

<path fill="url(#SVGID_3_)" d="M13,32c0.6,0,1-0.4,1-1V6c0-0.6-0.4-1-1-1s-1,0.4-1,1v25C12,31.6,12.4,32,13,32z" />

<linearGradient id="SVGID_4_" gradientUnits="userSpaceOnUse" x1="16" y1="9" x2="16" y2="30">
    <stop offset="0" style="stop-color:#0198F8" />
    <stop offset="1" style="stop-color:#0382E5" />
</linearGradient>

<path fill="url(#SVGID_4_)" d="M16,30c0.6,0,1-0.4,1-1V10c0-0.6-0.4-1-1-1s-1,0.4-1,1v19C15,29.6,15.4,30,16,30z" />

<linearGradient id="SVGID_5_" gradientUnits="userSpaceOnUse" x1="19" y1="12" x2="19" y2="26">
    <stop offset="0" style="stop-color:#0195F5" />
    <stop offset="1" style="stop-color:#0387E9" />
</linearGradient>

<path fill="url(#SVGID_5_)" d="M19,26c0.6,0,1-0.4,1-1V13c0-0.6-0.4-1-1-1s-1,0.4-1,1v12C18,25.6,18.4,26,19,26z" />

<linearGradient id="SVGID_6_" gradientUnits="userSpaceOnUse" x1="22" y1="14" x2="22" y2="27">
    <stop offset="0" style="stop-color:#0193F3" />
    <stop offset="1" style="stop-color:#0386E9" />
</linearGradient>

<path fill="url(#SVGID_6_)" d="M22,27c0.6,0,1-0.4,1-1V15c0-0.6-0.4-1-1-1s-1,0.4-1,1v11C21,26.6,21.4,27,22,27z" />

<linearGradient id="SVGID_7_" gradientUnits="userSpaceOnUse" x1="25" y1="17" x2="25" y2="22">
    <stop offset="0" style="stop-color:#0290F0" />
    <stop offset="1" style="stop-color:#028BED" />
</linearGradient>

<path fill="url(#SVGID_7_)" d="M25,22c0.6,0,1-0.4,1-1v-3c0-0.6-0.4-1-1-1s-1,0.4-1,1v3C24,21.6,24.4,22,25,22z" />

<linearGradient id="SVGID_8_" gradientUnits="userSpaceOnUse" x1="28" y1="15" x2="28" y2="24">
    <stop offset="0" style="stop-color:#0192F2" />
    <stop offset="1" style="stop-color:#0289EC" />
</linearGradient>

<path fill="url(#SVGID_8_)" d="M28,24c0.6,0,1-0.4,1-1v-7c0-0.6-0.4-1-1-1s-1,0.4-1,1v7C27,23.6,27.4,24,28,24z" />

<linearGradient id="SVGID_9_" gradientUnits="userSpaceOnUse" x1="31" y1="18" x2="31" y2="22">
    <stop offset="0" style="stop-color:#018FF0" />
    <stop offset="1" style="stop-color:#028BED" />
</linearGradient>

<path fill="url(#SVGID_9_)" d="M31,22c0.6,0,1-0.4,1-1v-2c0-0.6-0.4-1-1-1s-1,0.4-1,1v2C30,21.6,30.4,22,31,22z" />

<linearGradient id="SVGID_10_" gradientUnits="userSpaceOnUse" x1="7" y1="16" x2="7" y2="23">
    <stop offset="0" style="stop-color:#0291F2" />
    <stop offset="1" style="stop-color:#028AEC" />
</linearGradient>

<path fill="url(#SVGID_10_)" d="M7,23c0.6,0,1-0.4,1-1v-5c0-0.6-0.4-1-1-1s-1,0.4-1,1v5C6,22.6,6.4,23,7,23z" />

<linearGradient id="SVGID_11_" gradientUnits="userSpaceOnUse" x1="34" y1="19" x2="34" y2="21">
    <stop offset="0" style="stop-color:#018EEF" />
    <stop offset="1" style="stop-color:#028CEE" />
</linearGradient>

<circle fill="url(#SVGID_11_)" cx="34" cy="20" r="1" />

</svg>
