<?xml version="1.0" encoding="utf-8"?>
<!-- Generator: Adobe Illustrator 24.0.2, SVG Export Plug-In . SVG Version: 6.00 Build 0)  -->
<svg version="1.1" id="Layer_1" xmlns="http://www.w3.org/2000/svg" xmlns:xlink="http://www.w3.org/1999/xlink" x="0px" y="0px"
	 viewBox="0 0 39 39" style="enable-background:new 0 0 39 39;" xml:space="preserve">
<style type="text/css">
	.st121{fill:none;stroke:url(#SVGID_119_);stroke-width:2;stroke-linecap:round;stroke-linejoin:round;stroke-miterlimit:10;}
	.st122{fill:url(#SVGID_120_);}
</style>
<path d="M3,37L3,37c-0.6,0-1-0.4-1-1V3c0-0.6,0.4-1,1-1l0,0c0.6,0,1,0.4,1,1v33C4,36.6,3.6,37,3,37"/>
<path d="M3,37h33c0.6,0,1-0.4,1-1l0,0c0-0.6-0.4-1-1-1H3c-0.6,0-1,0.4-1,1l0,0C2,36.6,2.4,37,3,37"/>
<linearGradient id="SVGID_119_" gradientUnits="userSpaceOnUse" x1="20.5" y1="35" x2="20.5" y2="8" gradientTransform="matrix(1 0 0 -1 0 40)">
	<stop  offset="0" style="stop-color:#00A0FF"/>
	<stop  offset="1" style="stop-color:#0383E6"/>
</linearGradient>
<path fill="none" stroke="00A0FF" stroke-width="2" stroke-linecap="round" stroke-linejoin="round" stroke-miterlimit="10" d="M7,6c1.9,0,2.9,2.1,3.4,4.2c0.3,1.4,1,8.3,1,8.3s0.6,6.5,1,8.3C13,29,14,31,16,31h0.1c2,0,3.1-2.2,3.6-4.2
	c0.4-1.8,1-8.3,1-8.3s0.7-6.9,1-8.3C22.1,8.1,23.1,6,25,6l0,0c1.9,0,2.9,2.1,3.4,4.2c0.3,1.4,1,8.3,1,8.3s0.6,6.5,1,8.3
	c0.5,2,1.6,4.2,3.6,4.2"/>
<linearGradient id="SVGID_120_" gradientUnits="userSpaceOnUse" x1="19.4309" y1="37.8284" x2="19.5024" y2="2.8285" gradientTransform="matrix(1 0 0 -1 0 40)">
	<stop  offset="0" style="stop-color:#00A0FF"/>
	<stop  offset="1" style="stop-color:#047BDF"/>
</linearGradient>
<path fill="url(#SVGID_120_)" d="M36,35H4V3c0-0.6-0.4-1-1-1S2,2.4,2,3v33c0,0.6,0.4,1,1,1h33c0.6,0,1-0.4,1-1S36.6,35,36,35"/>

</svg>
