<?xml version="1.0" encoding="utf-8"?>
<!-- Generator: Adobe Illustrator 23.0.3, SVG Export Plug-In . SVG Version: 6.00 Build 0)  -->
<svg version="1.1" xmlns="http://www.w3.org/2000/svg" xmlns:xlink="http://www.w3.org/1999/xlink" x="0px" y="0px"
	 viewBox="0 0 39 39" style="enable-background:new 0 0 39 39;" xml:space="preserve">

<g id="Layer_1"  display="none">
	<g  display="inline">
		<linearGradient id="SVGID_1_" gradientUnits="userSpaceOnUse" x1="10" y1="11" x2="10" y2="32">
			<stop  offset="0" style="stop-color:#00A0FF"/>
			<stop  offset="1" style="stop-color:#047BDF"/>
		</linearGradient>
		<path  fill="url(#SVGID_1_)" d="M8,28h1v3c0,0.6,0.4,1,1,1s1-0.4,1-1v-3h1c0.6,0,1-0.4,1-1V16c0-0.6-0.4-1-1-1h-1v-3c0-0.6-0.4-1-1-1
			s-1,0.4-1,1v3H8c-0.6,0-1,0.4-1,1v11C7,27.6,7.4,28,8,28z M11,17v9H9v-9H11z"/>
		<linearGradient id="SVGID_2_" gradientUnits="userSpaceOnUse" x1="30" y1="11" x2="30" y2="32">
			<stop  offset="0" style="stop-color:#00A0FF"/>
			<stop  offset="1" style="stop-color:#047BDF"/>
		</linearGradient>
		<path  fill="url(#SVGID_2_)" d="M28,28h1v3c0,0.6,0.4,1,1,1s1-0.4,1-1v-3h1c0.6,0,1-0.4,1-1V16c0-0.6-0.4-1-1-1h-1v-3c0-0.6-0.4-1-1-1
			s-1,0.4-1,1v3h-1c-0.6,0-1,0.4-1,1v11C27,27.6,27.4,28,28,28z M31,17v9h-2v-9H31z"/>
		<linearGradient id="SVGID_3_" gradientUnits="userSpaceOnUse" x1="20" y1="4" x2="20" y2="26">
			<stop  offset="0" style="stop-color:#00A0FF"/>
			<stop  offset="1" style="stop-color:#047BDF"/>
		</linearGradient>
		<path  fill="url(#SVGID_3_)" d="M18,22h1v3c0,0.6,0.4,1,1,1s1-0.4,1-1v-3h1c0.6,0,1-0.4,1-1V9c0-0.6-0.4-1-1-1h-1V5c0-0.6-0.4-1-1-1
			s-1,0.4-1,1v3h-1c-0.6,0-1,0.4-1,1v12C17,21.6,17.4,22,18,22z M21,10v10h-2V10H21z"/>
		<linearGradient id="SVGID_4_" gradientUnits="userSpaceOnUse" x1="19.5" y1="2" x2="19.5" y2="37">
			<stop  offset="0" style="stop-color:#00A0FF"/>
			<stop  offset="1" style="stop-color:#047BDF"/>
		</linearGradient>
		<path  fill="url(#SVGID_4_)" d="M36,35H4V3c0-0.6-0.4-1-1-1S2,2.4,2,3v33c0,0.6,0.4,1,1,1h33c0.6,0,1-0.4,1-1C37,35.4,36.6,35,36,35z"/>
	</g>
</g>
<g id="Layer_2"  display="none">
	<path  display="inline" d="M36,35H5.8l5.9-10.3l6.1,3.5c0.5,0.3,1.1,0.1,1.4-0.4l8.3-14.3l8,4.6c0.5,0.3,1.1,0.1,1.4-0.4
		c0.3-0.5,0.1-1.1-0.4-1.4l-8.9-5.1c-0.5-0.3-1.1-0.1-1.4,0.4L17.9,26l-6.1-3.5c-0.5-0.3-1.1-0.1-1.4,0.4L4,34.1V3c0-0.6-0.4-1-1-1
		S2,2.4,2,3v33c0,0.6,0.4,1,1,1h33c0.6,0,1-0.4,1-1C37,35.4,36.6,35,36,35z"/>
	<circle  display="inline" cx="7" cy="11" r="1"/>
	<circle  display="inline" cx="11" cy="11" r="1"/>
	<circle  display="inline" cx="15" cy="11" r="1"/>
	<circle  display="inline" cx="19" cy="11" r="1"/>
	<circle  display="inline" cx="7" cy="19" r="1"/>
	<circle  display="inline" cx="11" cy="19" r="1"/>
	<circle  display="inline" cx="15" cy="19" r="1"/>
	<circle  display="inline" cx="23" cy="11" r="1"/>
	<circle  display="inline" cx="19" cy="19" r="1"/>
</g>
<g id="Layer_3"  display="none">
	<g  display="inline">
		<linearGradient id="SVGID_5_" gradientUnits="userSpaceOnUse" x1="28.9595" y1="2" x2="28.9595" y2="18.0811">
			<stop  offset="0" style="stop-color:#00A0FF"/>
			<stop  offset="1" style="stop-color:#047BDF"/>
		</linearGradient>
		<path  fill="url(#SVGID_5_)" d="M21.9,2c-0.5,0-0.9,0.4-0.9,0.9v14.2c0,0.5,0.4,0.9,0.9,0.9h14.2c0.5,0,0.9-0.4,0.9-0.9C37,8.8,30.2,2,21.9,2
			z M35.1,16.2H22.8V3.9C29.4,4.4,34.6,9.6,35.1,16.2z"/>
		<linearGradient id="SVGID_6_" gradientUnits="userSpaceOnUse" x1="18" y1="5" x2="18" y2="37">
			<stop  offset="0" style="stop-color:#00A0FF"/>
			<stop  offset="1" style="stop-color:#047BDF"/>
		</linearGradient>
		<path  fill="url(#SVGID_6_)" d="M33,20H19V6c0-0.6-0.4-1-1-1C9.2,5,2,12.2,2,21s7.2,16,16,16s16-7.2,16-16C34,20.4,33.6,20,33,20z M18,35
			c-7.7,0-14-6.3-14-14C4,13.6,9.7,7.6,17,7.1V21c0,0.6,0.4,1,1,1h13.9C31.4,29.3,25.4,35,18,35z"/>
	</g>
</g>
<g id="Layer_4">
	<g>
		<g>
			<linearGradient id="SVGID_7_" gradientUnits="userSpaceOnUse" x1="19.5" y1="2" x2="19.5" y2="37">
				<stop  offset="0" style="stop-color:#00A0FF"/>
				<stop  offset="1" style="stop-color:#047BDF"/>
			</linearGradient>
			<path  fill="url(#SVGID_7_)" d="M36,35H4V3c0-0.6-0.4-1-1-1S2,2.4,2,3v33c0,0.6,0.4,1,1,1h33c0.6,0,1-0.4,1-1C37,35.4,36.6,35,36,35z"/>
		</g>
		<g>
			<linearGradient id="SVGID_8_" gradientUnits="userSpaceOnUse" x1="20.4748" y1="6.75" x2="20.4748" y2="33.25">
				<stop  offset="0" style="stop-color:#00A0FF"/>
				<stop  offset="1" style="stop-color:#047BDF"/>
			</linearGradient>
			<path  fill="url(#SVGID_8_)" d="M7,24c0.6,0,1-0.4,1-1v-5c0-1.1,0.9-2,2-2s2,0.9,2,2v8c0,2.2,1.8,4,4,4s4-1.8,4-4V11
				c0.1-1.3,1.2-2.3,2.5-2.3s2.3,1,2.5,2.3v17c0,0,0,0.1,0,0.1c0,0.1,0,0.1,0,0.2c0,2.8,2.2,5,5,5s5-2.2,5-5c0-0.1,0-0.1,0-0.2
				c0,0,0-0.1,0-0.1v-6c0-0.6-0.4-1-1-1c-0.6,0-1,0.4-1,1v6h0c0,0.1,0,0.2,0,0.3c0,1.7-1.3,3-3,3s-3-1.3-3-3c0-0.1,0-0.2,0-0.3h0V11
				c-0.1-2.4-2.1-4.3-4.5-4.3S18.1,8.6,18,11v15c0,1.1-0.9,2-2,2s-2-0.9-2-2v-8c0-2.2-1.8-4-4-4s-4,1.8-4,4v5C6,23.6,6.4,24,7,24z"
				/>
		</g>
	</g>
</g>
<g id="Layer_5"  display="none">
	<rect  display="inline" fill="#FFB0B0" width="39" height="39"/>
	<path  display="inline" d="M3,37L3,37c-0.6,0-1-0.4-1-1V3c0-0.6,0.4-1,1-1h0c0.6,0,1,0.4,1,1v33C4,36.6,3.6,37,3,37z"/>
	<path  display="inline" d="M3,35h33c0.6,0,1,0.4,1,1l0,0c0,0.6-0.4,1-1,1H3c-0.6,0-1-0.4-1-1l0,0C2,35.4,2.4,35,3,35z"/>
	<path  display="inline" d="M7,37L7,37c-0.6,0-1-0.4-1-1V16c0-0.6,0.4-1,1-1h0c0.6,0,1,0.4,1,1v20C8,36.6,7.6,37,7,37z"/>
	<path  display="inline" d="M14,37L14,37c0.6,0,1-0.4,1-1V16c0-0.6-0.4-1-1-1h0c-0.6,0-1,0.4-1,1v20C13,36.6,13.4,37,14,37z"/>
	<path  display="inline" d="M14,17H7c-0.6,0-1-0.4-1-1v0c0-0.6,0.4-1,1-1h7c0.6,0,1,0.4,1,1v0C15,16.6,14.6,17,14,17z"/>
	<path  display="inline" d="M18,37L18,37c-0.6,0-1-0.4-1-1V8c0-0.6,0.4-1,1-1h0c0.6,0,1,0.4,1,1v28C19,36.6,18.6,37,18,37z"/>
	<path  display="inline" d="M25,37L25,37c0.6,0,1-0.4,1-1V8c0-0.6-0.4-1-1-1h0c-0.6,0-1,0.4-1,1v28C24,36.6,24.4,37,25,37z"/>
	<path  display="inline" d="M25,9h-7c-0.6,0-1-0.4-1-1v0c0-0.6,0.4-1,1-1h7c0.6,0,1,0.4,1,1v0C26,8.6,25.6,9,25,9z"/>
	<path  display="inline" d="M29,37L29,37c-0.6,0-1-0.4-1-1V21c0-0.6,0.4-1,1-1h0c0.6,0,1,0.4,1,1v15C30,36.6,29.6,37,29,37z"/>
	<path  display="inline" d="M36,37L36,37c0.6,0,1-0.4,1-1V21c0-0.6-0.4-1-1-1l0,0c-0.6,0-1,0.4-1,1v15C35,36.6,35.4,37,36,37z"/>
	<path  display="inline" d="M36,22h-7c-0.6,0-1-0.4-1-1v0c0-0.6,0.4-1,1-1h7c0.6,0,1,0.4,1,1v0C37,21.6,36.6,22,36,22z"/>
</g>
<g id="Layer_6"  display="none">
	<rect  display="inline" fill="#FFB0B0" width="39" height="39"/>
	<path  display="inline" d="M3,37L3,37c-0.6,0-1-0.4-1-1V3c0-0.6,0.4-1,1-1h0c0.6,0,1,0.4,1,1v33C4,36.6,3.6,37,3,37z"/>
	<path  display="inline" d="M3,35h33c0.6,0,1,0.4,1,1l0,0c0,0.6-0.4,1-1,1H3c-0.6,0-1-0.4-1-1l0,0C2,35.4,2.4,35,3,35z"/>
	<path  display="inline" d="M15.8,11l-9.5,8.5c-0.4,0.4-0.4,1-0.1,1.4l0,0c0.4,0.4,1,0.4,1.4,0.1l9.5-8.5c0.4-0.4,0.4-1,0.1-1.4l0,0
		C16.9,10.7,16.2,10.6,15.8,11z"/>
	<path  display="inline" d="M16.2,12.7l7.3,4.2c0.5,0.3,1.1,0.1,1.4-0.4v0c0.3-0.5,0.1-1.1-0.4-1.4L17.2,11c-0.5-0.3-1.1-0.1-1.4,0.4l0,0
		C15.5,11.8,15.7,12.4,16.2,12.7z"/>
	<path  display="inline" d="M24.8,16.7L33.6,8c0.4-0.4,0.4-1,0-1.4v0c-0.4-0.4-1-0.4-1.4,0l-8.8,8.7c-0.4,0.4-0.4,1,0,1.4l0,0
		C23.8,17.1,24.4,17.1,24.8,16.7z"/>
	<path  display="inline" d="M15,22.1l-8.5,8.5c-0.4,0.4-0.4,1,0,1.4h0c0.4,0.4,1,0.4,1.4,0l8.5-8.5c0.4-0.4,0.4-1,0-1.4h0
		C16,21.8,15.4,21.8,15,22.1z"/>
	<path  display="inline" d="M15.3,23.7l10.4,5.8c0.5,0.3,1.1,0.1,1.4-0.4l0,0c0.3-0.5,0.1-1.1-0.4-1.4L16.3,22c-0.5-0.3-1.1-0.1-1.4,0.4
		l0,0C14.7,22.9,14.8,23.5,15.3,23.7z"/>
	<path  display="inline" d="M27.1,29.1l8.5-13.2c0.3-0.5,0.2-1.1-0.3-1.4l0,0c-0.5-0.3-1.1-0.2-1.4,0.3L25.4,28c-0.3,0.5-0.2,1.1,0.3,1.4
		h0C26.2,29.7,26.8,29.5,27.1,29.1z"/>
</g>
<g id="Layer_7"  display="none">
	<rect  display="inline" fill="#FFB0B0" width="39" height="39"/>
	<path  display="inline" d="M3,37L3,37c-0.6,0-1-0.4-1-1V3c0-0.6,0.4-1,1-1h0c0.6,0,1,0.4,1,1v33C4,36.6,3.6,37,3,37z"/>
	<path  display="inline" d="M3,35h33c0.6,0,1,0.4,1,1l0,0c0,0.6-0.4,1-1,1H3c-0.6,0-1-0.4-1-1l0,0C2,35.4,2.4,35,3,35z"/>
	<circle  display="inline" fill="none" stroke="#000000" stroke-width="2" stroke-miterlimit="10" cx="28.6" cy="18.5" r="4.1"/>
	<circle  display="inline" fill="none" stroke="#000000" stroke-width="2" stroke-miterlimit="10" cx="19.7" cy="9.9" r="2.6"/>
	<circle  display="inline" fill="none" stroke="#000000" stroke-width="2" stroke-miterlimit="10" cx="14.2" cy="24.3" r="6.2"/>
</g>
<g id="Layer_8"  display="none">
	<rect y="0"  display="inline" fill="#FFB0B0" width="39" height="39"/>
	<path  display="inline" d="M2.9,37L2.9,37c-0.6,0-1-0.4-1-1V3c0-0.6,0.4-1,1-1h0c0.6,0,1,0.4,1,1v33C3.9,36.6,3.4,37,2.9,37z"/>
	<path  display="inline" d="M2.9,35h33c0.6,0,1,0.4,1,1l0,0c0,0.6-0.4,1-1,1h-33c-0.6,0-1-0.4-1-1l0,0C1.9,35.4,2.3,35,2.9,35z"/>
	<path  display="inline" d="M15.5,6.1l7,11.4c0.3,0.5,0.1,1.1-0.3,1.4l0,0c-0.5,0.3-1.1,0.1-1.4-0.3l-7-11.4c-0.3-0.5-0.1-1.1,0.3-1.4l0,0
		C14.6,5.5,15.2,5.7,15.5,6.1z"/>
	<path  display="inline" d="M33.7,17.8L33.7,17.8c-0.4-0.4-1-0.4-1.4,0L21.6,28c-0.4,0.4-0.4,1,0,1.4l0,0c0.4,0.4,1,0.4,1.4,0l10.8-10.2
		C34.1,18.8,34.1,18.2,33.7,17.8z"/>
	<path  display="inline" d="M14.3,18.9L23,28c0.4,0.4,0.4,1,0,1.4l0,0c-0.4,0.4-1,0.4-1.4,0l-8.6-9.1c-0.4-0.4-0.4-1,0-1.4l0,0
		C13.3,18.5,14,18.5,14.3,18.9z"/>
	<path  display="inline" d="M14.3,18.9L14.3,18.9c-0.4-0.4-1-0.4-1.4,0L2.2,29c-0.4,0.4-0.4,1,0,1.4l0,0c0.4,0.4,1,0.4,1.4,0l10.8-10.2
		C14.7,19.9,14.7,19.3,14.3,18.9z"/>
	<path  display="inline" d="M33,37L33,37c0.6,0,1-0.4,1-1V11c0-0.6-0.4-1-1-1h0c-0.6,0-1,0.4-1,1v25C32,36.6,32.4,37,33,37z"/>
	<path  display="inline" d="M15.3,5.9L15.3,5.9c-0.4-0.4-1.1-0.3-1.4,0.1l-11.8,14c-0.4,0.4-0.3,1.1,0.1,1.4l0,0c0.4,0.4,1.1,0.3,1.4-0.1
		l11.8-14C15.8,6.9,15.7,6.3,15.3,5.9z"/>
	<path  display="inline" d="M32.4,10.2l-11.4,7.1c-0.5,0.3-0.6,0.9-0.3,1.4l0,0c0.3,0.5,0.9,0.6,1.4,0.3l11.4-7.1c0.5-0.3,0.6-0.9,0.3-1.4
		v0C33.5,10,32.9,9.9,32.4,10.2z"/>
</g>
<g id="Layer_9"  display="none">
	<rect  display="inline" fill="#FFB0B0" width="39" height="39"/>
	<circle  display="inline" fill="none" stroke="#000000" stroke-width="2" stroke-miterlimit="10" cx="19.5" cy="19.5" r="16.5"/>
	<circle  display="inline" fill="none" stroke="#000000" stroke-width="2" stroke-miterlimit="10" cx="19.5" cy="19.5" r="7.7"/>
	<line  display="inline" fill="none" stroke="#000000" stroke-width="2" stroke-miterlimit="10" x1="19.5" y1="3" x2="19.5" y2="11.8"/>
	<line  display="inline" fill="none" stroke="#000000" stroke-width="2" stroke-miterlimit="10" x1="36" y1="19.5" x2="27.2" y2="19.5"/>
</g>
<g id="Layer_10">
</g>
<g id="Layer_11">
</g>
</svg>
