<?xml version="1.0" encoding="utf-8"?>
<!-- Generator: Adobe Illustrator 23.0.3, SVG Export Plug-In . SVG Version: 6.00 Build 0)  -->
<svg version="1.1" id="Layer_1" xmlns="http://www.w3.org/2000/svg" xmlns:xlink="http://www.w3.org/1999/xlink" x="0px" y="0px"
	 viewBox="0 0 24 24" style="enable-background:new 0 0 24 24;" xml:space="preserve">
<path fill="none" d="M0,0h24v24H0V0z"/>
<path d="M20.2,4H12H3.8C2.8,4,2,4.8,2,5.9v12.2c0,1,0.8,1.9,1.8,1.9H12h8.2c1,0,1.8-0.8,1.8-1.9V5.9C22,4.8,21.2,4,20.2,4z M8,8
	c1.1,0,2,0.9,2,2s-0.9,2-2,2s-2-0.9-2-2S6.9,8,8,8z M4.9,16c0-1.7,1.4-3,3-3s3,1.3,3,3H4.9z M18,15h-4c-0.6,0-1-0.4-1-1s0.4-1,1-1h4
	c0.6,0,1,0.4,1,1S18.6,15,18,15z M18,11h-4c-0.6,0-1-0.4-1-1s0.4-1,1-1h4c0.6,0,1,0.4,1,1S18.6,11,18,11z"/>
</svg>
