<?xml version="1.0" encoding="utf-8"?>
<!-- Generator: Adobe Illustrator 23.0.3, SVG Export Plug-In . SVG Version: 6.00 Build 0)  -->
<svg version="1.1" id="Layer_1" xmlns="http://www.w3.org/2000/svg" xmlns:xlink="http://www.w3.org/1999/xlink" x="0px" y="0px"
	 viewBox="0 0 304 159" style="enable-background:new 0 0 304 159;" xml:space="preserve">
<g>
	<rect fill="#3D3D3D" width="304" height="159"/>
</g>
<g>
	<rect x="0.3" fill="#3D3D3D" width="303.7" height="159"/>
	
		<radialGradient id="SVGID_1_" cx="65.7424" cy="837.6829" r="198.5359" gradientTransform="matrix(1 0 0 1 0 -770)" gradientUnits="userSpaceOnUse">
		<stop  offset="0.1531" style="stop-color:#000000"/>
		<stop  offset="0.4493" style="stop-color:#070707"/>
		<stop  offset="0.8943" style="stop-color:#1C1C1B"/>
		<stop  offset="1" style="stop-color:#222221"/>
	</radialGradient>
	<polygon fill="url(#SVGID_1_)" points="173.6,44.2 145.3,0 100.7,111.6 	"/>
	
		<radialGradient id="SVGID_2_" cx="216.1083" cy="755.9632" r="200.4453" gradientTransform="matrix(1 0 0 1 0 -770)" gradientUnits="userSpaceOnUse">
		<stop  offset="0.1531" style="stop-color:#000000"/>
		<stop  offset="0.4493" style="stop-color:#070707"/>
		<stop  offset="0.8943" style="stop-color:#1C1C1B"/>
		<stop  offset="1" style="stop-color:#222221"/>
	</radialGradient>
	<polygon fill="url(#SVGID_2_)" points="162.2,130 256.2,144.4 173.6,44.2 	"/>
	<polygon fill="#151515" points="174.6,0 145.3,0 173.6,44.2 	"/>
	<polygon fill="#050505" points="100.7,111.6 74.6,0 63.5,0 13,51.8 	"/>
	
		<linearGradient id="SVGID_3_" gradientUnits="userSpaceOnUse" x1="74.6" y1="825.8" x2="145.3" y2="825.8" gradientTransform="matrix(1 0 0 1 0 -770)">
		<stop  offset="5.569535e-02" style="stop-color:#1C1C1C"/>
		<stop  offset="0.4069" style="stop-color:#1C1C1C"/>
		<stop  offset="1" style="stop-color:#060606"/>
	</linearGradient>
	<polygon fill="url(#SVGID_3_)" points="145.3,0 74.6,0 100.7,111.6 	"/>
	
		<linearGradient id="SVGID_4_" gradientUnits="userSpaceOnUse" x1="152.3954" y1="792.1" x2="248.9954" y2="792.1" gradientTransform="matrix(1 0 0 1 0 -770)">
		<stop  offset="9.881755e-02" style="stop-color:#050505"/>
		<stop  offset="1" style="stop-color:#161616"/>
	</linearGradient>
	<polygon fill="url(#SVGID_4_)" points="270.1,42 210.9,0 174.6,0 173.5,44.2 	"/>
	
		<radialGradient id="SVGID_5_" cx="-63.755" cy="884.0926" r="266.8425" gradientTransform="matrix(1 0 0 1 0 -770)" gradientUnits="userSpaceOnUse">
		<stop  offset="0.1531" style="stop-color:#000000"/>
		<stop  offset="0.2413" style="stop-color:#070707"/>
		<stop  offset="0.6368" style="stop-color:#1C1C1B"/>
		<stop  offset="1" style="stop-color:#222221"/>
	</radialGradient>
	<polygon fill="url(#SVGID_5_)" points="13,51.8 0,114.1 0,124 100.7,111.6 	"/>
	<polygon fill="#0A0A0A" points="148.3,159 168.5,159 162.2,130 	"/>
	<polygon fill="#141414" points="162.2,130 168.5,159 244,159 256.2,144.4 	"/>
	
		<radialGradient id="SVGID_6_" cx="224.2814" cy="884.1262" r="123.7275" fx="200.7768" fy="899.4406" gradientTransform="matrix(1 0 0 1 0 -770)" gradientUnits="userSpaceOnUse">
		<stop  offset="0.1196" style="stop-color:#171717"/>
		<stop  offset="0.4493" style="stop-color:#070707"/>
		<stop  offset="0.8943" style="stop-color:#1C1C1B"/>
	</radialGradient>
	<polygon fill="url(#SVGID_6_)" points="256.2,144.4 270.1,41.9 173.6,44.2 	"/>
	
		<linearGradient id="SVGID_7_" gradientUnits="userSpaceOnUse" x1="119.0749" y1="887.5221" x2="144.2675" y2="938.9126" gradientTransform="matrix(1 0 0 1 0 -770)">
		<stop  offset="0.1162" style="stop-color:#1A1A1A"/>
		<stop  offset="0.906" style="stop-color:#060606"/>
	</linearGradient>
	<polygon fill="url(#SVGID_7_)" points="100.7,111.6 102.4,159 148.3,159 162.2,130 	"/>
	
		<radialGradient id="SVGID_8_" cx="90.7661" cy="896.7188" r="64.8638" gradientTransform="matrix(1 0 0 1 0 -770)" gradientUnits="userSpaceOnUse">
		<stop  offset="0.1531" style="stop-color:#000000"/>
		<stop  offset="0.4493" style="stop-color:#070707"/>
		<stop  offset="0.8943" style="stop-color:#1C1C1B"/>
		<stop  offset="1" style="stop-color:#222221"/>
	</radialGradient>
	<polygon fill="url(#SVGID_8_)" points="47.9,159 102.5,159 100.7,111.6 	"/>
	
		<linearGradient id="SVGID_9_" gradientUnits="userSpaceOnUse" x1="8.3928" y1="898.1119" x2="95.4452" y2="913.0257" gradientTransform="matrix(1 0 0 1 0 -770)">
		<stop  offset="0.205" style="stop-color:#1C1C1C"/>
		<stop  offset="0.9971" style="stop-color:#010101"/>
	</linearGradient>
	<polygon fill="url(#SVGID_9_)" points="0,124 0,159 47.8,159 100.7,111.6 	"/>
	
		<linearGradient id="SVGID_10_" gradientUnits="userSpaceOnUse" x1="303.716" y1="867.1" x2="304.016" y2="867.1" gradientTransform="matrix(1 0 0 1 0 -770)">
		<stop  offset="0" style="stop-color:#151515"/>
		<stop  offset="1" style="stop-color:#010101"/>
	</linearGradient>
	<polygon fill="url(#SVGID_10_)" points="304,62.6 303.7,62.4 303.7,131.8 304,131.7 	"/>
	
		<linearGradient id="SVGID_11_" gradientUnits="userSpaceOnUse" x1="258.7378" y1="863.2" x2="306.2378" y2="863.2" gradientTransform="matrix(1 0 0 1 0 -770)">
		<stop  offset="0" style="stop-color:#151515"/>
		<stop  offset="1" style="stop-color:#010101"/>
	</linearGradient>
	<polygon fill="url(#SVGID_11_)" points="270.1,42 256.2,144.4 303.7,131.8 303.7,62.4 	"/>
	
		<linearGradient id="SVGID_12_" gradientUnits="userSpaceOnUse" x1="246.4778" y1="919.7547" x2="265.1622" y2="929.789" gradientTransform="matrix(1 0 0 1 0 -770)">
		<stop  offset="0" style="stop-color:#0D0D0D"/>
		<stop  offset="0.1972" style="stop-color:#0A0A0A"/>
		<stop  offset="1" style="stop-color:#010101"/>
	</linearGradient>
	<polygon fill="url(#SVGID_12_)" points="244,159 267.3,159 256.2,144.4 	"/>
	<polygon fill="#111111" points="294.8,0 210.9,0 270.1,41.9 	"/>
	<polygon fill="#0E0E0E" points="304,0 303.7,0 303.7,19.9 304,19.7 	"/>
	<polygon fill="#0E0E0E" points="294.8,0 270.1,41.9 303.7,19.9 303.7,0 	"/>
	<polygon fill="#0E0E0E" points="0,57 0,114.1 13,51.8 	"/>
	<polygon fill="#111111" points="0,49.3 0,57 13,51.8 	"/>
	<polygon fill="#0C0C0C" points="0,38.7 0,49.3 13,51.8 	"/>
	<path fill="#111111" d="M63.6,0H0v38.7c4.3,4.4,8.7,8.8,13,13.2C29.9,34.5,46.7,17.3,63.6,0z"/>
	<polygon fill="#0A0A0A" points="304,131.7 256.2,144.4 267.3,159 304,159 	"/>
	<polygon fill="#121212" points="304,49.5 303.7,49.4 303.7,62.4 304,62.6 	"/>
	<polygon fill="#121212" points="270.1,41.9 303.7,62.4 303.7,49.4 	"/>
	<polygon fill="#0E0E0E" points="304,19.7 303.7,19.9 303.7,49.4 304,49.5 	"/>
	<polygon fill="#0E0E0E" points="270.1,41.9 303.7,49.4 303.7,19.9 	"/>
	<polygon fill="#161616" points="162.2,130 173.6,44.2 100.7,111.6 	"/>
</g>
</svg>
