<?xml version="1.0" encoding="utf-8"?>
<!-- Generator: Adobe Illustrator 23.0.3, SVG Export Plug-In . SVG Version: 6.00 Build 0)  -->
<svg version="1.1" id="Layer_1" xmlns="http://www.w3.org/2000/svg" xmlns:xlink="http://www.w3.org/1999/xlink" x="0px" y="0px"
	 viewBox="0 0 24 24" style="enable-background:new 0 0 24 24;" xml:space="preserve">
<style type="text/css">
	.st1{fill:#7C8086;}
</style>
<path class="st1" d="M22,8c0-0.7-0.4-1.3-0.9-1.7l-8-4.7c-0.6-0.4-1.4-0.4-2,0L3,6.3C2.4,6.7,2,7.3,2,8v10c0,1.1,0.9,2,2,2h16
	c1.1,0,2-0.9,2-2L22,8z M10.9,12.3L3.7,7.8L11,3.6c0.6-0.4,1.4-0.4,2,0l7.3,4.3l-7.2,4.5C12.4,12.7,11.6,12.7,10.9,12.3z"/>
</svg>
