<?xml version="1.0" encoding="utf-8"?>
<!-- Generator: Adobe Illustrator 23.0.3, SVG Export Plug-In . SVG Version: 6.00 Build 0)  -->
<svg version="1.1" id="Layer_1" xmlns="http://www.w3.org/2000/svg" xmlns:xlink="http://www.w3.org/1999/xlink" x="0px" y="0px"
	 viewBox="0 0 24 24" style="enable-background:new 0 0 24 24;" xml:space="preserve">
<style type="text/css">
	.st0{fill:#7C8086;}
</style>
<path class="st0" d="M13.7,2.1C6.9,1,1,6.9,2.1,13.7c0.7,4.1,4,7.5,8.2,8.2C17.1,23,23,17.1,21.9,10.3C21.2,6.2,17.8,2.8,13.7,2.1z
	 M12,13c-0.6,0-1-0.4-1-1V8c0-0.6,0.4-1,1-1s1,0.4,1,1v4C13,12.6,12.6,13,12,13z M12,17L12,17c-0.6,0-1-0.4-1-1v0c0-0.6,0.4-1,1-1h0
	c0.6,0,1,0.4,1,1v0C13,16.6,12.6,17,12,17z"/>
</svg>
