<?xml version="1.0" encoding="utf-8"?>
<!-- Generator: Adobe Illustrator 23.0.3, SVG Export Plug-In . SVG Version: 6.00 Build 0)  -->
<svg version="1.1" id="Layer_1" xmlns="http://www.w3.org/2000/svg" xmlns:xlink="http://www.w3.org/1999/xlink" x="0px" y="0px"
	 viewBox="0 0 24 24" style="enable-background:new 0 0 24 24;" xml:space="preserve">
<style type="text/css">
	.st1{fill:#7C8086;}
</style>
<path class="st1" d="M19,3H5C3.9,3,3,3.9,3,5l0,14c0,1.1,0.9,2,2,2h14c1.1,0,2-0.9,2-2V5C21,3.9,20.1,3,19,3z M19,15h-3.1
	c-0.5,0-0.9,0.3-1,0.8C14.5,17.1,13.4,18,12,18s-2.5-0.9-2.9-2.2C9,15.3,8.6,15,8.1,15H5V6c0-0.6,0.4-1,1-1h12c0.5,0,1,0.4,1,1V15z"
	/>
</svg>
