<?xml version="1.0" encoding="utf-8"?>
<!-- Generator: Adobe Illustrator 23.0.3, SVG Export Plug-In . SVG Version: 6.00 Build 0)  -->
<svg version="1.1" xmlns="http://www.w3.org/2000/svg" xmlns:xlink="http://www.w3.org/1999/xlink" x="0px" y="0px"
	 viewBox="0 0 303.8 159" style="enable-background:new 0 0 303.8 159;" xml:space="preserve">
<defs>
			<radialGradient id="SVGID_1_" cx="65.8757" cy="91.3171" r="198.5359" gradientTransform="matrix(1 0 0 -1 0 159)" gradientUnits="userSpaceOnUse">
		<stop  offset="0.1531" style="stop-color:#FFFFFF"/>
				<stop  offset="0.4493" style="stop-color:#F8F8F8"/>
				<stop  offset="0.8943" style="stop-color:#E3E3E4"/>
				<stop  offset="1" style="stop-color:#DDDDDE"/>
	</radialGradient>
	

	<radialGradient id="SVGID_2_" cx="216.2416" cy="173.0368" r="200.4453" gradientTransform="matrix(1 0 0 -1 0 159)" gradientUnits="userSpaceOnUse">
		<stop  offset="0.1531" style="stop-color:#FFFFFF"/>
		<stop  offset="0.4493" style="stop-color:#F8F8F8"/>
		<stop  offset="0.8943" style="stop-color:#E3E3E4"/>
		<stop  offset="1" style="stop-color:#DDDDDE"/>
	</radialGradient>
	

	<radialGradient id="SVGID_3_" cx="78.7828" cy="37.2708" r="254.1493" gradientTransform="matrix(1 0 0 -1 0 159)" gradientUnits="userSpaceOnUse">
		<stop  offset="0.1531" style="stop-color:#FFFFFF"/>
		<stop  offset="0.4493" style="stop-color:#F8F8F8"/>
		<stop  offset="0.8943" style="stop-color:#E3E3E4"/>
		<stop  offset="1" style="stop-color:#DDDDDE"/>
	</radialGradient>
	

	<linearGradient id="SVGID_4_" gradientUnits="userSpaceOnUse" x1="152.5287" y1="136.9" x2="249.0287" y2="136.9" gradientTransform="matrix(1 0 0 -1 0 159)">
		<stop  offset="0" style="stop-color:#EAEAEA"/>
		<stop  offset="1" style="stop-color:#FEFEFE"/>
	</linearGradient>
	

	<radialGradient id="SVGID_5_" cx="-63.6217" cy="44.9074" r="266.8425" gradientTransform="matrix(1 0 0 -1 0 159)" gradientUnits="userSpaceOnUse">
		<stop  offset="0.1531" style="stop-color:#FFFFFF"/>
		<stop  offset="0.4493" style="stop-color:#F8F8F8"/>
		<stop  offset="0.8943" style="stop-color:#E3E3E4"/>
		<stop  offset="1" style="stop-color:#DDDDDE"/>
	</radialGradient>


	<radialGradient id="SVGID_6_" cx="179.2695" cy="5.3268" r="263.7987" gradientTransform="matrix(1 0 0 -1 0 159)" gradientUnits="userSpaceOnUse">
		<stop  offset="0.1531" style="stop-color:#FFFFFF"/>
		<stop  offset="0.4493" style="stop-color:#F8F8F8"/>
		<stop  offset="0.8943" style="stop-color:#E3E3E4"/>
		<stop  offset="1" style="stop-color:#DDDDDE"/>
	</radialGradient>
	

	<radialGradient id="SVGID_7_" cx="90.884" cy="32.2812" r="64.8613" gradientTransform="matrix(1 0 0 -1 0 159)" gradientUnits="userSpaceOnUse">
		<stop  offset="0.1531" style="stop-color:#FFFFFF"/>
		<stop  offset="0.4493" style="stop-color:#F8F8F8"/>
		<stop  offset="0.8943" style="stop-color:#E3E3E4"/>
		<stop  offset="1" style="stop-color:#DDDDDE"/>
	</radialGradient>

	<linearGradient id="SVGID_8_" gradientUnits="userSpaceOnUse" x1="5.5487" y1="23.7" x2="106.2487" y2="23.7" gradientTransform="matrix(1 0 0 -1 0 159)">
		<stop  offset="0" style="stop-color:#EAEAEA"/>
		<stop  offset="1" style="stop-color:#FEFEFE"/>
	</linearGradient>
	

	<linearGradient id="SVGID_9_" gradientUnits="userSpaceOnUse" x1="258.8871" y1="65.8" x2="306.6871" y2="65.8" gradientTransform="matrix(1 0 0 -1 0 159)">
		<stop  offset="0" style="stop-color:#EAEAEA"/>
		<stop  offset="1" style="stop-color:#FEFEFE"/>
	</linearGradient>
	

	<linearGradient id="SVGID_10_" gradientUnits="userSpaceOnUse" x1="246.5943" y1="9.2632" x2="265.279" y2="-0.7712" gradientTransform="matrix(1 0 0 -1 0 159)">
		<stop  offset="0" style="stop-color:#F2F2F2"/>
		<stop  offset="0.1972" style="stop-color:#F5F5F5"/>
		<stop  offset="1" style="stop-color:#FEFEFE"/>
	</linearGradient>
</defs>	
<g id="Layer_2">
	<rect x="0.1" fill="#FFFFFF" width="304" height="159"/>
</g>
<g id="Layer_1">
	<polygon fill="url(#SVGID_1_)" points="173.8,44.2 145.5,0 100.8,111.6 	"/>
	<polygon fill="url(#SVGID_2_)" points="162.4,130 256.3,144.4 173.8,44.2 	"/>
	<polygon fill="url(#SVGID_3_)" points="145.5,0 74.7,0 100.8,111.6 	"/>
	
	<polygon fill="#EAEAEA" points="174.8,0 145.5,0 173.8,44.2 	"/>
	<polygon fill="#FAFAFA" points="100.8,111.6 74.7,0 63.6,0 13.1,51.8 	"/>
	
	<polygon fill="url(#SVGID_4_)" points="270.2,42 211,0 174.8,0 173.7,44.2 	"/>
	<polygon fill="url(#SVGID_5_)" points="13.1,51.8 0.1,114.1 0.1,124 100.8,111.6 	"/>
	<polygon fill="#F5F5F5" points="148.5,159 168.7,159 162.4,130 	"/>
	<polygon fill="#EFEFEF" points="162.4,130 168.7,159 244.2,159 256.3,144.4 	"/>
	<polygon fill="url(#SVGID_6_)" points="256.3,144.4 270.3,41.9 173.8,44.2 	"/>
	<polygon fill="#EFEFEF" points="100.8,111.6 102.5,159 148.5,159 162.4,130 	"/>
	<polygon fill="url(#SVGID_7_)" points="48,159 102.6,159 100.8,111.6 	"/>
	<polygon fill="url(#SVGID_8_)" points="0.1,124 0.1,159 48,159 100.8,111.6 	"/>
	<polygon fill="url(#SVGID_9_)" points="256.3,144.4 304.1,131.7 304.1,62.6 270.2,42 	"/>
	<polygon fill="url(#SVGID_10_)" points="244.2,159 267.4,159 256.3,144.4 	"/>
	<polygon fill="#FEFEFE" points="294.9,0 211,0 270.3,41.9 	"/>
	<polygon fill="#F7F7F7" points="294.9,0 270.3,41.9 304.1,19.7 304.1,0 	"/>
	<polygon fill="#F1F1F1" points="0.1,57 0.1,114.1 13.1,51.8 	"/>
	<polygon fill="#EEEEEE" points="0.1,49.3 0.1,57 13.1,51.8 	"/>
	<polygon fill="#F3F3F3" points="0.1,38.7 0.1,49.3 13.1,51.8 	"/>
	<path fill="#F8F8F8" d="M63.7,0H0.1v38.7c4.3,4.4,8.7,8.8,13,13.2C30,34.5,46.8,17.3,63.7,0z"/>
	<polygon fill="#F5F5F5" points="267.4,159 304.1,159 304.1,131.7 256.3,144.4 	"/>
	<polygon fill="#EDEDED" points="304.1,62.6 304.1,49.5 270.3,41.9 	"/>
	<polygon fill="#F1F1F1" points="304.1,49.5 304.1,19.7 270.2,41.9 	"/>
	<polygon fill="#EFEFEF" points="162.4,130 173.8,44.2 100.8,111.6 	"/>
</g>
</svg>
