<?xml version="1.0" encoding="utf-8"?>
<!-- Generator: Adobe Illustrator 23.0.3, SVG Export Plug-In . SVG Version: 6.00 Build 0)  -->
<svg version="1.1" id="Layer_1" xmlns="http://www.w3.org/2000/svg" xmlns:xlink="http://www.w3.org/1999/xlink" x="0px" y="0px"
	 viewBox="0 0 24 24" style="enable-background:new 0 0 24 24;" xml:space="preserve">
<path fill="none" d="M0,0h24v24H0V0z"/>
<g>
	<path d="M18.4,7H15V5.5C15,4.7,14.3,4,13.4,4h-2.8C9.7,4,9,4.7,9,5.5V7H5.6C4.7,7,4,7.6,4,8.4L4,11h3v-1h2v1h6v-1h2v1h3V8.4
		C20,7.6,19.3,7,18.4,7z M13.4,7h-2.8V5.5h2.8V7z"/>
	<path d="M17,13h-2v-1H9v1H7v-1H4l0,5.5C4,18.3,4.7,19,5.6,19h12.8c0.9,0,1.6-0.7,1.6-1.5V12h-3V13z"/>
</g>
</svg>
