<?xml version="1.0" encoding="utf-8"?>
<!-- Generator: Adobe Illustrator 23.0.3, SVG Export Plug-In . SVG Version: 6.00 Build 0)  -->
<svg version="1.1" id="Layer_1" xmlns="http://www.w3.org/2000/svg" xmlns:xlink="http://www.w3.org/1999/xlink" x="0px" y="0px"
	 viewBox="0 0 24 24" style="enable-background:new 0 0 24 24;" xml:space="preserve">
<path fill="#7C8086" d="M22.1,19.5l-9.3-16c-0.4-0.7-1.4-0.7-1.7,0l-9.3,16C1.5,20.2,2,21,2.7,21h18.5C22,21,22.5,20.2,22.1,19.5z
	 M12,18c-0.6,0-1-0.4-1-1s0.4-1,1-1s1,0.4,1,1S12.6,18,12,18z M13,13c0,0.6-0.4,1-1,1s-1-0.4-1-1v-3c0-0.6,0.4-1,1-1s1,0.4,1,1V13z"
	/>
</svg>
