<?xml version="1.0" encoding="utf-8"?>
<svg version="1.1" id="Layer_1" xmlns="http://www.w3.org/2000/svg" xmlns:xlink="http://www.w3.org/1999/xlink" x="0px" y="0px"
	 viewBox="0 0 39 39" style="enable-background:new 0 0 39 39;" xml:space="preserve">
<g id="Layer_3" display="none">
	<rect display="inline" fill="none" width="39" height="39"/>
	<g display="inline">
		
			<linearGradient id="SVGID_1_" gradientUnits="userSpaceOnUse" x1="2" y1="21" x2="37" y2="21" gradientTransform="matrix(1 0 0 -1 0 40)">
			<stop  offset="0" style="stop-color:#00A0FF"/>
			<stop  offset="1" style="stop-color:#0EA1FD"/>
		</linearGradient>
		<path fill="url(#SVGID_1_)" d="M37,19L37,19V4c0-0.6-0.4-1-1-1H3C2.4,3,2,3.4,2,4l0,0v30l0,0c0,0.6,0.4,1,1,1h33c0.6,0,1-0.4,1-1V19L37,19z
			 M35,18H4V5h31V18z M4,20h31v13H4V20z"/>
		
			<linearGradient id="SVGID_2_" gradientUnits="userSpaceOnUse" x1="6" y1="13.5" x2="13.599" y2="13.5" gradientTransform="matrix(1 0 0 -1 0 40)">
			<stop  offset="0" style="stop-color:#00A0FF"/>
			<stop  offset="1" style="stop-color:#0EA1FD"/>
		</linearGradient>
		<path fill="url(#SVGID_2_)" d="M10.9,22.8c-0.2-0.5-0.6-0.8-1.2-0.8c-0.5,0-1,0.3-1.2,0.8l-2.6,7c-0.1,0.6,0.4,1.2,1,1.2l0,0
			c0.4,0,0.7-0.3,0.9-0.6l0.4-1.2h3.2l0.4,1.2c0.1,0.4,0.5,0.6,0.9,0.6c0.6,0,1.1-0.6,0.9-1.2L10.9,22.8z M8.7,27.6l1.1-3.4l1.1,3.4
			H8.7z"/>
		
			<linearGradient id="SVGID_3_" gradientUnits="userSpaceOnUse" x1="21.1902" y1="12.2" x2="26.5222" y2="12.2" gradientTransform="matrix(1 0 0 -1 0 40)">
			<stop  offset="0" style="stop-color:#00A0FF"/>
			<stop  offset="1" style="stop-color:#0EA1FD"/>
		</linearGradient>
		<path fill="url(#SVGID_3_)" d="M25.7,28.6c-0.3,0-0.6,0.2-0.7,0.4c-0.1,0.1-0.1,0.2-0.2,0.4c-0.2,0.2-0.4,0.3-0.8,0.3s-0.7-0.1-0.9-0.4
			c-0.2-0.4-0.3-1-0.3-1.6s0.1-1.1,0.3-1.4c0.2-0.3,0.5-0.4,0.9-0.4c0.3,0,0.6,0.1,0.8,0.3c0.1,0.1,0.2,0.2,0.2,0.4
			c0.1,0.3,0.4,0.4,0.7,0.4c0.5,0,0.9-0.6,0.7-1.1c-0.1-0.3-0.3-0.5-0.5-0.7c-0.5-0.4-1.1-0.7-1.9-0.7c-0.9,0-1.6,0.3-2.1,0.9
			s-0.8,1.3-0.8,2.3c0,0.6,0,0.8,0,0.8l0,0c0.1,0.7,0.3,1.2,0.7,1.7c0.5,0.6,1.2,0.9,2.1,0.9c0.8,0,1.4-0.2,1.9-0.7
			c0.2-0.2,0.4-0.4,0.5-0.7C26.7,29.1,26.3,28.6,25.7,28.6z"/>
		
			<linearGradient id="SVGID_4_" gradientUnits="userSpaceOnUse" x1="14.6765" y1="13.5" x2="20.3159" y2="13.5" gradientTransform="matrix(1 0 0 -1 0 40)">
			<stop  offset="0" style="stop-color:#00A0FF"/>
			<stop  offset="1" style="stop-color:#0EA1FD"/>
		</linearGradient>
		<path fill="url(#SVGID_6_)" d="M17.9,24.5c-0.6,0-1.1,0.2-1.5,0.7v-2.4c0-0.5-0.4-0.8-0.8-0.8s-0.8,0.4-0.8,0.8v6.5v0.9
			c0,0.5,0.4,0.8,0.8,0.8c0.4,0,0.7-0.3,0.8-0.7c0.4,0.5,0.9,0.7,1.6,0.7c0.8,0,1.4-0.3,1.8-0.8c0.4-0.6,0.6-1.3,0.6-2.3v-0.1
			c0-1-0.2-1.8-0.7-2.4C19.2,24.8,18.6,24.5,17.9,24.5z M18.5,28.9c-0.2,0.5-0.5,0.8-1.1,0.8c-0.5,0-0.9-0.2-1.1-0.7v-2.5
			c0.2-0.4,0.6-0.7,1.1-0.7c0.4,0,0.7,0.1,0.9,0.4c0.2,0.3,0.3,0.8,0.3,1.4C18.6,28.2,18.6,28.6,18.5,28.9z"/>
		
			<linearGradient id="SVGID_5_" gradientUnits="userSpaceOnUse" x1="6" y1="28.5" x2="13.599" y2="28.5" gradientTransform="matrix(1 0 0 -1 0 40)">
			<stop  offset="0" style="stop-color:#00A0FF"/>
			<stop  offset="1" style="stop-color:#0EA1FD"/>
		</linearGradient>
		<path fill="url(#SVGID_5_)" d="M6.9,16L6.9,16c0.4,0,0.7-0.3,0.9-0.6l0.4-1.2h3.2l0.4,1.2c0.1,0.4,0.5,0.6,0.9,0.6c0.6,0,1.1-0.6,0.9-1.2
			l-2.6-7C10.8,7.3,10.3,7,9.8,7s-1,0.3-1.2,0.8l-2.6,7C5.8,15.4,6.3,16,6.9,16z M9.8,9.3l1.1,3.4H8.7L9.8,9.3z"/>
		
			<linearGradient id="SVGID_6_" gradientUnits="userSpaceOnUse" x1="26.4118" y1="28.3875" x2="31.6029" y2="28.3875" gradientTransform="matrix(1 0 0 -1 0 40)">
			<stop  offset="0" style="stop-color:#00A0FF"/>
			<stop  offset="1" style="stop-color:#0EA1FD"/>
		</linearGradient>
		<path fill="url(#SVGID_6_)" d="M28.5,13c0.3,0.3,0.7,0.3,1,0l1.9-1.8c0.5-0.4,0.1-1.2-0.5-1.2h-3.7c-0.6,0-1,0.8-0.5,1.2L28.5,13z"/>
	</g>
</g>
<g id="Layer_4" display="none">
	<rect display="inline" fill="none" width="39" height="39"/>
	<g display="inline">
		
			<linearGradient id="SVGID_7_" gradientUnits="userSpaceOnUse" x1="2" y1="21" x2="37" y2="21" gradientTransform="matrix(1 0 0 -1 0 40)">
			<stop  offset="0" style="stop-color:#00A0FF"/>
			<stop  offset="1" style="stop-color:#0EA1FD"/>
		</linearGradient>
		<path fill="url(#SVGID_7_)" d="M29.1,13c3.3,0,5.9,2.7,5.9,6s-2.6,6-5.9,6H9.9C6.6,25,4,22.3,4,19s2.6-6,5.9-6H29.1 M29.1,11H9.9
			C5.5,11,2,14.6,2,19l0,0c0,4.4,3.5,8,7.9,8h19.2c4.4,0,7.9-3.6,7.9-8l0,0C37,14.6,33.5,11,29.1,11L29.1,11z"/>
	</g>
	
		<linearGradient id="SVGID_8_" gradientUnits="userSpaceOnUse" x1="25.0347" y1="21.1" x2="30.9211" y2="21.1" gradientTransform="matrix(1 0 0 -1 0 40)">
		<stop  offset="0" style="stop-color:#00A0FF"/>
		<stop  offset="1" style="stop-color:#0EA1FD"/>
	</linearGradient>
	<path fill="url(#SVGID_8_)" display="inline" d="M29.3,19l1.3-1.3c0.4-0.4,0.4-1,0-1.3c-0.4-0.4-1-0.4-1.3,0L28,17.6l-1.3-1.3c-0.4-0.4-1-0.4-1.3,0
		c-0.4,0.4-0.4,1,0,1.3l1.3,1.3l-1.3,1.3c-0.4,0.4-0.4,1,0,1.3c0.4,0.4,1,0.4,1.3,0l1.3-1.3l1.3,1.3c0.4,0.4,1,0.4,1.3,0
		c0.4-0.4,0.4-1,0-1.3L29.3,19z"/>
</g>
<g id="Layer_5" display="none">
	<rect display="inline" fill="none" width="39" height="39"/>
	<g display="inline">
		
			<linearGradient id="SVGID_9_" gradientUnits="userSpaceOnUse" x1="2" y1="21" x2="37" y2="21" gradientTransform="matrix(1 0 0 -1 0 40)">
			<stop  offset="0" style="stop-color:#00A0FF"/>
			<stop  offset="1" style="stop-color:#0EA1FD"/>
		</linearGradient>
		<path fill="url(#SVGID_9_)" d="M37,26V12c0-0.6-0.4-1-1-1H3c-0.6,0-1,0.4-1,1l0,0v14c0,0.6,0.4,1,1,1h33C36.6,27,37,26.6,37,26L37,26z
			 M4,13h18v12H4V13z M24,13h11v12H24V13z"/>
		
			<linearGradient id="SVGID_10_" gradientUnits="userSpaceOnUse" x1="27" y1="20.4875" x2="32" y2="20.4875" gradientTransform="matrix(1 0 0 -1 0 40)">
			<stop  offset="0" style="stop-color:#00A0FF"/>
			<stop  offset="1" style="stop-color:#0EA1FD"/>
		</linearGradient>
		<path fill="url(#SVGID_10_)" d="M31.3,18h-3.6c-0.6,0-0.9,0.7-0.5,1.1l1.8,1.7c0.3,0.3,0.7,0.3,1,0l1.8-1.7C32.2,18.7,31.9,18,31.3,18z"/>
	</g>
</g>
<rect fill="none" width="39" height="39"/>
<g>
	
		<linearGradient id="SVGID_11_" gradientUnits="userSpaceOnUse" x1="16.4745" y1="17.5" x2="35.9995" y2="17.5" gradientTransform="matrix(1 0 0 -1 0 40)">
		<stop  offset="0" style="stop-color:#00A0FF"/>
		<stop  offset="1" style="stop-color:#0EA1FD"/>
	</linearGradient>
	<path fill="url(#SVGID_11_)" d="M31.1,15.5l2.4,2.4L22.8,28.6c-0.1,0-0.1,0-0.2,0.1l-3.3,0.8l1-3.1v-0.1L31.1,15.5 M31.1,13
		c-0.2,0-0.4,0.1-0.5,0.2L18.7,25c-0.1,0.1-0.3,0.5-0.3,0.7l-1.9,5.7c0,0.3,0.3,0.6,0.6,0.6l6-1.4c0.2,0,0.8-0.2,0.9-0.3l11.8-11.8
		c0.3-0.3,0.3-0.8,0-1.1l-4.2-4.2C31.4,13.1,31.3,13,31.1,13L31.1,13z"/>
</g>
<linearGradient id="SVGID_12_" gradientUnits="userSpaceOnUse" x1="28.2636" y1="21.7" x2="33.092" y2="21.7" gradientTransform="matrix(1 0 0 -1 0 40)">
	<stop  offset="0" style="stop-color:#00A0FF"/>
	<stop  offset="1" style="stop-color:#0EA1FD"/>
</linearGradient>
<path fill="url(#SVGID_12_)" d="M32.8,19.1L30,16.2c-0.4-0.4-1-0.4-1.4,0s-0.4,1,0,1.4l2.8,2.8c0.4,0.4,1,0.4,1.4,0
	C33.2,20.1,33.2,19.5,32.8,19.1z"/>
<linearGradient id="SVGID_13_" gradientUnits="userSpaceOnUse" x1="19.592" y1="13.1" x2="24.4204" y2="13.1" gradientTransform="matrix(1 0 0 -1 0 40)">
	<stop  offset="0" style="stop-color:#00A0FF"/>
	<stop  offset="1" style="stop-color:#0EA1FD"/>
</linearGradient>
<path fill="url(#SVGID_13_)" d="M22.7,29c0.4,0.4,1,0.4,1.4,0s0.4-1,0-1.4l-2.8-2.8c-0.4-0.4-1-0.4-1.4,0s-0.4,1,0,1.4L22.7,29z"/>
<linearGradient id="SVGID_14_" gradientUnits="userSpaceOnUse" x1="4" y1="20" x2="31" y2="20" gradientTransform="matrix(1 0 0 -1 0 40)">
	<stop  offset="0" style="stop-color:#00A0FF"/>
	<stop  offset="1" style="stop-color:#0EA1FD"/>
</linearGradient>
<path fill="url(#SVGID_14_)" d="M30,27c-0.6,0-1,0.4-1,1v6H6V6h23v4c0,0.6,0.4,1,1,1s1-0.4,1-1V5l0,0c0-0.6-0.4-1-1-1H5C4.4,4,4,4.4,4,5v30
	c0,0.6,0.4,1,1,1h25c0.6,0,1-0.4,1-1v-7C31,27.4,30.6,27,30,27z"/>
<g>
	<linearGradient id="SVGID_15_" gradientUnits="userSpaceOnUse" x1="9" y1="16.9999" x2="23" y2="16.9999">
		<stop  offset="0" style="stop-color:#00A0FF"/>
		<stop  offset="1" style="stop-color:#0EA1FD"/>
	</linearGradient>
	<path fill="url(#SVGID_15_)" d="M22,16H10c-0.6,0-1,0.4-1,1s0.4,1,1,1h12c0.6,0,1-0.4,1-1S22.6,16,22,16z"/>
	<linearGradient id="SVGID_16_" gradientUnits="userSpaceOnUse" x1="10" y1="9.5" x2="13" y2="9.5">
		<stop  offset="0" style="stop-color:#00A0FF"/>
		<stop  offset="1" style="stop-color:#0EA1FD"/>
	</linearGradient>
	<circle fill="url(#SVGID_16_)" cx="11.5" cy="9.5" r="1.5"/>
	<linearGradient id="SVGID_17_" gradientUnits="userSpaceOnUse" x1="9" y1="12.5" x2="14" y2="12.5">
		<stop  offset="0" style="stop-color:#00A0FF"/>
		<stop  offset="1" style="stop-color:#0EA1FD"/>
	</linearGradient>
	<path fill="url(#SVGID_17_)" d="M9.7,14h3.6c0.5,0,0.8-0.6,0.7-1.1c-0.4-1.1-1.4-1.9-2.5-1.9S9.4,11.8,9,12.9C8.9,13.4,9.2,14,9.7,14z"/>
	<linearGradient id="SVGID_18_" gradientUnits="userSpaceOnUse" x1="9" y1="21.9999" x2="18" y2="21.9999">
		<stop  offset="0" style="stop-color:#00A0FF"/>
		<stop  offset="1" style="stop-color:#0EA1FD"/>
	</linearGradient>
	<path fill="url(#SVGID_18_)" d="M17,21h-7c-0.6,0-1,0.4-1,1c0,0.6,0.4,1,1,1h7c0.6,0,1-0.4,1-1C18,21.4,17.6,21,17,21z"/>
	<linearGradient id="SVGID_19_" gradientUnits="userSpaceOnUse" x1="9" y1="26.9999" x2="15" y2="26.9999">
		<stop  offset="0" style="stop-color:#00A0FF"/>
		<stop  offset="1" style="stop-color:#0EA1FD"/>
	</linearGradient>
	<path fill="url(#SVGID_19_)" d="M14,26h-4c-0.6,0-1,0.4-1,1s0.4,1,1,1h4c0.6,0,1-0.4,1-1S14.6,26,14,26z"/>
	<linearGradient id="SVGID_20_" gradientUnits="userSpaceOnUse" x1="16" y1="11.9999" x2="26" y2="11.9999">
		<stop  offset="0" style="stop-color:#00A0FF"/>
		<stop  offset="1" style="stop-color:#0EA1FD"/>
	</linearGradient>
	<path fill="url(#SVGID_20_)" d="M25,11h-8c-0.6,0-1,0.4-1,1s0.4,1,1,1h8c0.6,0,1-0.4,1-1S25.6,11,25,11z"/>
</g>
</svg>
