<?xml version="1.0" encoding="utf-8" ?>
<!-- Generator: Adobe Illustrator 24.0.2, SVG Export Plug-In . SVG Version: 6.00 Build 0)  -->
<svg version="1.1" id="Layer_1" xmlns="http://www.w3.org/2000/svg" xmlns:xlink="http://www.w3.org/1999/xlink" x="0px" y="0px"
     viewBox="0 0 39 39" style="enable-background:new 0 0 39 39;" xml:space="preserve">

<g id="Layer_12">
<rect fill="none" width="39" height="39" />

<g>		
<linearGradient id="SVGID_75_" gradientUnits="userSpaceOnUse" x1="2.9847" y1="28.1" x2="3.0153" y2="13.1" gradientTransform="matrix(1 0 0 -1 0 40)">
<stop offset="0" style="stop-color:#00A0FF" />

<stop offset="1" style="stop-color:#0EA1FD" />

		</linearGradient>
<path fill="url(#SVGID_75_)" d="M3,26.9L3,26.9c-0.6,0-1-0.4-1-1v-13c0-0.6,0.4-1,1-1l0,0c0.6,0,1,0.4,1,1v13C4,26.5,3.6,26.9,3,26.9z" />


		
<linearGradient id="SVGID_76_" gradientUnits="userSpaceOnUse" x1="35.9847" y1="28.1" x2="36.0153" y2="13.1" gradientTransform="matrix(1 0 0 -1 0 40)">
<stop offset="0" style="stop-color:#00A0FF" />

<stop offset="1" style="stop-color:#0EA1FD" />

		</linearGradient>
<path fill="url(#SVGID_76_)" d="M36,11.9L36,11.9c-0.6,0-1,0.4-1,1v13c0,0.6,0.4,1,1,1l0,0c0.6,0,1-0.4,1-1v-13C37,12.4,36.6,11.9,36,11.9z" />


		
<linearGradient id="SVGID_77_" gradientUnits="userSpaceOnUse" x1="4.498" y1="28.0988" x2="4.502" y2="26.0928" gradientTransform="matrix(1 0 0 -1 0 40)">
<stop offset="0" style="stop-color:#00A0FF" />

<stop offset="1" style="stop-color:#0EA1FD" />

		</linearGradient>
<path fill="url(#SVGID_77_)" d="M6,13.9H3c-0.6,0-1-0.4-1-1l0,0c0-0.6,0.4-1,1-1h3c0.6,0,1,0.4,1,1l0,0C7,13.5,6.6,13.9,6,13.9z" />


		
<linearGradient id="SVGID_78_" gradientUnits="userSpaceOnUse" x1="4.498" y1="15.0988" x2="4.502" y2="13.0928" gradientTransform="matrix(1 0 0 -1 0 40)">
<stop offset="0" style="stop-color:#00A0FF" />

<stop offset="1" style="stop-color:#0EA1FD" />

		</linearGradient>
<path fill="url(#SVGID_78_)" d="M6,26.9H3c-0.6,0-1-0.4-1-1l0,0c0-0.6,0.4-1,1-1h3c0.6,0,1,0.4,1,1l0,0C7,26.5,6.6,26.9,6,26.9z" />


		
<linearGradient id="SVGID_79_" gradientUnits="userSpaceOnUse" x1="9.9979" y1="30.0042" x2="10.0021" y2="27.9958" gradientTransform="matrix(1 0 0 -1 0 40)">
<stop offset="0" style="stop-color:#00A0FF" />

<stop offset="1" style="stop-color:#0EA1FD" />

		</linearGradient>
<path fill="url(#SVGID_79_)" d="M12,12H8c-0.6,0-1-0.4-1-1l0,0c0-0.6,0.4-1,1-1h4c0.6,0,1,0.4,1,1l0,0C13,11.6,12.6,12,12,12z" />


		
<linearGradient id="SVGID_80_" gradientUnits="userSpaceOnUse" x1="9.9979" y1="13.0042" x2="10.0021" y2="10.9958" gradientTransform="matrix(1 0 0 -1 0 40)">
<stop offset="0" style="stop-color:#00A0FF" />

<stop offset="1" style="stop-color:#0EA1FD" />

		</linearGradient>
<path fill="url(#SVGID_80_)" d="M12,29H8c-0.6,0-1-0.4-1-1l0,0c0-0.6,0.4-1,1-1h4c0.6,0,1,0.4,1,1l0,0C13,28.6,12.6,29,12,29z" />


		
<linearGradient id="SVGID_81_" gradientUnits="userSpaceOnUse" x1="9.9806" y1="30" x2="10.0194" y2="11" gradientTransform="matrix(1 0 0 -1 0 40)">
<stop offset="0" style="stop-color:#00A0FF" />

<stop offset="1" style="stop-color:#0EA1FD" />

		</linearGradient>
<path fill="url(#SVGID_81_)" d="M10,10L10,10c-0.6,0-1,0.4-1,1v17c0,0.6,0.4,1,1,1l0,0c0.6,0,1-0.4,1-1V11C11,10.4,10.6,10,10,10z" />


		
<linearGradient id="SVGID_82_" gradientUnits="userSpaceOnUse" x1="24.9979" y1="28.1182" x2="25.0021" y2="26.073" gradientTransform="matrix(1 0 0 -1 0 40)">
<stop offset="0" style="stop-color:#00A0FF" />

<stop offset="1" style="stop-color:#0EA1FD" />

		</linearGradient>
<path fill="url(#SVGID_82_)" d="M36,13.9H14c-0.6,0-1-0.4-1-1l0,0c0-0.6,0.4-1,1-1h22c0.6,0,1,0.4,1,1l0,0C37,13.5,36.6,13.9,36,13.9z" />


		
<linearGradient id="SVGID_83_" gradientUnits="userSpaceOnUse" x1="24.9979" y1="15.1182" x2="25.0021" y2="13.073" gradientTransform="matrix(1 0 0 -1 0 40)">
<stop offset="0" style="stop-color:#00A0FF" />

<stop offset="1" style="stop-color:#0EA1FD" />

		</linearGradient>
<path fill="url(#SVGID_83_)" d="M36,26.9H14c-0.6,0-1-0.4-1-1l0,0c0-0.6,0.4-1,1-1h22c0.6,0,1,0.4,1,1l0,0C37,26.5,36.6,26.9,36,26.9z" />

	</g>
</g>
</svg>
