<?xml version="1.0" encoding="utf-8"?>
<svg version="1.1" id="Layer_1" xmlns="http://www.w3.org/2000/svg" xmlns:xlink="http://www.w3.org/1999/xlink" x="0px" y="0px"
	 viewBox="0 0 39 39" style="enable-background:new 0 0 39 39;" xml:space="preserve">
<rect fill="none" width="39" height="39"/>
<g>
	
		<linearGradient id="SVGID_1_" gradientUnits="userSpaceOnUse" x1="26.2625" y1="24.2933" x2="26.2625" y2="10.4752" gradientTransform="matrix(1 0 0 -1 0 40)">
		<stop  offset="0" style="stop-color:#0195F6"/>
		<stop  offset="1" style="stop-color:#0380E4"/>
	</linearGradient>
	<path fill="url(#SVGID_1_)" d="M31.1,15.5l2.4,2.4L22.8,28.6c-0.1,0-0.1,0-0.2,0.1l-3.3,0.8l1-3.1v-0.1L31.1,15.5 M31.1,13
		c-0.2,0-0.4,0.1-0.5,0.2L18.7,25c-0.1,0.1-0.3,0.5-0.3,0.7l-1.9,5.7c0,0.3,0.3,0.6,0.6,0.6l6-1.4c0.2,0,0.8-0.2,0.9-0.3l11.8-11.8
		c0.3-0.3,0.3-0.8,0-1.1l-4.2-4.2C31.4,13.1,31.3,13,31.1,13L31.1,13z"/>
</g>
<linearGradient id="SVGID_2_" gradientUnits="userSpaceOnUse" x1="30.7" y1="-12.1364" x2="30.7" y2="-7.308" gradientTransform="matrix(1 0 0 1 0 28)">
	<stop  offset="0" style="stop-color:#0195F6"/>
	<stop  offset="1" style="stop-color:#028EF0"/>
</linearGradient>
<path fill="url(#SVGID_2_)" d="M32.8,19.1L30,16.2c-0.4-0.4-1-0.4-1.4,0s-0.4,1,0,1.4l2.8,2.8c0.4,0.4,1,0.4,1.4,0
	C33.2,20.1,33.2,19.5,32.8,19.1z"/>
<linearGradient id="SVGID_3_" gradientUnits="userSpaceOnUse" x1="22" y1="-3.508" x2="22" y2="1.3204" gradientTransform="matrix(1 0 0 1 0 28)">
	<stop  offset="0" style="stop-color:#0287EA"/>
	<stop  offset="1" style="stop-color:#0382E6"/>
</linearGradient>
<path fill="url(#SVGID_3_)" d="M22.7,29c0.4,0.4,1,0.4,1.4,0s0.4-1,0-1.4l-2.8-2.8c-0.4-0.4-1-0.4-1.4,0s-0.4,1,0,1.4L22.7,29z"/>
<linearGradient id="SVGID_4_" gradientUnits="userSpaceOnUse" x1="17.5" y1="-24" x2="17.5" y2="8" gradientTransform="matrix(1 0 0 1 0 28)">
	<stop  offset="0" style="stop-color:#00A0FF"/>
	<stop  offset="1" style="stop-color:#047BDF"/>
</linearGradient>
<path fill="url(#SVGID_4_)" d="M30,27c-0.6,0-1,0.4-1,1v6H6V6h23v4c0,0.6,0.4,1,1,1s1-0.4,1-1V5l0,0c0-0.6-0.4-1-1-1H5C4.4,4,4,4.4,4,5v30
	c0,0.6,0.4,1,1,1h25c0.6,0,1-0.4,1-1v-7C31,27.4,30.6,27,30,27z"/>
<linearGradient id="SVGID_5_" gradientUnits="userSpaceOnUse" x1="16" y1="15.9999" x2="16" y2="17.9999">
	<stop  offset="0" style="stop-color:#0292F3"/>
	<stop  offset="1" style="stop-color:#0290F1"/>
</linearGradient>
<path fill="url(#SVGID_5_)" d="M22,16H10c-0.6,0-1,0.4-1,1s0.4,1,1,1h12c0.6,0,1-0.4,1-1S22.6,16,22,16z"/>
<linearGradient id="SVGID_6_" gradientUnits="userSpaceOnUse" x1="11.5" y1="8" x2="11.5" y2="11">
	<stop  offset="0" style="stop-color:#019BFA"/>
	<stop  offset="1" style="stop-color:#0198F8"/>
</linearGradient>
<circle fill="url(#SVGID_6_)" cx="11.5" cy="9.5" r="1.5"/>
<linearGradient id="SVGID_7_" gradientUnits="userSpaceOnUse" x1="11.5" y1="11" x2="11.5" y2="14">
	<stop  offset="0" style="stop-color:#0198F8"/>
	<stop  offset="1" style="stop-color:#0195F5"/>
</linearGradient>
<path fill="url(#SVGID_7_)" d="M9.7,14h3.6c0.5,0,0.8-0.6,0.7-1.1c-0.4-1.1-1.4-1.9-2.5-1.9S9.4,11.8,9,12.9C8.9,13.4,9.2,14,9.7,14z"/>
<linearGradient id="SVGID_8_" gradientUnits="userSpaceOnUse" x1="13.5" y1="20.9999" x2="13.5" y2="22.9999">
	<stop  offset="0" style="stop-color:#028CEE"/>
	<stop  offset="1" style="stop-color:#028AEC"/>
</linearGradient>
<path fill="url(#SVGID_8_)" d="M17,21h-7c-0.6,0-1,0.4-1,1c0,0.6,0.4,1,1,1h7c0.6,0,1-0.4,1-1C18,21.4,17.6,21,17,21z"/>
<linearGradient id="SVGID_9_" gradientUnits="userSpaceOnUse" x1="12" y1="25.9999" x2="12" y2="27.9999">
	<stop  offset="0" style="stop-color:#0387E9"/>
	<stop  offset="1" style="stop-color:#0384E7"/>
</linearGradient>
<path fill="url(#SVGID_9_)" d="M14,26h-4c-0.6,0-1,0.4-1,1s0.4,1,1,1h4c0.6,0,1-0.4,1-1S14.6,26,14,26z"/>
<linearGradient id="SVGID_10_" gradientUnits="userSpaceOnUse" x1="21" y1="10.9999" x2="21" y2="12.9999">
	<stop  offset="0" style="stop-color:#0197F8"/>
	<stop  offset="1" style="stop-color:#0196F6"/>
</linearGradient>
<path fill="url(#SVGID_10_)" d="M25,11h-8c-0.6,0-1,0.4-1,1s0.4,1,1,1h8c0.6,0,1-0.4,1-1S25.6,11,25,11z"/>
</svg>
