<?xml version="1.0" encoding="utf-8"?>
<svg version="1.1" id="Layer_1" xmlns="http://www.w3.org/2000/svg" xmlns:xlink="http://www.w3.org/1999/xlink" x="0px" y="0px"
	 viewBox="0 0 39 39" style="enable-background:new 0 0 39 39;" xml:space="preserve">
<g>
	<g>
		<linearGradient id="SVGID_1_" gradientUnits="userSpaceOnUse" x1="26.2625" y1="15.7067" x2="26.2625" y2="29.5248">
			<stop  offset="0" style="stop-color:#0195F6"/>
			<stop  offset="1" style="stop-color:#0380E4"/>
		</linearGradient>
		<path fill="url(#SVGID_1_)" d="M31.1,15.5l2.4,2.4L22.8,28.6c-0.1,0-0.1,0-0.2,0.1l-3.3,0.8l1-3.1v-0.1L31.1,15.5 M31.1,13
			c-0.2,0-0.4,0.1-0.5,0.2L18.7,25c-0.1,0.1-0.3,0.5-0.3,0.7l-1.9,5.7c0,0.3,0.3,0.6,0.6,0.6l6-1.4c0.2,0,0.8-0.2,0.9-0.3l11.8-11.8
			c0.3-0.3,0.3-0.8,0-1.1l-4.2-4.2C31.4,13.1,31.3,13,31.1,13L31.1,13z"/>
	</g>
	
		<linearGradient id="SVGID_2_" gradientUnits="userSpaceOnUse" x1="30.7" y1="24.1364" x2="30.7" y2="19.308" gradientTransform="matrix(1 0 0 -1 0 40)">
		<stop  offset="0" style="stop-color:#0195F6"/>
		<stop  offset="1" style="stop-color:#028EF0"/>
	</linearGradient>
	<path fill="url(#SVGID_2_)" d="M32.8,19.1L30,16.2c-0.4-0.4-1-0.4-1.4,0s-0.4,1,0,1.4l2.8,2.8c0.4,0.4,1,0.4,1.4,0
		C33.2,20.1,33.2,19.5,32.8,19.1z"/>
	
		<linearGradient id="SVGID_3_" gradientUnits="userSpaceOnUse" x1="22" y1="15.508" x2="22" y2="10.6796" gradientTransform="matrix(1 0 0 -1 0 40)">
		<stop  offset="0" style="stop-color:#0287EA"/>
		<stop  offset="1" style="stop-color:#0382E6"/>
	</linearGradient>
	<path fill="url(#SVGID_3_)" d="M22.7,29c0.4,0.4,1,0.4,1.4,0s0.4-1,0-1.4l-2.8-2.8c-0.4-0.4-1-0.4-1.4,0s-0.4,1,0,1.4L22.7,29z"/>
	<linearGradient id="SVGID_4_" gradientUnits="userSpaceOnUse" x1="11" y1="24" x2="11" y2="30">
		<stop  offset="0" style="stop-color:#0388EB"/>
		<stop  offset="1" style="stop-color:#0382E5"/>
	</linearGradient>
	<path fill="url(#SVGID_4_)" d="M13,24H9c-0.6,0-1,0.4-1,1v4c0,0.6,0.4,1,1,1h4c0.6,0,1-0.4,1-1v-4C14,24.4,13.6,24,13,24z M12,28h-2v-2h2V28z
		"/>
	<linearGradient id="SVGID_5_" gradientUnits="userSpaceOnUse" x1="11" y1="16" x2="11" y2="22">
		<stop  offset="0" style="stop-color:#019BFB"/>
		<stop  offset="1" style="stop-color:#028CED"/>
	</linearGradient>
	<path fill="url(#SVGID_5_)" d="M14,17c0-0.6-0.4-1-1-1H9c-0.6,0-1,0.4-1,1v4c0,0.6,0.4,1,1,1h4c0.6,0,1-0.4,1-1V17z M12,20h-2v-2h2V20z"/>
	<linearGradient id="SVGID_6_" gradientUnits="userSpaceOnUse" x1="11" y1="8" x2="11" y2="14">
		<stop  offset="0" style="stop-color:#019BFB"/>
		<stop  offset="1" style="stop-color:#0195F5"/>
	</linearGradient>
	<path fill="url(#SVGID_6_)" d="M14,9c0-0.6-0.4-1-1-1H9C8.4,8,8,8.4,8,9v4c0,0.6,0.4,1,1,1h4c0.6,0,1-0.4,1-1V9z M12,12h-2v-2h2V12z"/>
	
		<linearGradient id="SVGID_7_" gradientUnits="userSpaceOnUse" x1="16" y1="29" x2="27" y2="29" gradientTransform="matrix(1 0 0 -1 0 40)">
		<stop  offset="0" style="stop-color:#019BFB"/>
		<stop  offset="1" style="stop-color:#0195F5"/>
	</linearGradient>
	<path fill="url(#SVGID_7_)" d="M27,11c0-0.6-0.4-1-1-1h-9c-0.6,0-1,0.4-1,1s0.4,1,1,1h9C26.6,12,27,11.6,27,11z"/>
	
		<linearGradient id="SVGID_8_" gradientUnits="userSpaceOnUse" x1="16" y1="21" x2="22" y2="21" gradientTransform="matrix(1 0 0 -1 0 40)">
		<stop  offset="0" style="stop-color:#019BFB"/>
		<stop  offset="1" style="stop-color:#028CED"/>
	</linearGradient>
	<path fill="url(#SVGID_8_)" d="M22,19c0-0.6-0.4-1-1-1h-4c-0.6,0-1,0.4-1,1s0.4,1,1,1h4C21.6,20,22,19.6,22,19z"/>
	
		<linearGradient id="SVGID_9_" gradientUnits="userSpaceOnUse" x1="17.5" y1="36" x2="17.5" y2="4" gradientTransform="matrix(1 0 0 -1 0 40)">
		<stop  offset="0" style="stop-color:#00A0FF"/>
		<stop  offset="1" style="stop-color:#047BDF"/>
	</linearGradient>
	<path fill="url(#SVGID_9_)" d="M30,27c-0.6,0-1,0.4-1,1v6H6V6h23v4c0,0.6,0.4,1,1,1s1-0.4,1-1V5l0,0c0-0.6-0.4-1-1-1H5C4.4,4,4,4.4,4,5v30
		c0,0.6,0.4,1,1,1h25c0.6,0,1-0.4,1-1v-7C31,27.4,30.6,27,30,27z"/>
</g>
</svg>
