<?xml version="1.0" encoding="utf-8"?>
<!-- Generator: Adobe Illustrator 24.0.2, SVG Export Plug-In . SVG Version: 6.00 Build 0)  -->
<svg version="1.1" id="Layer_1" xmlns="http://www.w3.org/2000/svg" xmlns:xlink="http://www.w3.org/1999/xlink" x="0px" y="0px"
	 viewBox="0 0 39 39" style="enable-background:new 0 0 39 39;" xml:space="preserve">
<g>
	<rect fill="none" width="39" height="39"/>
	<linearGradient id="SVGID_1_" gradientUnits="userSpaceOnUse" x1="19.5" y1="11" x2="19.5" y2="27">
		<stop  offset="0" style="stop-color:#00A0FF"/>
		<stop  offset="1" style="stop-color:#047BDF"/>
	</linearGradient>
	<path fill="url(#SVGID_1_)" d="M37,26V12c0-0.6-0.4-1-1-1H3c-0.6,0-1,0.4-1,1l0,0v14c0,0.6,0.4,1,1,1h33C36.6,27,37,26.6,37,26L37,26z M4,13
		h18v12H4V13z M24,13h11v12H24V13z"/>
	
	<linearGradient id="SVGID_2_" gradientUnits="userSpaceOnUse" x1="29.5" y1="22.0109" x2="29.5" y2="18.9641" gradientTransform="matrix(1 0 0 -1 0 40)">
		<stop  offset="0" style="stop-color:#028FF0"/>
		<stop  offset="1" style="stop-color:#028AEC"/>
	</linearGradient>
	<path fill="url(#SVGID_2_)" d="M31.3,18h-3.6c-0.6,0-0.9,0.7-0.5,1.1l1.8,1.7c0.3,0.3,0.7,0.3,1,0l1.8-1.7C32.2,18.7,31.9,18,31.3,18z"/>
</g>
</svg>
