<?xml version="1.0" encoding="utf-8"?>
<!-- Generator: Adobe Illustrator 24.1.1, SVG Export Plug-In . SVG Version: 6.00 Build 0)  -->
<svg version="1.1" id="Layer_1" xmlns="http://www.w3.org/2000/svg" xmlns:xlink="http://www.w3.org/1999/xlink" x="0px" y="0px"
	 viewBox="0 0 24 24" style="enable-background:new 0 0 24 24;" xml:space="preserve">
<path fill="none" d="M0,0h24v24H0V0z"/>
<rect fill="none" opacity="0.5" width="24" height="24"/>
<path d="M3,17L3,17c-0.6,0-1-0.4-1-1V8c0-0.6,0.4-1,1-1h0c0.6,0,1,0.4,1,1v8C4,16.6,3.6,17,3,17z"/>
<path d="M5,17H3c-0.6,0-1-0.4-1-1v0c0-0.6,0.4-1,1-1h2c0.6,0,1,0.4,1,1v0C6,16.6,5.6,17,5,17z"/>
<path d="M5,9H3C2.4,9,2,8.6,2,8v0c0-0.6,0.4-1,1-1h2c0.6,0,1,0.4,1,1v0C6,8.6,5.6,9,5,9z"/>
<path d="M21,9h-8c-0.6,0-1-0.4-1-1v0c0-0.6,0.4-1,1-1h8c0.6,0,1,0.4,1,1v0C22,8.6,21.6,9,21,9z"/>
<path d="M21,15h-8c-0.6,0-1,0.4-1,1v0c0,0.6,0.4,1,1,1h8c0.6,0,1-0.4,1-1v0C22,15.4,21.6,15,21,15z"/>
<path d="M21,17L21,17c0.6,0,1-0.4,1-1V8c0-0.6-0.4-1-1-1h0c-0.6,0-1,0.4-1,1v8C20,16.6,20.4,17,21,17z"/>
<path d="M9,20L9,20c-0.6,0-1-0.4-1-1V5c0-0.6,0.4-1,1-1h0c0.6,0,1,0.4,1,1v14C10,19.6,9.6,20,9,20z"/>
<path d="M11,20H7c-0.6,0-1-0.4-1-1v0c0-0.6,0.4-1,1-1h4c0.6,0,1,0.4,1,1v0C12,19.6,11.6,20,11,20z"/>
<path d="M11,6H7C6.4,6,6,5.6,6,5v0c0-0.6,0.4-1,1-1h4c0.6,0,1,0.4,1,1v0C12,5.6,11.6,6,11,6z"/>
</svg>
