<?xml version="1.0" encoding="utf-8"?>
<!-- Generator: Adobe Illustrator 22.1.0, SVG Export Plug-In . SVG Version: 6.00 Build 0)  -->
<svg version="1.1" id="Layer_1" xmlns="http://www.w3.org/2000/svg" xmlns:xlink="http://www.w3.org/1999/xlink" x="0px" y="0px"
	 viewBox="0 0 24 24" style="enable-background:new 0 0 24 24;" xml:space="preserve">
<path fill="none" d="M0,0h24v24H0V0z"/>
<g>
	<rect x="3" y="3" width="2" height="2"/>
	<rect x="3" y="7" width="2" height="2"/>
	<rect x="3" y="11" width="2" height="2"/>
	<rect x="3" y="15" width="2" height="2"/>
	<rect x="3" y="19" width="2" height="2"/>
	<rect x="7" y="19" width="2" height="2"/>
	<rect x="11" y="19" width="2" height="2"/>
	<rect x="15" y="19" width="2" height="2"/>
	<rect x="19" y="19" width="2" height="2"/>
	<rect x="7" y="3" width="2" height="2"/>
	<rect x="19" y="15" width="2" height="2"/>
	<path d="M16,3h-5v2h5c1.7,0,3,1.3,3,3v5h2V8C21,5.2,18.8,3,16,3z"/>
</g>
</svg>
