<?xml version="1.0" encoding="utf-8"?>
<!-- Generator: Adobe Illustrator 24.1.1, SVG Export Plug-In . SVG Version: 6.00 Build 0)  -->
<svg version="1.1" id="Layer_1" xmlns="http://www.w3.org/2000/svg" xmlns:xlink="http://www.w3.org/1999/xlink" x="0px" y="0px"
	 viewBox="0 0 39 39" style="enable-background:new 0 0 39 39;" xml:space="preserve">
<rect opacity="0.5" fill="none" width="39" height="39"/>
<linearGradient id="SVGID_1_" gradientUnits="userSpaceOnUse" x1="2" y1="19.9998" x2="37" y2="19.9998">
	<stop  offset="0" style="stop-color:#00A0FF"/>
	<stop  offset="1" style="stop-color:#42A5F6"/>
</linearGradient>
<path fill="url(#SVGID_1_)" d="M36,3H3C2.4,3,2,3.4,2,4v32c0,0.6,0.4,1,1,1h33c0.6,0,1-0.4,1-1V4C37,3.4,36.6,3,36,3z M35,23h-9v-6h9V23z
	 M4,17h9v6H4V17z M15,17h9v6h-9V17z M35,11h-9V5h9V11z M24,11h-9V5h9V11z M13,11H4V5h9V11z M4,29h9v6H4V29z M15,29h9v6h-9V29z
	 M26,29h9v6h-9V29z"/>
</svg>
