<?xml version="1.0" encoding="utf-8"?>
<!-- Generator: Adobe Illustrator 23.0.3, SVG Export Plug-In . SVG Version: 6.00 Build 0)  -->
<svg version="1.1" id="Layer_1" xmlns="http://www.w3.org/2000/svg" xmlns:xlink="http://www.w3.org/1999/xlink" x="0px" y="0px"
	 viewBox="0 0 39 39" style="enable-background:new 0 0 39 39;" xml:space="preserve">

<g id="Layer_28">
	<rect  fill="none" width="39" height="39"/>
</g>
<linearGradient id="SVGID_1_" gradientUnits="userSpaceOnUse" x1="11" y1="37" x2="11" y2="29" gradientTransform="matrix(1 0 0 -1 0 39)">
	<stop  offset="0" style="stop-color:#00A0FF"/>
	<stop  offset="1" style="stop-color:#42A5F6"/>
</linearGradient>
<path  fill="url(#SVGID_1_)" d="M14,2H8C7.4,2,7,2.4,7,3v6c0,0.6,0.4,1,1,1s1-0.4,1-1V4h5c0.6,0,1-0.4,1-1S14.6,2,14,2z"/>
<linearGradient id="SVGID_2_" gradientUnits="userSpaceOnUse" x1="11" y1="11" x2="11" y2="3" gradientTransform="matrix(1 0 0 -1 0 39)">
	<stop  offset="0" style="stop-color:#00A0FF"/>
	<stop  offset="1" style="stop-color:#42A5F6"/>
</linearGradient>
<path  fill="url(#SVGID_2_)" d="M14,34H9v-5c0-0.6-0.4-1-1-1s-1,0.4-1,1v6c0,0.6,0.4,1,1,1h6c0.6,0,1-0.4,1-1S14.6,34,14,34z"/>
<linearGradient id="SVGID_3_" gradientUnits="userSpaceOnUse" x1="8" y1="26.9917" x2="8" y2="12.9917" gradientTransform="matrix(1 0 0 -1 0 39)">
	<stop  offset="0" style="stop-color:#00A0FF"/>
	<stop  offset="1" style="stop-color:#42A5F6"/>
</linearGradient>
<path  fill="url(#SVGID_3_)" d="M14,12H2c-0.6,0-1,0.4-1,1v12c0,0.6,0.4,1,1,1h12c0.6,0,1-0.4,1-1V13C15,12.4,14.6,12,14,12z M13,24H3V14h10V24
	z"/>
<linearGradient id="SVGID_4_" gradientUnits="userSpaceOnUse" x1="8" y1="22.9917" x2="8" y2="16.9917" gradientTransform="matrix(1 0 0 -1 0 39)">
	<stop  offset="0" style="stop-color:#00A0FF"/>
	<stop  offset="1" style="stop-color:#42A5F6"/>
</linearGradient>
<path  fill="url(#SVGID_4_)" d="M6,20h1v1c0,0.6,0.4,1,1,1s1-0.4,1-1v-1h1c0.6,0,1-0.4,1-1s-0.4-1-1-1H9v-1c0-0.6-0.4-1-1-1s-1,0.4-1,1v1H6
	c-0.6,0-1,0.4-1,1S5.4,20,6,20z"/>
<linearGradient id="SVGID_5_" gradientUnits="userSpaceOnUse" x1="28" y1="36.9816" x2="28" y2="26.902" gradientTransform="matrix(1 0 0 -1 0 39)">
	<stop  offset="0" style="stop-color:#00A0FF"/>
	<stop  offset="1" style="stop-color:#42A5F6"/>
</linearGradient>
<path  fill="url(#SVGID_5_)" d="M19,12.1L37,12c0.6,0,1-0.5,1-1V3c0-0.6-0.5-1-1-1L19,2.1c-0.6,0-1,0.5-1,1v8C18,11.7,18.5,12.1,19,12.1z M36,4
	v6l-16,0.1v-6L36,4z"/>
<linearGradient id="SVGID_6_" gradientUnits="userSpaceOnUse" x1="28.0064" y1="25.0417" x2="28.0064" y2="14.9622" gradientTransform="matrix(1 0 0 -1 0 39)">
	<stop  offset="0" style="stop-color:#00A0FF"/>
	<stop  offset="1" style="stop-color:#42A5F6"/>
</linearGradient>
<path  fill="url(#SVGID_6_)" d="M37,14l-18,0.1c-0.6,0-1,0.5-1,1v8c0,0.6,0.5,1,1,1L37,24c0.6,0,1-0.5,1-1v-8C38.1,14.5,37.6,14,37,14z
	 M20.1,22.1v-6l16-0.1v6L20.1,22.1z"/>
<linearGradient id="SVGID_7_" gradientUnits="userSpaceOnUse" x1="28" y1="13" x2="28" y2="3" gradientTransform="matrix(1 0 0 -1 0 39)">
	<stop  offset="0" style="stop-color:#00A0FF"/>
	<stop  offset="1" style="stop-color:#42A5F6"/>
</linearGradient>
<path  fill="url(#SVGID_7_)" d="M37,26H19c-0.6,0-1,0.4-1,1v8c0,0.6,0.4,1,1,1h18c0.6,0,1-0.4,1-1v-8C38,26.4,37.6,26,37,26z M36,34H20v-6h16
	V34z"/>
</svg>
