<?xml version="1.0" encoding="utf-8"?>
<!-- Generator: Adobe Illustrator 24.0.2, SVG Export Plug-In . SVG Version: 6.00 Build 0)  -->
<svg version="1.1" id="Layer_1" xmlns="http://www.w3.org/2000/svg" xmlns:xlink="http://www.w3.org/1999/xlink" x="0px" y="0px"
	 viewBox="0 0 39 39" style="enable-background:new 0 0 39 39;" xml:space="preserve">
<g id="Layer_28">
	<rect fill="none" width="39" height="39"/>
</g>
<linearGradient id="SVGID_1_" gradientUnits="userSpaceOnUse" x1="3" y1="7" x2="3" y2="11">
	<stop  offset="0" style="stop-color:#019AFA"/>
	<stop  offset="1" style="stop-color:#0197F7"/>
</linearGradient>
<path fill="url(#SVGID_1_)" d="M3,11L3,11c-0.6,0-1-0.4-1-1V8c0-0.6,0.4-1,1-1h0c0.6,0,1,0.4,1,1v2C4,10.6,3.6,11,3,11z"/>
<linearGradient id="SVGID_2_" gradientUnits="userSpaceOnUse" x1="3" y1="12" x2="3" y2="16">
	<stop  offset="0" style="stop-color:#0195F5"/>
	<stop  offset="1" style="stop-color:#0291F2"/>
</linearGradient>
<path fill="url(#SVGID_2_)" d="M3,16L3,16c-0.6,0-1-0.4-1-1v-2c0-0.6,0.4-1,1-1h0c0.6,0,1,0.4,1,1v2C4,15.6,3.6,16,3,16z"/>
<linearGradient id="SVGID_3_" gradientUnits="userSpaceOnUse" x1="3" y1="17" x2="3" y2="21">
	<stop  offset="0" style="stop-color:#028FF1"/>
	<stop  offset="1" style="stop-color:#028CED"/>
</linearGradient>
<path fill="url(#SVGID_3_)" d="M3,21L3,21c-0.6,0-1-0.4-1-1v-2c0-0.6,0.4-1,1-1h0c0.6,0,1,0.4,1,1v2C4,20.6,3.6,21,3,21z"/>
<linearGradient id="SVGID_4_" gradientUnits="userSpaceOnUse" x1="23" y1="5" x2="23" y2="9">
	<stop  offset="0" style="stop-color:#009CFC"/>
	<stop  offset="1" style="stop-color:#0199F9"/>
</linearGradient>
<path fill="url(#SVGID_4_)" d="M23,9L23,9c-0.6,0-1-0.4-1-1V6c0-0.6,0.4-1,1-1h0c0.6,0,1,0.4,1,1v2C24,8.6,23.6,9,23,9z"/>
<linearGradient id="SVGID_5_" gradientUnits="userSpaceOnUse" x1="9" y1="22" x2="9" y2="24">
	<stop  offset="0" style="stop-color:#028AEC"/>
	<stop  offset="1" style="stop-color:#0388EB"/>
</linearGradient>
<path fill="url(#SVGID_5_)" d="M11,23L11,23c0,0.6-0.4,1-1,1H8c-0.6,0-1-0.4-1-1v0c0-0.6,0.4-1,1-1h2C10.6,22,11,22.4,11,23z"/>
<linearGradient id="SVGID_6_" gradientUnits="userSpaceOnUse" x1="12" y1="2" x2="12" y2="4">
	<stop  offset="0" style="stop-color:#00A0FF"/>
	<stop  offset="1" style="stop-color:#009EFD"/>
</linearGradient>
<path fill="url(#SVGID_6_)" d="M14,3L14,3c0,0.6-0.4,1-1,1h-2c-0.6,0-1-0.4-1-1v0c0-0.6,0.4-1,1-1h2C13.6,2,14,2.4,14,3z"/>
<linearGradient id="SVGID_7_" gradientUnits="userSpaceOnUse" x1="17" y1="2" x2="17" y2="4">
	<stop  offset="0" style="stop-color:#00A0FF"/>
	<stop  offset="1" style="stop-color:#009EFD"/>
</linearGradient>
<path fill="url(#SVGID_7_)" d="M19,3L19,3c0,0.6-0.4,1-1,1h-2c-0.6,0-1-0.4-1-1v0c0-0.6,0.4-1,1-1h2C18.6,2,19,2.4,19,3z"/>
<linearGradient id="SVGID_8_" gradientUnits="userSpaceOnUse" x1="22" y1="2" x2="22" y2="4">
	<stop  offset="0" style="stop-color:#00A0FF"/>
	<stop  offset="1" style="stop-color:#009EFD"/>
</linearGradient>
<path fill="url(#SVGID_8_)" d="M24,3L24,3c0,0.6-0.4,1-1,1h-2c-0.6,0-1-0.4-1-1v0c0-0.6,0.4-1,1-1h2C23.6,2,24,2.4,24,3z"/>
<linearGradient id="SVGID_9_" gradientUnits="userSpaceOnUse" x1="4" y1="22" x2="4" y2="24">
	<stop  offset="0" style="stop-color:#028AEC"/>
	<stop  offset="1" style="stop-color:#0388EB"/>
</linearGradient>
<path fill="url(#SVGID_9_)" d="M6,23L6,23c0,0.6-0.4,1-1,1H3c-0.6,0-1-0.4-1-1v0c0-0.6,0.4-1,1-1h2C5.6,22,6,22.4,6,23z"/>
<linearGradient id="SVGID_10_" gradientUnits="userSpaceOnUse" x1="7" y1="2" x2="7" y2="4">
	<stop  offset="0" style="stop-color:#00A0FF"/>
	<stop  offset="1" style="stop-color:#009EFD"/>
</linearGradient>
<path fill="url(#SVGID_10_)" d="M9,3L9,3c0,0.6-0.4,1-1,1H6C5.4,4,5,3.6,5,3v0c0-0.6,0.4-1,1-1h2C8.6,2,9,2.4,9,3z"/>
<linearGradient id="SVGID_11_" gradientUnits="userSpaceOnUse" x1="3" y1="2" x2="3" y2="6">
	<stop  offset="0" style="stop-color:#009FFE"/>
	<stop  offset="0.9944" style="stop-color:#009CFC"/>
</linearGradient>
<path fill="url(#SVGID_11_)" d="M3,6L3,6C2.4,6,2,5.6,2,5V3c0-0.6,0.4-1,1-1h0c0.6,0,1,0.4,1,1v2C4,5.6,3.6,6,3,6z"/>
<g>
	<linearGradient id="SVGID_12_" gradientUnits="userSpaceOnUse" x1="26" y1="15" x2="26" y2="37">
		<stop  offset="0" style="stop-color:#0192F3"/>
		<stop  offset="1" style="stop-color:#047CE0"/>
	</linearGradient>
	<path fill="url(#SVGID_12_)" d="M36,15h-6.3c0.2,0.6,0.3,1.3,0.5,2H35v18H17v-6.1c-0.7-0.4-1.4-0.7-2-1.2V36c0,0.6,0.4,1,1,1h20
		c0.6,0,1-0.4,1-1V16C37,15.4,36.6,15,36,15z"/>
</g>
<path display="inline" fill="none" stroke="#0382E5" stroke-width="2" stroke-miterlimit="10" d="M22.3,29.5c-1.1,0.6-2.5,0.7-3.6,0.2c-2.7-1.2-5.2-2.5-6.9-5.4c-1.1-1.9-0.9-3.7-0.4-4.4
	c0.5-0.7,2.2-1.2,2.9,0.1c0.7,1.3,1.8,3,1.8,3s-1.6-2.6-2.8-4.8c-0.5-1-2.8-4.1-0.6-5.4c2.2-1.3,4.3,2.6,4.3,2.6s-1.1-3.7,0.8-4.2
	c1.9-0.5,3.2,2.8,3.2,2.8s0.1-2.8,1.7-3c1.8-0.2,2.6,2.6,2.6,2.6s-0.3-2.2,1.4-2.5c2.6-0.4,3.7,6.5,4.2,11c0.2,1.7-0.6,3.3-2.1,4
	L22.3,29.5z"/>
</svg>
