<?xml version="1.0" encoding="utf-8" ?>
<svg version="1.1" id="Layer_1" xmlns="http://www.w3.org/2000/svg" xmlns:xlink="http://www.w3.org/1999/xlink" x="0px" y="0px"
     viewBox="0 0 39 39" style="enable-background:new 0 0 39 39;" xml:space="preserve">
<g>	
<path fill="none" stroke="#0193F3" stroke-width="2" stroke-linecap="round" stroke-linejoin="round" stroke-miterlimit="10" d="M12,15h-0.5C7.9,15,5,12.3,5,9l0,0c0-3.3,2.9-6,6.5-6h15.9C31.1,3,34,5.7,34,9l0,0c0,3.3-2.9,6-6.5,6H24" />
<path fill="none" stroke="#047CE0" stroke-width="2" stroke-linecap="round" stroke-linejoin="round" stroke-miterlimit="10" d="M17.7,36c-0.7,0-1.4-0.3-1.9-0.8c-1.7-2-5.7-6.7-6.4-7.5c-1.5-1.8-1-2.9-0.5-3.4c0.5-0.4,1.7-0.4,2.9,0.4
		c1.8,1.1,4.1,3.1,4.1,3.1s0-15.4,0-17.4c0-1,0.3-2.4,1.9-2.4c1.4,0,2.1,1.4,2.1,2.4c0,2,0,10.3,0,10.3s1.1-3,2.9-2.7
		c1.7,0.3,1.5,3.6,1.5,3.6s1.1-2.6,2.7-2.3c1.7,0.4,1.5,3.3,1.5,3.3s1.1-2.3,2.7-1.9c2.8,0.7-0.7,10-2.2,13.6
		c-0.4,0.9-1.2,1.5-2.2,1.5L17.7,36z" />
<rect fill="none" width="39" height="39" />
</g>
</svg>
