<?xml version="1.0" encoding="utf-8"?>
<!-- Generator: Adobe Illustrator 23.0.3, SVG Export Plug-In . SVG Version: 6.00 Build 0)  -->
<svg version="1.1" id="Layer_1" xmlns="http://www.w3.org/2000/svg" xmlns:xlink="http://www.w3.org/1999/xlink" x="0px" y="0px"
	 viewBox="0 0 39 39" style="enable-background:new 0 0 39 39;" xml:space="preserve">

<g id="Layer_28">
	<rect  fill="none" width="39" height="39"/>
</g>
<linearGradient id="SVGID_1_" gradientUnits="userSpaceOnUse" x1="19.5" y1="2" x2="19.5" y2="12">
	<stop  offset="0" style="stop-color:#00A0FF"/>
	<stop  offset="1" style="stop-color:#0196F6"/>
</linearGradient>
<path  fill="url(#SVGID_1_)" d="M36,2H3C2.4,2,2,2.4,2,3v8c0,0.6,0.4,1,1,1h3.1c0.6,0,1-0.4,1-1s-0.4-1-1-1H4V4h31v6H23c-0.6,0-1,0.4-1,1
	s0.4,1,1,1h13c0.6,0,1-0.4,1-1V3C37,2.4,36.6,2,36,2z"/>
<linearGradient id="SVGID_2_" gradientUnits="userSpaceOnUse" x1="14.05" y1="6.8284" x2="14.05" y2="24">
	<stop  offset="0" style="stop-color:#009BFB"/>
	<stop  offset="1" style="stop-color:#0388EB"/>
</linearGradient>
<path  fill="url(#SVGID_2_)" d="M14.8,7.1c-0.4-0.4-1-0.4-1.4,0l-5.7,5.7c-0.4,0.4-0.4,1,0,1.4c0.4,0.4,1,0.4,1.4,0l3.9-3.9V23c0,0.6,0.4,1,1,1
	s1-0.4,1-1V10.2l4,4c0.4,0.4,1,0.4,1.4,0s0.4-1,0-1.4L14.8,7.1z"/>
<linearGradient id="SVGID_3_" gradientUnits="userSpaceOnUse" x1="25.1" y1="14" x2="25.1" y2="31.1715">
	<stop  offset="0" style="stop-color:#0193F4"/>
	<stop  offset="1" style="stop-color:#0381E4"/>
</linearGradient>
<path  fill="url(#SVGID_3_)" d="M25,14c-0.6,0-1,0.4-1,1v12.7l-3.9-3.9c-0.4-0.4-1-0.4-1.4,0s-0.4,1,0,1.4l5.7,5.7c0.4,0.4,1,0.4,1.4,0l5.7-5.7
	c0.4-0.4,0.4-1,0-1.4s-1-0.4-1.4,0l-4,4V15C26,14.4,25.6,14,25,14z"/>
<linearGradient id="SVGID_4_" gradientUnits="userSpaceOnUse" x1="19.5" y1="26" x2="19.5" y2="36">
	<stop  offset="0" style="stop-color:#0385E8"/>
	<stop  offset="1" style="stop-color:#047CE0"/>
</linearGradient>
<path  fill="url(#SVGID_4_)" d="M36,26h-3c-0.6,0-1,0.4-1,1s0.4,1,1,1h2v6H4v-6h12c0.6,0,1-0.4,1-1s-0.4-1-1-1H3c-0.6,0-1,0.4-1,1v8
	c0,0.6,0.4,1,1,1h33c0.6,0,1-0.4,1-1v-8C37,26.4,36.6,26,36,26z"/>
</svg>
