<svg
    xmlns="http://www.w3.org/2000/svg"
    viewBox="0 0 24 24"
    id="vector">
    <path
        id="path"
        d="M 3.5 15 C 5.4 15 7 16.5 7 18.5 C 7 20.5 5.4 22 3.5 22 C 1.6 22 0 20.4 0 18.5 C 0 16.6 1.6 15 3.5 15 Z"
        fill="#999999"/>
    <path
        id="path_1"
        d="M 18.5 10 C 21.5 10 24 12.5 24 15.5 C 24 18.5 21.5 21 18.5 21 C 15.5 21 13 18.5 13 15.5 C 13 12.5 15.5 10 18.5 10 Z"
        fill="#777777"/>
    <path
        id="path_2"
        d="M 7.5 3 C 10 3 12 5 12 7.5 C 12 10 10 12 7.5 12 C 5 12 3 9.9 3 7.5 C 3 5.1 5 3 7.5 3 Z"
        fill="#666666"/>
</svg>
