<?xml version="1.0" encoding="utf-8"?>
<!-- Generator: Adobe Illustrator 24.0.2, SVG Export Plug-In . SVG Version: 6.00 Build 0)  -->
<svg version="1.1" id="vector" xmlns="http://www.w3.org/2000/svg" xmlns:xlink="http://www.w3.org/1999/xlink" x="0px" y="0px"
	 viewBox="0 0 32 32" style="enable-background:new 0 0 32 32;" xml:space="preserve">
<rect opacity="0.5" fill="none" width="32" height="32"/>
<path fill-rule="evenodd" clip-rule="evenodd" fill="#C2C0C2" d="M7.5,18c1.9,0,3.5,1.5,3.5,3.5S9.4,25,7.5,25S4,23.4,4,21.5S5.6,18,7.5,18z"/>
<path fill-rule="evenodd" clip-rule="evenodd" fill="#717173" d="M22.5,13c3,0,5.5,2.5,5.5,5.5S25.5,24,22.5,24S17,21.5,17,18.5S19.5,13,22.5,13z"/>
<path fill-rule="evenodd" clip-rule="evenodd" fill="#8F8F94" d="M11.5,6C14,6,16,8,16,10.5S14,15,11.5,15S7,12.9,7,10.5S9,6,11.5,6z"/>
</svg>
