<svg
    xmlns="http://www.w3.org/2000/svg"
    viewBox="0 0 32 32"
    id="vector">
    <path
        id="path"
        d="M -4 2 L -4 4"
        fill="#8e8e93"/>
    <path
        id="path_1"
        d="M 12 2 L 10 2 L 10 5 L 7 5 L 7 24 L 10 24 L 10 30 L 12 30 L 12 24 L 15 24 L 15 5 L 12 5 L 12 2 Z M 13 7 L 13 22 L 9 22 L 9 7 L 13 7 Z"
        fill="#8e8e93"/>
    <path
        id="path_2"
        d="M 22 18 L 22 2 L 20 2 L 20 18 L 17 18 L 17 24 L 20 24 L 20 30 L 22 30 L 22 24 L 25 24 L 25 18 L 22 18 Z M 23 22 L 19 22 L 19 20 L 23 20 L 23 22 Z"
        fill="#8e8e93"/>
</svg>
