<?xml version="1.0" encoding="utf-8"?>
<!-- Generator: Adobe Illustrator 24.0.2, SVG Export Plug-In . SVG Version: 6.00 Build 0)  -->
<svg version="1.1" id="vector" xmlns="http://www.w3.org/2000/svg" xmlns:xlink="http://www.w3.org/1999/xlink" x="0px" y="0px"
	 viewBox="0 0 32 32" style="enable-background:new 0 0 32 32;" xml:space="preserve">
	.st1{fill-rule:evenodd;clip-rule:evenodd;fill:#8F8F94;}
	.st2{fill-rule:evenodd;clip-rule:evenodd;fill:#C2C0C2;}
<rect opacity="0.5" fill="none" width="32" height="32"/>
<g>
	<path fill-rule="evenodd" clip-rule="evenodd" fill="#8F8F94" d="M6.5,20C7.9,20,9,21.1,9,22.5S7.9,25,6.5,25S4,23.9,4,22.5S5.1,20,6.5,20z"/>
	<path fill-rule="evenodd" clip-rule="evenodd" fill="#8F8F94" d="M12,14.5c1.4,0,2.5,1.1,2.5,2.5s-1.1,2.5-2.5,2.5S9.5,18.4,9.5,17S10.6,14.5,12,14.5z"/>
	<path fill-rule="evenodd" clip-rule="evenodd" fill="#8F8F94" d="M19,12c1.4,0,2.5,1.1,2.5,2.5S20.4,17,19,17s-2.5-1.1-2.5-2.5S17.6,12,19,12z"/>
	<path fill-rule="evenodd" clip-rule="evenodd" fill="#8F8F94" d="M25.5,14c1.4,0,2.5,1.1,2.5,2.5S26.9,19,25.5,19S23,17.9,23,16.5S24.1,14,25.5,14z"/>
</g>
<circle fill-rule="evenodd" clip-rule="evenodd" fill="#C2C0C2" cx="5.5" cy="16.5" r="1.5"/>
<circle fill-rule="evenodd" clip-rule="evenodd" fill="#C2C0C2" cx="10.5" cy="10.5" r="1.5"/>
<circle fill-rule="evenodd" clip-rule="evenodd" fill="#C2C0C2" cx="18.5" cy="8.5" r="1.5"/>
<circle fill-rule="evenodd" clip-rule="evenodd" fill="#C2C0C2" cx="25.5" cy="10.5" r="1.5"/>
</svg>
