<svg
    xmlns="http://www.w3.org/2000/svg"
    viewBox="0 0 24 24"
    id="vector">
    <path
        id="path"
        d="M 2.5 16 C 3.9 16 5 17.1 5 18.5 C 5 19.9 3.9 21 2.5 21 C 1.1 21 0 19.9 0 18.5 C 0 17.1 1.1 16 2.5 16 Z"
        fill="#666666"/>
    <path
        id="path_1"
        d="M 8 10.5 C 9.4 10.5 10.5 11.6 10.5 13 C 10.5 14.4 9.4 15.5 8 15.5 C 6.6 15.5 5.5 14.4 5.5 13 C 5.5 11.6 6.6 10.5 8 10.5 Z"
        fill="#666666"/>
    <path
        id="path_2"
        d="M 15 8 C 16.4 8 17.5 9.1 17.5 10.5 C 17.5 11.9 16.4 13 15 13 C 13.6 13 12.5 11.9 12.5 10.5 C 12.5 9.1 13.6 8 15 8 Z"
        fill="#666666"/>
    <path
        id="path_3"
        d="M 21.5 10 C 22.9 10 24 11.1 24 12.5 C 24 13.9 22.9 15 21.5 15 C 20.1 15 19 13.9 19 12.5 C 19 11.1 20.1 10 21.5 10 Z"
        fill="#666666"/>
    <path
        id="path_4"
        d="M 3 12.5 C 3 12.898 2.842 13.279 2.561 13.561 C 2.279 13.842 1.898 14 1.5 14 C 1.102 14 0.721 13.842 0.439 13.561 C 0.158 13.279 0 12.898 0 12.5 C 0 12.102 0.158 11.721 0.439 11.439 C 0.721 11.158 1.102 11 1.5 11 C 1.898 11 2.279 11.158 2.561 11.439 C 2.842 11.721 3 12.102 3 12.5 Z"
        fill="#999999"/>
    <path
        id="path_5"
        d="M 8 6.5 C 8 6.898 7.842 7.279 7.561 7.561 C 7.279 7.842 6.898 8 6.5 8 C 6.102 8 5.721 7.842 5.439 7.561 C 5.158 7.279 5 6.898 5 6.5 C 5 6.102 5.158 5.721 5.439 5.439 C 5.721 5.158 6.102 5 6.5 5 C 6.898 5 7.279 5.158 7.561 5.439 C 7.842 5.721 8 6.102 8 6.5 Z"
        fill="#999999"/>
    <path
        id="path_6"
        d="M 16 4.5 C 16 4.898 15.842 5.279 15.561 5.561 C 15.279 5.842 14.898 6 14.5 6 C 14.102 6 13.721 5.842 13.439 5.561 C 13.158 5.279 13 4.898 13 4.5 C 13 4.102 13.158 3.721 13.439 3.439 C 13.721 3.158 14.102 3 14.5 3 C 14.898 3 15.279 3.158 15.561 3.439 C 15.842 3.721 16 4.102 16 4.5 Z"
        fill="#999999"/>
    <path
        id="path_7"
        d="M 23 6.5 C 23 6.898 22.842 7.279 22.561 7.561 C 22.279 7.842 21.898 8 21.5 8 C 21.102 8 20.721 7.842 20.439 7.561 C 20.158 7.279 20 6.898 20 6.5 C 20 6.102 20.158 5.721 20.439 5.439 C 20.721 5.158 21.102 5 21.5 5 C 21.898 5 22.279 5.158 22.561 5.439 C 22.842 5.721 23 6.102 23 6.5 Z"
        fill="#999999"/>
</svg>
