<svg
    xmlns="http://www.w3.org/2000/svg"
    viewBox="0 0 32 32"
    id="vector">
    <path
        id="path"
        d="M 3 30 L 8 30 L 8 21 L 3 21 L 3 30 Z M 18 30 L 23 30 L 23 17 L 18 17 L 18 30 Z"
        fill="#8e8e93"/>
    <path
        id="path_1"
        d="M 3 2 L 8 2 L 8 21 L 3 21 Z"
        fill="#8e8e93"
        fill-opacity="0.5"/>
    <path
        id="path_2"
        d="M 18 2 L 23 2 L 23 17 L 18 17 Z"
        fill="#8e8e93"
        fill-opacity="0.5"/>
    <path
        id="path_3"
        d="M 9 13 L 14 13 L 14 30 L 9 30 Z"
        fill="#8e8e93"/>
    <path
        id="path_4"
        d="M 9 2 L 14 2 L 14 13 L 9 13 Z"
        fill="#8e8e93"
        fill-opacity="0.5"/>
    <path
        id="path_5"
        d="M 24 7 L 29 7 L 29 30 L 24 30 Z"
        fill="#8e8e93"/>
    <path
        id="path_6"
        d="M 24 2 L 29 2 L 29 7 L 24 7 Z"
        fill="#8e8e93"
        fill-opacity="0.5"/>
</svg>
