<?xml version="1.0" encoding="utf-8"?>
<!-- Generator: Adobe Illustrator 23.0.3, SVG Export Plug-In . SVG Version: 6.00 Build 0)  -->
<svg version="1.1" id="Layer_1" xmlns="http://www.w3.org/2000/svg" xmlns:xlink="http://www.w3.org/1999/xlink" x="0px" y="0px"
	 viewBox="0 0 39 39" style="enable-background:new 0 0 39 39;" xml:space="preserve">

<g id="Layer_28">
	<rect  fill="none" width="39" height="39"/>
</g>
<linearGradient id="SVGID_1_" gradientUnits="userSpaceOnUse" x1="18.5" y1="3" x2="18.5" y2="36">
	<stop  offset="0" style="stop-color:#00A0FF"/>
	<stop  offset="1" style="stop-color:#047BDF"/>
</linearGradient>
<path  fill="url(#SVGID_1_)" d="M35,3L35,3H2C1.4,3,1,3.4,1,4v31c0,0.6,0.4,1,1,1h14c0.6,0,1-0.4,1-1s-0.4-1-1-1V5h18v12c0,0.6,0.4,1,1,1l0,0
	c0.6,0,1-0.4,1-1V4C36,3.4,35.6,3,35,3z M14,34H3V5h11V34z"/>
<linearGradient id="SVGID_2_" gradientUnits="userSpaceOnUse" x1="5" y1="19" x2="12" y2="19" gradientTransform="matrix(1 0 0 -1 0 39)">
	<stop  offset="0" style="stop-color:#028DEE"/>
	<stop  offset="1" style="stop-color:#028DEE"/>
</linearGradient>
<path  fill="url(#SVGID_2_)" d="M11,19H6c-0.6,0-1,0.4-1,1s0.4,1,1,1h5c0.6,0,1-0.4,1-1S11.6,19,11,19z"/>
<linearGradient id="SVGID_3_" gradientUnits="userSpaceOnUse" x1="5" y1="24" x2="12" y2="24" gradientTransform="matrix(1 0 0 -1 0 39)">
	<stop  offset="0" style="stop-color:#0193F3"/>
	<stop  offset="1" style="stop-color:#0193F3"/>
</linearGradient>
<path  fill="url(#SVGID_3_)" d="M6,16h5c0.6,0,1-0.4,1-1s-0.4-1-1-1H6c-0.6,0-1,0.4-1,1S5.4,16,6,16z"/>
<linearGradient id="SVGID_4_" gradientUnits="userSpaceOnUse" x1="8.5" y1="30" x2="8.5" y2="28" gradientTransform="matrix(1 0 0 -1 0 39)">
	<stop  offset="0" style="stop-color:#0198F8"/>
	<stop  offset="1" style="stop-color:#0198F8"/>
</linearGradient>
<path  fill="url(#SVGID_4_)" d="M6,11h5c0.6,0,1-0.4,1-1s-0.4-1-1-1H6c-0.6,0-1,0.4-1,1S5.4,11,6,11z"/>
<path  display="none" d="M35.6,29.1c0-0.3,0.1-0.6,0.1-1s0-0.7-0.1-1l2.1-1.6c0.2-0.1,0.2-0.4,0.1-0.6l-2-3.5c-0.1-0.2-0.3-0.3-0.4-0.3
	c-0.1,0-0.1,0-0.2,0l-2.5,1c-0.5-0.4-1.1-0.7-1.7-1l-0.4-2.6c0-0.2-0.2-0.4-0.5-0.4h-4c-0.3,0-0.5,0.2-0.5,0.4l-0.4,2.6
	c-0.6,0.3-1.2,0.6-1.7,1l-2.5-1c-0.1,0-0.1,0-0.2,0c-0.2,0-0.3,0.1-0.4,0.3l-2,3.5c-0.1,0.2-0.1,0.5,0.1,0.6l2.1,1.7
	c0,0.3-0.1,0.6-0.1,1c0,0.3,0,0.7,0.1,1l-2.1,1.6c-0.2,0.1-0.2,0.4-0.1,0.6l2,3.5c0.1,0.2,0.3,0.3,0.4,0.3s0.1,0,0.2,0l2.5-1
	c0.5,0.4,1.1,0.7,1.7,1l0.4,2.6c0,0.2,0.2,0.4,0.5,0.4h4c0.3,0,0.5-0.2,0.5-0.4L31,35c0.6-0.3,1.2-0.6,1.7-1l2.5,1
	c0.1,0,0.1,0,0.2,0c0.2,0,0.3-0.1,0.4-0.3l2-3.5c0.1-0.2,0.1-0.5-0.1-0.6L35.6,29.1z M33.6,27.4c0,0.3,0,0.5,0,0.7s0,0.4,0,0.7
	L33.5,30l0.9,0.7l1.1,0.8l-0.7,1.2l-1.3-0.5l-1-0.4l-0.9,0.7c-0.4,0.3-0.8,0.6-1.3,0.7l-1.1,0.4L29,34.8l-0.2,1.3h-1.4l-0.2-1.3
	L27,33.7l-1-0.5c-0.4-0.2-0.8-0.4-1.2-0.7l-0.9-0.7l-1.1,0.4l-1.3,0.5l-0.7-1.2l1.1-0.8l0.9-0.7l-0.1-1.1c0-0.3,0-0.5,0-0.7
	s0-0.4,0-0.7l0.1-1.1l-0.9-0.7l-1.1-0.8l0.7-1.2l1.3,0.5l1,0.4l0.9-0.7c0.4-0.3,0.8-0.6,1.3-0.7l1.1-0.4l0.2-1.1l0.2-1.4h1.4
	l0.2,1.4l0.2,1.1l1.1,0.4c0.4,0.2,0.8,0.4,1.2,0.7l0.9,0.7l1.1-0.4l1.3-0.5l0.7,1.2l-1.1,0.9l-0.9,0.7
	C33.5,26.2,33.6,27.4,33.6,27.4z M28.8,24.1c-2.7-0.4-5,1.9-4.6,4.6c0.3,1.7,1.6,3.1,3.3,3.3c2.7,0.4,5-1.9,4.6-4.6
	C31.8,25.8,30.5,24.4,28.8,24.1z M28.1,30.1c-1.1,0-2-0.9-2-2s0.9-2,2-2s2,0.9,2,2S29.2,30.1,28.1,30.1z"/>
<linearGradient id="SVGID_5_" gradientUnits="userSpaceOnUse" x1="28.1" y1="20.9" x2="28.1" y2="0.9" gradientTransform="matrix(1 0 0 -1 0 39)">
	<stop  offset="0" style="stop-color:#0290F1"/>
	<stop  offset="1" style="stop-color:#047BDF"/>
</linearGradient>
<path  fill="url(#SVGID_5_)" d="M35.6,29.1c0-0.3,0.1-0.6,0.1-1s0-0.7-0.1-1l2.1-1.6c0.2-0.1,0.2-0.4,0.1-0.6l-2-3.5c-0.1-0.2-0.3-0.3-0.4-0.3
	c-0.1,0-0.1,0-0.2,0l-2.5,1c-0.5-0.4-1.1-0.7-1.7-1l-0.4-2.6c0-0.2-0.2-0.4-0.5-0.4h-4c-0.3,0-0.5,0.2-0.5,0.4l-0.4,2.6
	c-0.6,0.3-1.2,0.6-1.7,1l-2.5-1c-0.1,0-0.1,0-0.2,0c-0.2,0-0.3,0.1-0.4,0.3l-2,3.5c-0.1,0.2-0.1,0.5,0.1,0.6l2.1,1.7
	c0,0.3-0.1,0.6-0.1,1c0,0.3,0,0.7,0.1,1l-2.1,1.6c-0.2,0.1-0.2,0.4-0.1,0.6l2,3.5c0.1,0.2,0.3,0.3,0.4,0.3s0.1,0,0.2,0l2.5-1
	c0.5,0.4,1.1,0.7,1.7,1l0.4,2.6c0,0.2,0.2,0.4,0.5,0.4h4c0.3,0,0.5-0.2,0.5-0.4L31,35c0.6-0.3,1.2-0.6,1.7-1l2.5,1
	c0.1,0,0.1,0,0.2,0c0.2,0,0.3-0.1,0.4-0.3l2-3.5c0.1-0.2,0.1-0.5-0.1-0.6L35.6,29.1z M33.6,27.4c0,0.3,0,0.5,0,0.7s0,0.4,0,0.7
	L33.5,30l0.9,0.7l1.1,0.8l-0.7,1.2l-1.3-0.5l-1-0.4l-0.9,0.7c-0.4,0.3-0.8,0.6-1.3,0.7l-1.1,0.4L29,34.8l-0.2,1.3h-1.4l-0.2-1.3
	L27,33.7l-1-0.5c-0.4-0.2-0.8-0.4-1.2-0.7l-0.9-0.7l-1.1,0.4l-1.3,0.5l-0.7-1.2l1.1-0.8l0.9-0.7l-0.1-1.1c0-0.3,0-0.5,0-0.7
	s0-0.4,0-0.7l0.1-1.1l-0.9-0.7l-1.1-0.8l0.7-1.2l1.3,0.5l1,0.4l0.9-0.7c0.4-0.3,0.8-0.6,1.3-0.7l1.1-0.4l0.2-1.1l0.2-1.4h1.4
	l0.2,1.4l0.2,1.1l1.1,0.4c0.4,0.2,0.8,0.4,1.2,0.7l0.9,0.7l1.1-0.4l1.3-0.5l0.7,1.2l-1.1,0.9l-0.9,0.7
	C33.5,26.2,33.6,27.4,33.6,27.4z M28.8,24.1c-2.7-0.4-5,1.9-4.6,4.6c0.3,1.7,1.6,3.1,3.3,3.3c2.7,0.4,5-1.9,4.6-4.6
	C31.8,25.8,30.5,24.4,28.8,24.1z M28.1,30.1c-1.1,0-2-0.9-2-2s0.9-2,2-2s2,0.9,2,2S29.2,30.1,28.1,30.1z"/>
</svg>
