<?xml version="1.0" encoding="utf-8"?>
<svg version="1.1" id="Layer_1" xmlns="http://www.w3.org/2000/svg" xmlns:xlink="http://www.w3.org/1999/xlink" x="0px" y="0px"
	 viewBox="0 0 24 24" style="enable-background:new 0 0 24 24;" xml:space="preserve">
<path fill="none" d="M0,0h24v24H0V0z"/>
<path display="none" d="M12,2C6.5,2,2,6.5,2,12s4.5,10,10,10s10-4.5,10-10S17.5,2,12,2z M12,20c-4.4,0-8-3.6-8-8s3.6-8,8-8s8,3.6,8,8
	S16.4,20,12,20z"/>
<g>
	<path fill="#E7E7E7" d="M10.9,2.1C6.2,2.6,2.5,6.3,2,11c-0.5,4.9,2.6,9.2,6.9,10.5c0.3,0.1,0.6-0.1,0.6-0.4v-1.9
		c-0.5,0.1-1.4,0.2-2.3-0.1c-1.3-0.5-1.1-1.8-2.1-2.5c-0.4-0.3-0.5-0.4-0.4-0.6c0.1-0.2,0.8-0.1,1.2,0.2C6.8,16.7,6.6,17.6,8,18
		c0.6,0.2,1.2-0.1,1.5-0.3c0.1-0.5,0.3-0.9,0.7-1.3c-3.4-0.3-4.6-2.3-4.6-4.8c0-1.1,0.4-2.1,1-2.8c0-0.2-0.2-0.8-0.1-1.5
		s0.3-1.2,0.3-1.2s0.9,0,1.5,0.3C8.8,6.6,9.4,7,9.5,7.1c0.7-0.2,1.5-0.3,2.3-0.3h0.5c0.8,0,1.6,0.1,2.4,0.3c0.1-0.1,0.7-0.5,1.2-0.7
		c0.6-0.3,1.4-0.3,1.5-0.3c0,0,0.2,0.5,0.3,1.2c0.1,0.7-0.1,1.2-0.2,1.4c0.6,0.7,1,1.7,1,2.9c0,2.9-1.5,4.5-4.6,4.8
		c0.4,0.4,0.7,1,0.7,1.5v3.2c0,0.3,0.3,0.5,0.6,0.4c4-1.3,6.9-5.1,6.9-9.5C22,6.1,16.9,1.4,10.9,2.1z"/>
</g>
</svg>
