<?xml version="1.0" encoding="UTF-8" standalone="no"?>
<svg
   xmlns:dc="http://purl.org/dc/elements/1.1/"
   xmlns:cc="http://creativecommons.org/ns#"
   xmlns:rdf="http://www.w3.org/1999/02/22-rdf-syntax-ns#"
   xmlns:svg="http://www.w3.org/2000/svg"
   xmlns="http://www.w3.org/2000/svg"
   xml:space="preserve"
   style="enable-background:new 0 0 304 212.4;"
   viewBox="0 0 304 212.4"
   y="0px"
   x="0px"
   id="Layer_1"
   version="1.1"><metadata
   id="metadata494"><rdf:RDF><cc:Work
       rdf:about=""><dc:format>image/svg+xml</dc:format><dc:type
         rdf:resource="http://purl.org/dc/dcmitype/StillImage" /><dc:title></dc:title></cc:Work></rdf:RDF></metadata><defs
   id="defs492" />

<rect
   id="rect253"
   height="212.4"
   width="304"
   fill="#3D3D3D" />

<g
   id="g409">
	
		<radialGradient
   gradientUnits="userSpaceOnUse"
   gradientTransform="matrix(1 0 0 1 0 -754.2444)"
   r="198.5359"
   cy="798.1615"
   cx="65.7424"
   id="SVGID_1_">
		<stop
   id="stop256"
   style="stop-color:#000000"
   offset="0.1531" />
		<stop
   id="stop258"
   style="stop-color:#070707"
   offset="0.4493" />
		<stop
   id="stop260"
   style="stop-color:#1C1C1B"
   offset="0.8943" />
		<stop
   id="stop262"
   style="stop-color:#222221"
   offset="1" />
	</radialGradient>
	<polygon
   id="polygon265"
   points="173.6,44.2 145.3,0 100.7,111.6  "
   fill="url(#SVGID_1_)" />
	
		<radialGradient
   gradientUnits="userSpaceOnUse"
   gradientTransform="matrix(1 0 0 1 0 -754.2444)"
   r="200.4453"
   cy="956.8811"
   cx="216.1083"
   id="SVGID_2_">
		<stop
   id="stop267"
   style="stop-color:#000000"
   offset="0.1531" />
		<stop
   id="stop269"
   style="stop-color:#070707"
   offset="0.4493" />
		<stop
   id="stop271"
   style="stop-color:#1C1C1B"
   offset="0.8943" />
		<stop
   id="stop273"
   style="stop-color:#222221"
   offset="1" />
	</radialGradient>
	<polygon
   id="polygon276"
   points="162.2,130 256.2,144.4 173.6,44.2  "
   fill="url(#SVGID_2_)" />
	<polygon
   id="polygon278"
   points="174.6,0 145.3,0 173.6,44.2  "
   fill="#151515" />
	<polygon
   id="polygon280"
   points="100.7,111.6 74.6,0 63.5,0 13,51.8  "
   fill="#050505" />
	<linearGradient
   y2="55.8"
   x2="145.3"
   y1="55.8"
   x1="74.6"
   gradientUnits="userSpaceOnUse"
   id="SVGID_3_">
		<stop
   id="stop282"
   style="stop-color:#1C1C1C"
   offset="5.569535e-02" />
		<stop
   id="stop284"
   style="stop-color:#1C1C1C"
   offset="0.4069" />
		<stop
   id="stop286"
   style="stop-color:#060606"
   offset="1" />
	</linearGradient>
	<polygon
   id="polygon289"
   points="145.3,0 74.6,0 100.7,111.6  "
   fill="url(#SVGID_3_)" />
	
		<linearGradient
   gradientTransform="matrix(1 0 0 1 0 -754.2444)"
   y2="776.3444"
   x2="248.9954"
   y1="776.3444"
   x1="152.3954"
   gradientUnits="userSpaceOnUse"
   id="SVGID_4_">
		<stop
   id="stop291"
   style="stop-color:#050505"
   offset="9.881755e-02" />
		<stop
   id="stop293"
   style="stop-color:#161616"
   offset="1" />
	</linearGradient>
	<polygon
   id="polygon296"
   points="270.1,42 210.9,0 174.6,0 173.5,44.2  "
   fill="url(#SVGID_4_)" />
	
		<radialGradient
   gradientUnits="userSpaceOnUse"
   gradientTransform="matrix(1 0 0 1 0 -754.2444)"
   r="266.8425"
   cy="815.9517"
   cx="-63.755"
   id="SVGID_5_">
		<stop
   id="stop298"
   style="stop-color:#000000"
   offset="0.1531" />
		<stop
   id="stop300"
   style="stop-color:#070707"
   offset="0.2413" />
		<stop
   id="stop302"
   style="stop-color:#1C1C1B"
   offset="0.6368" />
		<stop
   id="stop304"
   style="stop-color:#222221"
   offset="1" />
	</radialGradient>
	<polygon
   id="polygon307"
   points="13,51.8 0,114.1 0,124 100.7,111.6  "
   fill="url(#SVGID_5_)" />
	<polygon
   id="polygon309"
   points="122.8,212.4 180.1,212.4 162.2,130  "
   fill="#0A0A0A" />
	<polygon
   id="polygon311"
   points="162.2,130 180.1,212.4 199.6,212.4 256.2,144.4  "
   fill="#141414" />
	
		<radialGradient
   gradientUnits="userSpaceOnUse"
   gradientTransform="matrix(0.9932 0.1161 -7.793730e-02 0.667 65.5006 -506.5012)"
   fy="839.1425"
   fx="193.9877"
   r="144.7664"
   cy="821.2241"
   cx="221.4891"
   id="SVGID_6_">
		<stop
   id="stop313"
   style="stop-color:#171717"
   offset="0.1196" />
		<stop
   id="stop315"
   style="stop-color:#070707"
   offset="0.4493" />
		<stop
   id="stop317"
   style="stop-color:#1C1C1B"
   offset="0.8943" />
	</radialGradient>
	<polygon
   id="polygon320"
   points="256.2,144.4 270.1,41.9 173.6,44.2  "
   fill="url(#SVGID_6_)" />
	<linearGradient
   y2="106.267"
   x2="139.0713"
   y1="186.7002"
   x1="99.6415"
   gradientUnits="userSpaceOnUse"
   id="SVGID_7_">
		<stop
   id="stop322"
   style="stop-color:#1A1A1A"
   offset="0.1162" />
		<stop
   id="stop324"
   style="stop-color:#060606"
   offset="0.906" />
	</linearGradient>
	<polygon
   id="polygon327"
   points="100.7,111.6 104.4,212.4 122.8,212.4 162.2,130  "
   fill="url(#SVGID_7_)" />
	
		<radialGradient
   gradientUnits="userSpaceOnUse"
   gradientTransform="matrix(1 0 0 1 0 -754.2444)"
   r="136.0871"
   cy="934.4931"
   cx="82.6124"
   id="SVGID_8_">
		<stop
   id="stop329"
   style="stop-color:#000000"
   offset="0.1531" />
		<stop
   id="stop331"
   style="stop-color:#070707"
   offset="0.4493" />
		<stop
   id="stop333"
   style="stop-color:#1C1C1B"
   offset="0.8943" />
		<stop
   id="stop335"
   style="stop-color:#222221"
   offset="1" />
	</radialGradient>
	<polygon
   id="polygon338"
   points="2.5,199.7 29.6,212.4 104.5,212.4 100.7,111.6  "
   fill="url(#SVGID_8_)" />
	
		<linearGradient
   gradientTransform="matrix(1 0 0 1 0 -754.2444)"
   y2="898.9655"
   x2="106.5265"
   y1="916.5414"
   x1="3.9362"
   gradientUnits="userSpaceOnUse"
   id="SVGID_9_">
		<stop
   id="stop340"
   style="stop-color:#1C1C1C"
   offset="0.205" />
		<stop
   id="stop342"
   style="stop-color:#010101"
   offset="0.9971" />
	</linearGradient>
	<polygon
   id="polygon345"
   points="100.7,111.6 0,124 0,159 0,201.9  "
   fill="url(#SVGID_9_)" />
	<polygon
   id="polygon347"
   points="0,159 0,199.4 2.5,199.7  "
   fill="#181818" />
	
		<linearGradient
   gradientTransform="matrix(1 0 0 1 0 -754.2444)"
   y2="847.4444"
   x2="306.5538"
   y1="847.4444"
   x1="258.7538"
   gradientUnits="userSpaceOnUse"
   id="SVGID_10_">
		<stop
   id="stop349"
   style="stop-color:#151515"
   offset="0" />
		<stop
   id="stop351"
   style="stop-color:#010101"
   offset="1" />
	</linearGradient>
	<polygon
   id="polygon354"
   points="256.2,144.4 304,131.7 304,62.6 270.1,42  "
   fill="url(#SVGID_10_)" />
	
		<linearGradient
   gradientTransform="matrix(1 0 0 1 0 -754.2444)"
   y2="961.608"
   x2="304.0109"
   y1="962.0081"
   x1="303.2661"
   gradientUnits="userSpaceOnUse"
   id="SVGID_11_">
		<stop
   id="stop356"
   style="stop-color:#0D0D0D"
   offset="0" />
		<stop
   id="stop358"
   style="stop-color:#0A0A0A"
   offset="0.1972" />
		<stop
   id="stop360"
   style="stop-color:#010101"
   offset="1" />
	</linearGradient>
	<polygon
   id="polygon363"
   points="304,208.2 304,207.2 303.7,206.7 303.7,208.2  "
   fill="url(#SVGID_11_)" />
	
		<linearGradient
   gradientTransform="matrix(1 0 0 1 0 -754.2444)"
   y2="930.7988"
   x2="279.4764"
   y1="976.9805"
   x1="193.4839"
   gradientUnits="userSpaceOnUse"
   id="SVGID_12_">
		<stop
   id="stop365"
   style="stop-color:#0D0D0D"
   offset="0" />
		<stop
   id="stop367"
   style="stop-color:#0A0A0A"
   offset="0.1972" />
		<stop
   id="stop369"
   style="stop-color:#010101"
   offset="1" />
	</linearGradient>
	<polygon
   id="polygon372"
   points="303.7,206.7 256.2,144.4 199.6,212.4 282.1,212.4 303.7,208.2  "
   fill="url(#SVGID_12_)" />
	<polygon
   id="polygon374"
   points="304,208.2 303.7,208.2 303.7,212.4 304,210.7  "
   fill="#040404" />
	<polygon
   id="polygon376"
   points="304,208.2 282.1,212.4 304,212.4 304,212.4  "
   fill="#040404" />
	<polygon
   id="polygon378"
   points="294.8,0 210.9,0 270.1,41.9  "
   fill="#111111" />
	<polygon
   id="polygon380"
   points="304,19.7 304,0 294.8,0 270.1,41.9  "
   fill="#080808" />
	<polygon
   id="polygon382"
   points="0,57 0,114.1 13,51.8  "
   fill="#0E0E0E" />
	<polygon
   id="polygon384"
   points="0,49.3 0,57 13,51.8  "
   fill="#111111" />
	<polygon
   id="polygon386"
   points="4.2,212.4 29.5,212.4 2.4,199.7  "
   fill="#080808" />
	<polygon
   id="polygon388"
   points="0,38.7 0,49.3 13,51.8  "
   fill="#0C0C0C" />
	<path
   id="path390"
   d="M63.6,0H0v38.7c4.3,4.4,8.7,8.8,13,13.2C29.9,34.5,46.7,17.3,63.6,0z"
   fill="#111111" />
	<polygon
   id="polygon392"
   points="256.2,144.4 304,207.2 304,131.7  "
   fill="#0A0A0A" />
	<polygon
   id="polygon394"
   points="0,199.4 0,212.4 4.3,212.4 2.5,199.7  "
   fill="#121212" />
	<polygon
   id="polygon396"
   points="270.1,41.9 304,62.6 304,49.5  "
   fill="#121212" />
	<polygon
   id="polygon398"
   points="304,49.5 304,19.7 270.1,41.9  "
   fill="#0E0E0E" />
	
		<linearGradient
   gradientTransform="matrix(1 0 0 1 0 -754.2444)"
   y2="966.6444"
   x2="303.7"
   y1="966.6444"
   x1="303.7"
   gradientUnits="userSpaceOnUse"
   id="SVGID_13_">
		<stop
   id="stop400"
   style="stop-color:#151515"
   offset="0" />
		<stop
   id="stop402"
   style="stop-color:#010101"
   offset="1" />
	</linearGradient>
	<path
   id="path405"
   d="M303.7,212.4L303.7,212.4L303.7,212.4z"
   fill="url(#SVGID_13_)" />
	<polygon
   id="polygon407"
   points="162.2,130 173.6,44.2 100.7,111.6  "
   fill="#161616" />
</g>
<g
   id="g489">
	<g
   id="g449">
		<path
   id="path411"
   d="M56,148.8c-1.9,0-4.1,0-5.7,0.2c-0.3,0-0.3,0.1-0.3,0.3V164c0,0.3,0.1,0.3,0.3,0.3c1.6,0.1,3.9,0.2,5.7,0.2    c4.6,0,6.4-2.3,6.4-7.9C62.4,151.2,60.6,148.8,56,148.8z M56,162.3h-3.4v-11.1h3.1c3,0,4.1,1.7,4.1,5.6    C59.8,160.6,58.8,162.3,56,162.3z"
   fill="#E7E7E7" />
		<path
   id="path413"
   d="M69.2,153.1c-4,0-4.8,1.1-4.8,5.7c0,4.6,0.9,5.7,4.8,5.7c1.3,0,2.5-0.1,3.6-0.3c0.2,0,0.3-0.1,0.3-0.3v-1.3    c0-0.2-0.1-0.3-0.3-0.3h-3.5c-1.9,0-2.4-0.5-2.5-2.6h6.4c0.6,0,0.7-0.2,0.7-0.5v-0.6C73.9,154.2,73,153.1,69.2,153.1z M66.8,158    c0-2.2,0.5-2.8,2.4-2.8c1.8,0,2.3,0.6,2.3,2.8H66.8z"
   fill="#E7E7E7" />
		<path
   id="path415"
   d="M85.2,153.3h-2c-0.2,0-0.2,0.1-0.3,0.3l-2,8.1c-0.2,0.7-0.3,0.8-0.7,0.8c-0.3,0-0.4-0.1-0.6-0.8l-2.1-8.1    c-0.1-0.3-0.1-0.3-0.3-0.3h-2c-0.3,0-0.3,0.1-0.3,0.3l2.4,8.6c0.6,2.1,0.8,2.4,2.9,2.4c2.3,0,2.4-0.3,3-2.4l2.3-8.6    C85.5,153.3,85.5,153.3,85.2,153.3z"
   fill="#E7E7E7" />
		<path
   id="path417"
   d="M97.6,149h-9.8c-0.2,0-0.3,0.1-0.3,0.3v14.9c0,0.2,0.1,0.3,0.3,0.3h9.8c0.2,0,0.3-0.1,0.3-0.3v-1.7    c0-0.2-0.1-0.3-0.3-0.3h-7.5V158h6.8c0.2,0,0.3-0.1,0.3-0.3V156c0-0.2-0.1-0.3-0.3-0.3h-6.8v-4.6h7.5c0.2,0,0.3-0.1,0.3-0.3V149    C98,149,97.9,149,97.6,149z"
   fill="#E7E7E7" />
		<path
   id="path419"
   d="M106,158.5l3.5-5c0.2-0.2,0.1-0.3-0.2-0.3H107c-0.2,0-0.3,0.1-0.3,0.2l-2.2,3.2l-2.2-3.2    c-0.1-0.1-0.2-0.2-0.3-0.2h-2.3c-0.3,0-0.3,0.2-0.2,0.3l3.5,5l-3.9,5.6c-0.2,0.2-0.1,0.3,0.2,0.3h2.3c0.1,0,0.3-0.1,0.3-0.2    l2.6-3.8l2.6,3.8c0.1,0.1,0.2,0.2,0.3,0.2h2.3c0.3,0,0.3-0.2,0.2-0.3L106,158.5z"
   fill="#E7E7E7" />
		<path
   id="path421"
   d="M116.1,153.1c-1.4,0-2.6,0.1-4.3,0.3c-0.3,0-0.4,0.2-0.4,0.4v14.3c0,0.3,0.1,0.3,0.3,0.3h1.9    c0.2,0,0.3-0.1,0.3-0.3v-3.7c0.8,0.1,1.6,0.1,2.5,0.1c3.7,0,4.6-1.2,4.6-5.8C121.1,154.3,120.2,153.1,116.1,153.1z M116,162.4    c-0.7,0-1.5,0-2.2-0.1v-7h2.3c2.3,0,2.4,0.8,2.4,3.5C118.6,161.7,118.4,162.4,116,162.4z"
   fill="#E7E7E7" />
		<path
   id="path423"
   d="M129.2,153.4c-0.5-0.2-1.9-0.3-2.4-0.3c-1.5,0-3.5,0.2-3.5,2.6v8.4c0,0.2,0.1,0.3,0.3,0.3h1.9    c0.2,0,0.3-0.1,0.3-0.3v-7.8c0-0.9,0.3-1.1,1.6-1.1h1.9c0.3,0,0.3-0.1,0.3-0.3v-1.3C129.5,153.5,129.5,153.4,129.2,153.4z"
   fill="#E7E7E7" />
		<path
   id="path425"
   d="M135.6,153.1c-4,0-4.8,1.1-4.8,5.7c0,4.6,0.9,5.7,4.8,5.7c1.3,0,2.5-0.1,3.6-0.3c0.2,0,0.3-0.1,0.3-0.3v-1.3    c0-0.2-0.1-0.3-0.3-0.3h-3.5c-1.9,0-2.4-0.5-2.5-2.6h6.4c0.6,0,0.7-0.2,0.7-0.5v-0.6C140.3,154.2,139.4,153.1,135.6,153.1z     M133.3,158c0-2.2,0.5-2.8,2.4-2.8c1.8,0,2.3,0.6,2.3,2.8H133.3z"
   fill="#E7E7E7" />
		<path
   id="path427"
   d="M148.4,158.5l-2.6-1c-0.8-0.3-1.1-0.7-1.1-1.2V156c0-0.6,0.5-0.9,1.4-0.9h3.7c0.3,0,0.3-0.1,0.3-0.3v-1.1    c0-0.2-0.1-0.3-0.3-0.3c-1.2-0.2-2.3-0.3-3.1-0.3c-2.5,0-4.4,0.5-4.4,2.7v0.4c0,1.2,0.4,2.4,2,3l2.7,1c0.9,0.3,1.2,0.7,1.2,1.2    v0.2c0,0.7-0.4,0.8-1.8,0.8h-4c-0.3,0-0.3,0.1-0.3,0.3v1.3c0,0.2,0.1,0.3,0.3,0.3c0.7,0.1,2.2,0.2,4,0.2c2.6,0,4.2-0.5,4.2-2.9    v-0.3C150.4,160.2,150.1,159.2,148.4,158.5z"
   fill="#E7E7E7" />
		<path
   id="path429"
   d="M158.3,158.5l-2.6-1c-0.8-0.3-1.1-0.7-1.1-1.2V156c0-0.6,0.5-0.9,1.4-0.9h3.7c0.3,0,0.3-0.1,0.3-0.3v-1.1    c0-0.2-0.1-0.3-0.3-0.3c-1.2-0.2-2.3-0.3-3.1-0.3c-2.5,0-4.4,0.5-4.4,2.7v0.4c0,1.2,0.4,2.4,2,3l2.7,1c0.9,0.3,1.2,0.7,1.2,1.2    v0.2c0,0.7-0.4,0.8-1.8,0.8h-4c-0.3,0-0.3,0.1-0.3,0.3v1.3c0,0.2,0.1,0.3,0.3,0.3c0.7,0.1,2.2,0.2,4,0.2c2.6,0,4.2-0.5,4.2-2.9    v-0.3C160.4,160.2,160.1,159.2,158.3,158.5z"
   fill="#E7E7E7" />
		<path
   id="path431"
   d="M182.4,149h-2c-0.6,0-0.8,0.2-1,0.8l-4.1,10.7l-4.1-10.7c-0.3-0.6-0.4-0.8-1-0.8h-2c-0.2,0-0.3,0.1-0.3,0.3    l-1.4,14.9c0,0.3,0.1,0.3,0.3,0.3h2c0.2,0,0.3-0.1,0.3-0.3l0.9-10.6l4.1,10.2c0.1,0.2,0.2,0.3,0.4,0.3h1.7c0.2,0,0.3-0.1,0.4-0.3    l4.1-10.2l0.9,10.6c0,0.3,0.1,0.3,0.3,0.3h2c0.2,0,0.3-0.1,0.3-0.3l-1.4-14.9C182.7,149,182.6,149,182.4,149z"
   fill="#E7E7E7" />
		<path
   id="path433"
   d="M190.8,153.1c-4.1,0-4.9,1.1-4.9,5.7c0,4.6,0.8,5.7,4.9,5.7c4.1,0,5-1.1,5-5.7    C195.8,154.3,194.9,153.1,190.8,153.1z M190.8,162.4c-2.2,0-2.4-0.7-2.4-3.5c0-2.9,0.3-3.5,2.4-3.5c2.1,0,2.4,0.7,2.4,3.5    C193.4,161.7,193,162.4,190.8,162.4z"
   fill="#E7E7E7" />
		<path
   id="path435"
   d="M203.2,153.1c-1,0-1.9,0-2.6,0.1v-4c0-0.3-0.1-0.3-0.3-0.3h-1.9c-0.2,0-0.3,0.1-0.3,0.3v14.5    c0,0.3,0.2,0.4,0.4,0.4c1.7,0.3,2.9,0.3,4.3,0.3c4.1,0,5-1.2,5-5.7C207.7,154.4,206.9,153.1,203.2,153.1z M202.8,162.4    c-0.7,0-1.5-0.1-2.3-0.2v-7h2.2c2.3,0,2.5,0.7,2.5,3.5S205.1,162.4,202.8,162.4z"
   fill="#E7E7E7" />
		<path
   id="path437"
   d="M211.3,148.6c-0.9,0-1.5,0.5-1.5,1.4s0.5,1.4,1.5,1.4s1.4-0.5,1.4-1.4S212.2,148.6,211.3,148.6z"
   fill="#E7E7E7" />
		<path
   id="path439"
   d="M212.2,153.3h-1.9c-0.2,0-0.3,0.1-0.3,0.3v10.6c0,0.2,0.1,0.3,0.3,0.3h1.9c0.2,0,0.3-0.1,0.3-0.3v-10.6    C212.5,153.4,212.4,153.3,212.2,153.3z"
   fill="#E7E7E7" />
		<path
   id="path441"
   d="M217.3,149h-1.9c-0.2,0-0.3,0.1-0.3,0.3v14.9c0,0.2,0.1,0.3,0.3,0.3h1.9c0.2,0,0.3-0.1,0.3-0.3v-14.9    C217.6,149,217.4,149,217.3,149z"
   fill="#E7E7E7" />
		<path
   id="path443"
   d="M224.7,153.1c-4,0-4.8,1.1-4.8,5.7c0,4.6,0.9,5.7,4.8,5.7c1.3,0,2.5-0.1,3.6-0.3c0.2,0,0.3-0.1,0.3-0.3v-1.3    c0-0.2-0.1-0.3-0.3-0.3h-3.5c-1.9,0-2.4-0.5-2.5-2.6h6.4c0.6,0,0.7-0.2,0.7-0.5v-0.6C229.4,154.2,228.5,153.1,224.7,153.1z     M222.3,158c0-2.2,0.5-2.8,2.4-2.8c1.8,0,2.3,0.6,2.3,2.8H222.3z"
   fill="#E7E7E7" />
		<path
   id="path445"
   d="M248.1,149h-2c-0.3,0-0.3,0.1-0.3,0.3v7.5c0,4.5-0.8,5.6-3.6,5.6s-3.6-1.1-3.6-5.6v-7.5    c0-0.3-0.1-0.3-0.3-0.3h-2c-0.3,0-0.3,0.1-0.3,0.3v7.5c0,6.2,1.3,7.9,6.2,7.9c5,0,6.2-1.5,6.2-7.9v-7.5    C248.4,149,248.4,149,248.1,149z"
   fill="#E7E7E7" />
		<path
   id="path447"
   d="M253.7,149h-2c-0.2,0-0.3,0.1-0.3,0.3v14.9c0,0.3,0.1,0.3,0.3,0.3h2c0.2,0,0.3-0.1,0.3-0.3v-14.9    C254,149,253.9,149,253.7,149z"
   fill="#E7E7E7" />
	</g>
	<g
   id="g485">
		<path
   id="path451"
   d="M100.2,179.3c-0.3-0.1-0.8-0.1-1.2-0.1c-0.8,0-2,0.1-2,1.6v1.4h-1c-0.2,0-0.2,0.1-0.2,0.2v0.7    c0,0.2,0.1,0.2,0.2,0.2h0.9v6.2c0,0.2,0.1,0.2,0.2,0.2H98c0.2,0,0.2-0.1,0.2-0.2v-6.2h1.6c0.1,0,0.2-0.1,0.3-0.2l0.1-0.7    c0-0.2,0-0.3-0.2-0.3h-1.7v-1c0-0.7,0.3-0.8,1.1-0.8h0.8c0.2,0,0.2-0.1,0.2-0.2v-0.6C100.3,179.4,100.3,179.4,100.2,179.3z"
   fill="#E7E7E7" />
		<path
   id="path453"
   d="M104.1,182c-2.6,0-3.1,0.8-3.1,3.8s0.5,3.8,3.1,3.8s3.1-0.8,3.1-3.8C107.2,182.7,106.7,182,104.1,182z     M104.1,188.4c-1.7,0-1.9-0.5-1.9-2.6s0.2-2.6,1.9-2.6c1.6,0,1.9,0.5,1.9,2.6C105.9,187.9,105.7,188.4,104.1,188.4z"
   fill="#E7E7E7" />
		<path
   id="path455"
   d="M112.5,182.1c-0.3-0.1-1.2-0.2-1.5-0.2c-0.8,0-2.1,0.1-2.1,1.6v5.7c0,0.2,0.1,0.2,0.2,0.2h0.8    c0.2,0,0.2-0.1,0.2-0.2v-5.4c0-0.6,0.3-0.8,1.2-0.8h1.2c0.2,0,0.3-0.1,0.3-0.2v-0.5C112.6,182.2,112.6,182.2,112.5,182.1z"
   fill="#E7E7E7" />
		<path
   id="path457"
   d="M120.8,184.2l3-4.6c0.1-0.2,0.1-0.3-0.2-0.3h-1c-0.3,0-0.3,0.1-0.3,0.3l-2.4,3.5l-2.4-3.5    c-0.1-0.2-0.2-0.3-0.3-0.3h-1c-0.2,0-0.3,0.1-0.2,0.3l3.1,4.6l-3.4,5.1c-0.2,0.3,0,0.3,0.2,0.3h1c0.2,0,0.3-0.1,0.3-0.3l2.6-4    l2.6,4c0.1,0.2,0.2,0.3,0.3,0.3h1c0.2,0,0.3-0.1,0.2-0.3L120.8,184.2z"
   fill="#E7E7E7" />
		<path
   id="path459"
   d="M127.6,182c-0.6,0-1.3,0-2,0.2c-0.2,0-0.2,0.1-0.2,0.3v0.6c0,0.2,0,0.2,0.2,0.2h2c1.3,0,1.8,0.3,1.8,1.2v0.9    h-2.2c-1.5,0-2.4,0.4-2.4,2.1c0,1.8,0.8,2.2,2.6,2.2c1.4,0,2.5-0.1,3-0.3c0.3-0.1,0.3-0.3,0.3-0.3v-4.7    C130.6,182.7,129.7,182,127.6,182z M129.4,188.2c-0.5,0.2-1.4,0.2-1.7,0.2c-1.1,0-1.5-0.2-1.5-1.1c0-0.8,0.4-1,1.1-1h2.1V188.2z"
   fill="#E7E7E7" />
		<path
   id="path461"
   d="M139.3,182c-0.6,0-1.5,0.2-2.2,0.4c-0.5-0.3-1.4-0.4-2.3-0.4c-0.6,0-1.5,0.1-2.3,0.3c-0.2,0-0.2,0.1-0.2,0.3    v6.8c0,0.2,0.1,0.2,0.2,0.2h0.9c0.2,0,0.2-0.1,0.2-0.2v-6.2h1.4c1.3,0,1.7,0.1,1.7,2v4.1c0,0.2,0.1,0.2,0.2,0.2h0.9    c0.1,0,0.2,0,0.2-0.2v-4.1c0-0.8-0.1-1.4-0.3-1.9c0.4-0.1,1-0.1,1.6-0.1c1.3,0,1.7,0.1,1.7,2.1v4c0,0.2,0.1,0.2,0.2,0.2h0.8    c0.2,0,0.2-0.1,0.2-0.2v-4.1C142.5,182.3,141.7,182,139.3,182z"
   fill="#E7E7E7" />
		<path
   id="path463"
   d="M146.6,182c-0.6,0-1.3,0-2,0.2c-0.2,0-0.2,0.1-0.2,0.3v0.6c0,0.2,0,0.2,0.2,0.2h2c1.3,0,1.8,0.3,1.8,1.2v0.9    h-2.2c-1.5,0-2.4,0.4-2.4,2.1c0,1.8,0.8,2.2,2.6,2.2c1.4,0,2.5-0.1,3-0.3c0.3-0.1,0.3-0.3,0.3-0.3v-4.7    C149.6,182.7,148.7,182,146.6,182z M148.3,188.2c-0.5,0.2-1.4,0.2-1.7,0.2c-1.1,0-1.5-0.2-1.5-1.1c0-0.8,0.4-1,1.1-1h2.1    L148.3,188.2L148.3,188.2z"
   fill="#E7E7E7" />
		<path
   id="path465"
   d="M155,182.1c-0.3-0.1-1.2-0.2-1.5-0.2c-0.8,0-2.1,0.1-2.1,1.6v5.7c0,0.2,0.1,0.2,0.2,0.2h0.8    c0.2,0,0.2-0.1,0.2-0.2v-5.4c0-0.6,0.3-0.8,1.2-0.8h1.2c0.2,0,0.3-0.1,0.3-0.2v-0.5C155.3,182.2,155.2,182.2,155,182.1z"
   fill="#E7E7E7" />
		<path
   id="path467"
   d="M157,179.1c-0.5,0-0.8,0.3-0.8,0.8s0.3,0.8,0.8,0.8s0.8-0.3,0.8-0.8C157.7,179.4,157.6,179.1,157,179.1z"
   fill="#E7E7E7" />
		<path
   id="path469"
   d="M157.5,182.1h-0.9c-0.2,0-0.2,0.1-0.2,0.2v7c0,0.2,0.1,0.2,0.2,0.2h0.9c0.2,0,0.2-0.1,0.2-0.2v-7    C157.7,182.1,157.6,182.1,157.5,182.1z"
   fill="#E7E7E7" />
		<path
   id="path471"
   d="M162.6,182c-0.7,0-1.8,0-2.8,0.3c-0.2,0-0.2,0-0.2,0.3v6.8c0,0.2,0.1,0.2,0.2,0.2h0.9c0.2,0,0.2-0.1,0.2-0.2    v-6.2h1.9c1.3,0,1.7,0.1,1.7,2.1v4c0,0.2,0.1,0.2,0.2,0.2h0.8c0.2,0,0.3-0.1,0.3-0.2v-4.1C165.7,182.3,164.9,182,162.6,182z"
   fill="#E7E7E7" />
		<path
   id="path473"
   d="M168,188c-0.5,0-0.8,0.3-0.8,0.8s0.3,0.8,0.8,0.8s0.8-0.3,0.8-0.8C168.8,188.2,168.6,188,168,188z"
   fill="#E7E7E7" />
		<path
   id="path475"
   d="M177.2,179.3H171c-0.2,0-0.2,0.1-0.2,0.2v9.8c0,0.2,0.1,0.2,0.2,0.2h0.9c0.2,0,0.2-0.1,0.2-0.2v-4.1h4.6    c0.2,0,0.2-0.1,0.2-0.2v-0.8c0-0.2-0.1-0.2-0.2-0.2H172v-3.5h5.2c0.2,0,0.2-0.1,0.2-0.2v-0.8C177.3,179.3,177.2,179.3,177.2,179.3    z"
   fill="#E7E7E7" />
		<path
   id="path477"
   d="M181.3,182c-2.6,0-3.1,0.8-3.1,3.8s0.5,3.8,3.1,3.8s3.1-0.8,3.1-3.8C184.4,182.7,183.9,182,181.3,182z     M181.3,188.4c-1.7,0-1.9-0.5-1.9-2.6s0.2-2.6,1.9-2.6c1.6,0,1.9,0.5,1.9,2.6S183,188.4,181.3,188.4z"
   fill="#E7E7E7" />
		<path
   id="path479"
   d="M189.7,182.1c-0.3-0.1-1.2-0.2-1.5-0.2c-0.8,0-2.1,0.1-2.1,1.6v5.7c0,0.2,0.1,0.2,0.2,0.2h0.8    c0.2,0,0.2-0.1,0.2-0.2v-5.4c0-0.6,0.3-0.8,1.2-0.8h1.2c0.2,0,0.3-0.1,0.3-0.2v-0.5C189.9,182.2,189.8,182.2,189.7,182.1z"
   fill="#E7E7E7" />
		<path
   id="path481"
   d="M197.9,182c-0.6,0-1.5,0.2-2.2,0.4c-0.5-0.3-1.4-0.4-2.3-0.4c-0.6,0-1.5,0.1-2.3,0.3c-0.2,0-0.2,0.1-0.2,0.3    v6.8c0,0.2,0.1,0.2,0.2,0.2h0.9c0.2,0,0.2-0.1,0.2-0.2v-6.2h1.4c1.3,0,1.7,0.1,1.7,2v4.1c0,0.2,0.1,0.2,0.2,0.2h0.9    c0.1,0,0.2,0,0.2-0.2v-4.1c0-0.8-0.1-1.4-0.3-1.9c0.4-0.1,1-0.1,1.6-0.1c1.3,0,1.7,0.1,1.7,2.1v4c0,0.2,0.1,0.2,0.2,0.2h0.8    c0.2,0,0.2-0.1,0.2-0.2v-4.1C201,182.3,200.2,182,197.9,182z"
   fill="#E7E7E7" />
		<path
   id="path483"
   d="M206.5,185.7l-1.8-0.7c-0.7-0.3-0.8-0.6-0.8-0.9v-0.2c0-0.5,0.3-0.7,1-0.7h2.5c0.2,0,0.2-0.1,0.2-0.2v-0.6    c0-0.1-0.1-0.2-0.2-0.3c-0.8-0.1-1.4-0.1-2-0.1c-1.4,0-2.7,0.2-2.7,1.7v0.3c0,0.8,0.3,1.5,1.3,1.9l1.9,0.8    c0.6,0.3,0.8,0.5,0.8,0.9v0.2c0,0.6-0.3,0.7-1.4,0.7h-2.5c-0.2,0-0.2,0.1-0.2,0.2v0.6c0,0.1,0,0.2,0.2,0.2c0.3,0,1.3,0.1,2.4,0.1    c1.9,0,2.7-0.3,2.7-1.8v-0.2C207.8,186.9,207.7,186.1,206.5,185.7z"
   fill="#E7E7E7" />
	</g>
	<path
   id="path487"
   d="M179.6,33.3c-1.4-2.4-4.1-3.9-6.7-3.9h-42c-2.7,0-5.3,1.5-6.7,3.8l-21,36.5c-1.4,2.4-1.4,5.3,0,7.7l21,36.5   c1.4,2.4,4,3.8,6.7,3.8H173c2.7,0,5.3-1.5,6.7-3.8l21-36.5c1.4-2.4,1.4-5.3,0-7.7L179.6,33.3z M173.2,95c0.3,0.6-0.2,1.4-0.8,1.4   h-7.3c-0.3,0-0.7-0.2-0.8-0.5L152,74.1c-0.1-0.1-0.1-0.3-0.1-0.3c0,0.1,0,0.3-0.1,0.3l-12.3,22c-0.2,0.3-0.5,0.5-0.8,0.5h-7.3   c-0.7,0-1.2-0.8-0.8-1.4l12.1-21.4l-12-21.5c-0.3-0.5,0-1.3,0.6-1.4c0,0,0.1,0,0.2,0h7.3c0.3,0,0.6,0.2,0.8,0.5l12.3,22   c0.1,0.1,0.1,0.3,0.1,0.3c0-0.1,0-0.3,0.1-0.3l12.2-22c0.2-0.3,0.5-0.5,0.8-0.5h7.3c0.7,0,1.1,0.8,0.8,1.4l-12,21.4L173.2,95z"
   fill="#2088FF" />
</g>
</svg>