<?xml version="1.0" encoding="utf-8"?>
<!-- Generator: Adobe Illustrator 23.0.3, SVG Export Plug-In . SVG Version: 6.00 Build 0)  -->
<svg version="1.1" id="Layer_1" xmlns="http://www.w3.org/2000/svg" xmlns:xlink="http://www.w3.org/1999/xlink" x="0px" y="0px"
	 viewBox="0 0 24 24" style="enable-background:new 0 0 24 24;" xml:space="preserve">

<path fill="none" d="M0,0h24v24H0V0z"/>
<path fill="#7C8086" d="M19,4h-4.2c-0.4-1.2-1.5-2-2.8-2S9.6,2.8,9.2,4H5C3.9,4,3,4.9,3,6v14c0,1.1,0.9,2,2,2h14c1.1,0,2-0.9,2-2V6
	C21,4.9,20.1,4,19,4z M12,4c0.6,0,1,0.4,1,1s-0.4,1-1,1s-1-0.4-1-1S11.4,4,12,4z M13,18H8c-0.6,0-1-0.5-1-1s0.4-1,1-1h5
	c0.6,0,1,0.5,1,1S13.6,18,13,18z M16,14H8c-0.6,0-1-0.4-1-1s0.4-1,1-1h8c0.5,0,1,0.4,1,1S16.5,14,16,14z M16,10H8c-0.6,0-1-0.4-1-1
	s0.4-1,1-1h8c0.5,0,1,0.4,1,1S16.5,10,16,10z"/>
</svg>
