<?xml version="1.0" encoding="UTF-8" standalone="no"?>
<svg
   xmlns:dc="http://purl.org/dc/elements/1.1/"
   xmlns:cc="http://creativecommons.org/ns#"
   xmlns:rdf="http://www.w3.org/1999/02/22-rdf-syntax-ns#"
   xmlns:svg="http://www.w3.org/2000/svg"
   xmlns="http://www.w3.org/2000/svg"
   xml:space="preserve"
   style="enable-background:new 0 0 303.8 212.4;"
   viewBox="0 0 303.8 212.4"
   y="0px"
   x="0px"
   id="Layer_1"
   version="1.1"><metadata
   id="metadata984"><rdf:RDF><cc:Work
       rdf:about=""><dc:format>image/svg+xml</dc:format><dc:type
         rdf:resource="http://purl.org/dc/dcmitype/StillImage" /><dc:title></dc:title></cc:Work></rdf:RDF></metadata><defs
   id="defs982" />


<g
   id="g897">
	<g
   id="Layer_3">
		<rect
   id="rect742"
   height="212.4"
   width="303.7"
   fill="#FFFFFF"
   x="0.1" />
	</g>
	
		<radialGradient
   gradientUnits="userSpaceOnUse"
   gradientTransform="matrix(1 0 0 1 0 -754.2444)"
   r="198.5359"
   cy="798.1615"
   cx="65.8757"
   id="SVGID_1_">
		<stop
   id="stop745"
   style="stop-color:#FFFFFF"
   offset="0.1531" />
		<stop
   id="stop747"
   style="stop-color:#F8F8F8"
   offset="0.4493" />
		<stop
   id="stop749"
   style="stop-color:#E3E3E4"
   offset="0.8943" />
		<stop
   id="stop751"
   style="stop-color:#DDDDDE"
   offset="1" />
	</radialGradient>
	<polygon
   id="polygon754"
   points="173.8,44.2 145.5,0 100.8,111.6  "
   fill="url(#SVGID_1_)" />
	
		<radialGradient
   gradientUnits="userSpaceOnUse"
   gradientTransform="matrix(1 0 0 1 0 -754.2444)"
   r="200.4453"
   cy="956.8811"
   cx="216.2416"
   id="SVGID_2_">
		<stop
   id="stop756"
   style="stop-color:#FFFFFF"
   offset="0.1531" />
		<stop
   id="stop758"
   style="stop-color:#F8F8F8"
   offset="0.4493" />
		<stop
   id="stop760"
   style="stop-color:#E3E3E4"
   offset="0.8943" />
		<stop
   id="stop762"
   style="stop-color:#DDDDDE"
   offset="1" />
	</radialGradient>
	<polygon
   id="polygon765"
   points="162.4,130 256.3,144.4 173.8,44.2  "
   fill="url(#SVGID_2_)" />
	<polygon
   id="polygon767"
   points="174.8,0 145.5,0 173.8,44.2  "
   fill="#EAEAEA" />
	<polygon
   id="polygon769"
   points="100.8,111.6 74.7,0 63.6,0 13.1,51.8  "
   fill="#FAFAFA" />
	
		<radialGradient
   gradientUnits="userSpaceOnUse"
   gradientTransform="matrix(1 0 0 1 0 -754.2444)"
   r="254.1493"
   cy="744.1152"
   cx="78.7828"
   id="SVGID_3_">
		<stop
   id="stop771"
   style="stop-color:#FFFFFF"
   offset="0.1531" />
		<stop
   id="stop773"
   style="stop-color:#F8F8F8"
   offset="0.4493" />
		<stop
   id="stop775"
   style="stop-color:#E3E3E4"
   offset="0.8943" />
		<stop
   id="stop777"
   style="stop-color:#DDDDDE"
   offset="1" />
	</radialGradient>
	<polygon
   id="polygon780"
   points="145.5,0 74.7,0 100.8,111.6  "
   fill="url(#SVGID_3_)" />
	
		<linearGradient
   gradientTransform="matrix(1 0 0 1 0 -754.2444)"
   y2="776.3444"
   x2="249.0287"
   y1="776.3444"
   x1="152.5287"
   gradientUnits="userSpaceOnUse"
   id="SVGID_4_">
		<stop
   id="stop782"
   style="stop-color:#EAEAEA"
   offset="0" />
		<stop
   id="stop784"
   style="stop-color:#FEFEFE"
   offset="1" />
	</linearGradient>
	<polygon
   id="polygon787"
   points="270.2,42 211,0 174.8,0 173.7,44.2  "
   fill="url(#SVGID_4_)" />
	
		<radialGradient
   gradientUnits="userSpaceOnUse"
   gradientTransform="matrix(1 0 0 1 0 -754.2444)"
   r="266.8425"
   cy="815.9517"
   cx="-63.6217"
   id="SVGID_5_">
		<stop
   id="stop789"
   style="stop-color:#FFFFFF"
   offset="0.1531" />
		<stop
   id="stop791"
   style="stop-color:#F8F8F8"
   offset="0.4493" />
		<stop
   id="stop793"
   style="stop-color:#E3E3E4"
   offset="0.8943" />
		<stop
   id="stop795"
   style="stop-color:#DDDDDE"
   offset="1" />
	</radialGradient>
	<polygon
   id="polygon798"
   points="13.1,51.8 0.1,114.1 0.1,124 100.8,111.6  "
   fill="url(#SVGID_5_)" />
	<polygon
   id="polygon800"
   points="122.9,212.4 180.3,212.4 162.4,130  "
   fill="#F5F5F5" />
	<polygon
   id="polygon802"
   points="162.4,130 180.3,212.4 199.8,212.4 256.3,144.4  "
   fill="#EFEFEF" />
	
		<radialGradient
   gradientUnits="userSpaceOnUse"
   gradientTransform="matrix(1 0 0 1 0 -754.2444)"
   r="263.7987"
   cy="786.8712"
   cx="179.2695"
   id="SVGID_6_">
		<stop
   id="stop804"
   style="stop-color:#FFFFFF"
   offset="0.1531" />
		<stop
   id="stop806"
   style="stop-color:#F8F8F8"
   offset="0.4493" />
		<stop
   id="stop808"
   style="stop-color:#E3E3E4"
   offset="0.8943" />
		<stop
   id="stop810"
   style="stop-color:#DDDDDE"
   offset="1" />
	</radialGradient>
	<polygon
   id="polygon813"
   points="256.3,144.4 270.3,41.9 173.8,44.2  "
   fill="url(#SVGID_6_)" />
	<polygon
   id="polygon815"
   points="100.8,111.6 104.5,212.4 122.9,212.4 162.4,130  "
   fill="#EFEFEF" />
	
		<radialGradient
   gradientUnits="userSpaceOnUse"
   gradientTransform="matrix(1 0 0 1 0 -754.2444)"
   r="136.0871"
   cy="934.4931"
   cx="82.7457"
   id="SVGID_7_">
		<stop
   id="stop817"
   style="stop-color:#FFFFFF"
   offset="0.1531" />
		<stop
   id="stop819"
   style="stop-color:#F8F8F8"
   offset="0.4493" />
		<stop
   id="stop821"
   style="stop-color:#E3E3E4"
   offset="0.8943" />
		<stop
   id="stop823"
   style="stop-color:#DDDDDE"
   offset="1" />
	</radialGradient>
	<polygon
   id="polygon826"
   points="2.7,199.7 29.7,212.4 104.6,212.4 100.8,111.6  "
   fill="url(#SVGID_7_)" />
	
		<linearGradient
   gradientTransform="matrix(1 0 0 1 0 -754.2444)"
   y2="909.8944"
   x2="106.2487"
   y1="909.8944"
   x1="5.5487"
   gradientUnits="userSpaceOnUse"
   id="SVGID_8_">
		<stop
   id="stop828"
   style="stop-color:#EAEAEA"
   offset="0" />
		<stop
   id="stop830"
   style="stop-color:#FEFEFE"
   offset="1" />
	</linearGradient>
	<polygon
   id="polygon833"
   points="100.8,111.6 0.1,124 0.1,159 2.7,199.7  "
   fill="url(#SVGID_8_)" />
	<polygon
   id="polygon835"
   points="0.1,159 0.1,199.4 2.7,199.7  "
   fill="#E7E7E7" />
	
		<linearGradient
   gradientTransform="matrix(1 0 0 1 0 -754.2444)"
   y2="847.4444"
   x2="306.6871"
   y1="847.4444"
   x1="258.8871"
   gradientUnits="userSpaceOnUse"
   id="SVGID_9_">
		<stop
   id="stop837"
   style="stop-color:#EAEAEA"
   offset="0" />
		<stop
   id="stop839"
   style="stop-color:#FEFEFE"
   offset="1" />
	</linearGradient>
	<polygon
   id="polygon842"
   points="256.3,144.4 304.1,131.7 304.1,62.6 270.2,42  "
   fill="url(#SVGID_9_)" />
	
		<linearGradient
   gradientTransform="matrix(1 0 0 1 0 -754.2444)"
   y2="961.5941"
   x2="304.1367"
   y1="961.9942"
   x1="303.392"
   gradientUnits="userSpaceOnUse"
   id="SVGID_10_">
		<stop
   id="stop844"
   style="stop-color:#F2F2F2"
   offset="0" />
		<stop
   id="stop846"
   style="stop-color:#F5F5F5"
   offset="0.1972" />
		<stop
   id="stop848"
   style="stop-color:#FEFEFE"
   offset="1" />
	</linearGradient>
	<polygon
   id="polygon851"
   points="304.1,208.2 304.1,207.2 303.8,206.7 303.8,208.2  "
   fill="url(#SVGID_10_)" />
	
		<linearGradient
   gradientTransform="matrix(1 0 0 1 0 -754.2444)"
   y2="930.7849"
   x2="279.6022"
   y1="976.9667"
   x1="193.6097"
   gradientUnits="userSpaceOnUse"
   id="SVGID_11_">
		<stop
   id="stop853"
   style="stop-color:#F2F2F2"
   offset="0" />
		<stop
   id="stop855"
   style="stop-color:#F5F5F5"
   offset="0.1972" />
		<stop
   id="stop857"
   style="stop-color:#FEFEFE"
   offset="1" />
	</linearGradient>
	<polygon
   id="polygon860"
   points="303.8,206.7 256.3,144.4 199.8,212.4 282.3,212.4 303.8,208.2  "
   fill="url(#SVGID_11_)" />
	<polygon
   id="polygon862"
   points="304.1,208.2 303.8,208.2 303.8,212.4 304.1,210.7  "
   fill="#FBFBFB" />
	<polygon
   id="polygon864"
   points="304.1,208.2 282.3,212.4 304.1,212.4 304.1,212.4  "
   fill="#FBFBFB" />
	<polygon
   id="polygon866"
   points="294.9,0 211,0 270.3,41.9  "
   fill="#FEFEFE" />
	<polygon
   id="polygon868"
   points="304.1,19.7 304.1,0 294.9,0 270.3,41.9  "
   fill="#F7F7F7" />
	<polygon
   id="polygon870"
   points="0.1,57 0.1,114.1 13.1,51.8  "
   fill="#F1F1F1" />
	<polygon
   id="polygon872"
   points="0.1,49.3 0.1,57 13.1,51.8  "
   fill="#EEEEEE" />
	<polygon
   id="polygon874"
   points="4.4,212.4 29.6,212.4 2.6,199.7  "
   fill="#F7F7F7" />
	<polygon
   id="polygon876"
   points="0.1,38.7 0.1,49.3 13.1,51.8  "
   fill="#F3F3F3" />
	<path
   id="path878"
   d="M63.7,0H0.1v38.7c4.3,4.4,8.7,8.8,13,13.2C30,34.5,46.8,17.3,63.7,0z"
   fill="#F8F8F8" />
	<polygon
   id="polygon880"
   points="256.3,144.4 304.1,207.2 304.1,131.7  "
   fill="#F5F5F5" />
	<polygon
   id="polygon882"
   points="0.1,199.4 0.1,212.4 4.4,212.4 2.7,199.7  "
   fill="#EDEDED" />
	<polygon
   id="polygon884"
   points="270.3,41.9 304.1,62.6 304.1,49.5  "
   fill="#EDEDED" />
	<polygon
   id="polygon886"
   points="304.1,49.5 304.1,19.7 270.2,41.9  "
   fill="#F1F1F1" />
	
		<linearGradient
   gradientTransform="matrix(1 0 0 1 0 -754.2444)"
   y2="966.6444"
   x2="303.8"
   y1="966.6444"
   x1="303.8"
   gradientUnits="userSpaceOnUse"
   id="SVGID_12_">
		<stop
   id="stop888"
   style="stop-color:#EAEAEA"
   offset="0" />
		<stop
   id="stop890"
   style="stop-color:#FEFEFE"
   offset="1" />
	</linearGradient>
	<path
   id="path893"
   d="M303.8,212.4L303.8,212.4L303.8,212.4z"
   fill="url(#SVGID_12_)" />
	<polygon
   id="polygon895"
   points="162.4,130 173.8,44.2 100.8,111.6  "
   fill="#EFEFEF" />
</g>
<g
   id="g979">
	<g
   id="g977">
		<g
   id="g937">
			<path
   id="path899"
   d="M56.1,148.8c-1.9,0-4.1,0-5.7,0.2c-0.3,0-0.3,0.1-0.3,0.3V164c0,0.3,0.1,0.3,0.3,0.3     c1.6,0.1,3.9,0.2,5.7,0.2c4.6,0,6.4-2.3,6.4-7.9C62.5,151.2,60.8,148.8,56.1,148.8z M56.1,162.3h-3.4v-11.1h3.1     c3,0,4.1,1.7,4.1,5.6C59.9,160.6,58.9,162.3,56.1,162.3z"
   fill="#404144" />
			<path
   id="path901"
   d="M69.3,153.1c-4,0-4.8,1.1-4.8,5.7c0,4.6,0.9,5.7,4.8,5.7c1.3,0,2.5-0.1,3.6-0.3c0.2,0,0.3-0.1,0.3-0.3v-1.3     c0-0.2-0.1-0.3-0.3-0.3h-3.5c-1.9,0-2.4-0.5-2.5-2.6h6.4c0.6,0,0.7-0.2,0.7-0.5v-0.6C74,154.2,73.1,153.1,69.3,153.1z M66.9,158     c0-2.2,0.5-2.8,2.4-2.8c1.8,0,2.3,0.6,2.3,2.8H66.9z"
   fill="#404144" />
			<path
   id="path903"
   d="M85.3,153.3h-2c-0.2,0-0.2,0.1-0.3,0.3l-2,8.1c-0.2,0.7-0.3,0.8-0.7,0.8c-0.3,0-0.4-0.1-0.6-0.8l-2.1-8.1     c-0.1-0.3-0.1-0.3-0.3-0.3h-2c-0.3,0-0.3,0.1-0.3,0.3l2.4,8.6c0.6,2.1,0.8,2.4,2.9,2.4c2.3,0,2.4-0.3,3-2.4l2.3-8.6     C85.7,153.3,85.6,153.3,85.3,153.3z"
   fill="#404144" />
			<path
   id="path905"
   d="M97.8,149H88c-0.2,0-0.3,0.1-0.3,0.3v14.9c0,0.2,0.1,0.3,0.3,0.3h9.8c0.2,0,0.3-0.1,0.3-0.3v-1.7     c0-0.2-0.1-0.3-0.3-0.3h-7.5V158h6.8c0.2,0,0.3-0.1,0.3-0.3V156c0-0.2-0.1-0.3-0.3-0.3h-6.8v-4.6h7.5c0.2,0,0.3-0.1,0.3-0.3V149     C98.1,149,98,149,97.8,149z"
   fill="#404144" />
			<path
   id="path907"
   d="M106.1,158.5l3.5-5c0.2-0.2,0.1-0.3-0.2-0.3h-2.3c-0.2,0-0.3,0.1-0.3,0.2l-2.2,3.2l-2.2-3.2     c-0.1-0.1-0.2-0.2-0.3-0.2h-2.3c-0.3,0-0.3,0.2-0.2,0.3l3.5,5l-3.9,5.6c-0.2,0.2-0.1,0.3,0.2,0.3h2.3c0.1,0,0.3-0.1,0.3-0.2     l2.6-3.8l2.6,3.8c0.1,0.1,0.2,0.2,0.3,0.2h2.3c0.3,0,0.3-0.2,0.2-0.3L106.1,158.5z"
   fill="#404144" />
			<path
   id="path909"
   d="M116.2,153.1c-1.4,0-2.6,0.1-4.3,0.3c-0.3,0-0.4,0.2-0.4,0.4v14.3c0,0.3,0.1,0.3,0.3,0.3h1.9     c0.2,0,0.3-0.1,0.3-0.3v-3.7c0.8,0.1,1.6,0.1,2.5,0.1c3.7,0,4.6-1.2,4.6-5.8C121.2,154.3,120.3,153.1,116.2,153.1z M116.2,162.4     c-0.7,0-1.5,0-2.2-0.1v-7h2.3c2.3,0,2.4,0.8,2.4,3.5C118.8,161.7,118.5,162.4,116.2,162.4z"
   fill="#404144" />
			<path
   id="path911"
   d="M129.3,153.4c-0.5-0.2-1.9-0.3-2.4-0.3c-1.5,0-3.5,0.2-3.5,2.6v8.4c0,0.2,0.1,0.3,0.3,0.3h1.9     c0.2,0,0.3-0.1,0.3-0.3v-7.8c0-0.9,0.3-1.1,1.6-1.1h1.9c0.3,0,0.3-0.1,0.3-0.3v-1.3C129.7,153.5,129.6,153.4,129.3,153.4z"
   fill="#404144" />
			<path
   id="path913"
   d="M135.8,153.1c-4,0-4.8,1.1-4.8,5.7c0,4.6,0.9,5.7,4.8,5.7c1.3,0,2.5-0.1,3.6-0.3c0.2,0,0.3-0.1,0.3-0.3     v-1.3c0-0.2-0.1-0.3-0.3-0.3h-3.5c-1.9,0-2.4-0.5-2.5-2.6h6.4c0.6,0,0.7-0.2,0.7-0.5v-0.6C140.5,154.2,139.6,153.1,135.8,153.1z      M133.4,158c0-2.2,0.5-2.8,2.4-2.8c1.8,0,2.3,0.6,2.3,2.8H133.4z"
   fill="#404144" />
			<path
   id="path915"
   d="M148.5,158.5l-2.6-1c-0.8-0.3-1.1-0.7-1.1-1.2V156c0-0.6,0.5-0.9,1.4-0.9h3.7c0.3,0,0.3-0.1,0.3-0.3v-1.1     c0-0.2-0.1-0.3-0.3-0.3c-1.2-0.2-2.3-0.3-3.1-0.3c-2.5,0-4.4,0.5-4.4,2.7v0.4c0,1.2,0.4,2.4,2,3l2.7,1c0.9,0.3,1.2,0.7,1.2,1.2     v0.2c0,0.7-0.4,0.8-1.8,0.8h-4c-0.3,0-0.3,0.1-0.3,0.3v1.3c0,0.2,0.1,0.3,0.3,0.3c0.7,0.1,2.2,0.2,4,0.2c2.6,0,4.2-0.5,4.2-2.9     v-0.3C150.5,160.2,150.3,159.2,148.5,158.5z"
   fill="#404144" />
			<path
   id="path917"
   d="M158.5,158.5l-2.6-1c-0.8-0.3-1.1-0.7-1.1-1.2V156c0-0.6,0.5-0.9,1.4-0.9h3.7c0.3,0,0.3-0.1,0.3-0.3v-1.1     c0-0.2-0.1-0.3-0.3-0.3c-1.2-0.2-2.3-0.3-3.1-0.3c-2.5,0-4.4,0.5-4.4,2.7v0.4c0,1.2,0.4,2.4,2,3l2.7,1c0.9,0.3,1.2,0.7,1.2,1.2     v0.2c0,0.7-0.4,0.8-1.8,0.8h-4c-0.3,0-0.3,0.1-0.3,0.3v1.3c0,0.2,0.1,0.3,0.3,0.3c0.7,0.1,2.2,0.2,4,0.2c2.6,0,4.2-0.5,4.2-2.9     v-0.3C160.6,160.2,160.2,159.2,158.5,158.5z"
   fill="#404144" />
			<path
   id="path919"
   d="M182.5,149h-2c-0.6,0-0.8,0.2-1,0.8l-4.1,10.7l-4.1-10.7c-0.3-0.6-0.4-0.8-1-0.8h-2c-0.2,0-0.3,0.1-0.3,0.3     l-1.4,14.9c0,0.3,0.1,0.3,0.3,0.3h2c0.2,0,0.3-0.1,0.3-0.3l0.9-10.6l4.1,10.2c0.1,0.2,0.2,0.3,0.4,0.3h1.7c0.2,0,0.3-0.1,0.4-0.3     l4.1-10.2l0.9,10.6c0,0.3,0.1,0.3,0.3,0.3h2c0.2,0,0.3-0.1,0.3-0.3l-1.4-14.9C182.8,149,182.7,149,182.5,149z"
   fill="#404144" />
			<path
   id="path921"
   d="M191,153.1c-4.1,0-4.9,1.1-4.9,5.7c0,4.6,0.8,5.7,4.9,5.7c4.1,0,5-1.1,5-5.7C196,154.3,195,153.1,191,153.1     z M191,162.4c-2.2,0-2.4-0.7-2.4-3.5c0-2.9,0.3-3.5,2.4-3.5c2.1,0,2.4,0.7,2.4,3.5C193.5,161.7,193.2,162.4,191,162.4z"
   fill="#404144" />
			<path
   id="path923"
   d="M203.3,153.1c-1,0-1.9,0-2.6,0.1v-4c0-0.3-0.1-0.3-0.3-0.3h-1.9c-0.2,0-0.3,0.1-0.3,0.3v14.5     c0,0.3,0.2,0.4,0.4,0.4c1.7,0.3,2.9,0.3,4.3,0.3c4.1,0,5-1.2,5-5.7C207.9,154.4,207,153.1,203.3,153.1z M203,162.4     c-0.7,0-1.5-0.1-2.3-0.2v-7h2.2c2.3,0,2.5,0.7,2.5,3.5S205.2,162.4,203,162.4z"
   fill="#404144" />
			<path
   id="path925"
   d="M211.4,148.6c-0.9,0-1.5,0.5-1.5,1.4s0.5,1.4,1.5,1.4s1.4-0.5,1.4-1.4C212.8,149.1,212.3,148.6,211.4,148.6     z"
   fill="#404144" />
			<path
   id="path927"
   d="M212.3,153.3h-1.9c-0.2,0-0.3,0.1-0.3,0.3v10.6c0,0.2,0.1,0.3,0.3,0.3h1.9c0.2,0,0.3-0.1,0.3-0.3v-10.6     C212.6,153.4,212.5,153.3,212.3,153.3z"
   fill="#404144" />
			<path
   id="path929"
   d="M217.4,149h-1.9c-0.2,0-0.3,0.1-0.3,0.3v14.9c0,0.2,0.1,0.3,0.3,0.3h1.9c0.2,0,0.3-0.1,0.3-0.3v-14.9     C217.7,149,217.6,149,217.4,149z"
   fill="#404144" />
			<path
   id="path931"
   d="M224.8,153.1c-4,0-4.8,1.1-4.8,5.7c0,4.6,0.9,5.7,4.8,5.7c1.3,0,2.5-0.1,3.6-0.3c0.2,0,0.3-0.1,0.3-0.3     v-1.3c0-0.2-0.1-0.3-0.3-0.3h-3.5c-1.9,0-2.4-0.5-2.5-2.6h6.4c0.6,0,0.7-0.2,0.7-0.5v-0.6C229.5,154.2,228.6,153.1,224.8,153.1z      M222.5,158c0-2.2,0.5-2.8,2.4-2.8c1.8,0,2.3,0.6,2.3,2.8H222.5z"
   fill="#404144" />
			<path
   id="path933"
   d="M248.2,149h-2c-0.3,0-0.3,0.1-0.3,0.3v7.5c0,4.5-0.8,5.6-3.6,5.6s-3.6-1.1-3.6-5.6v-7.5     c0-0.3-0.1-0.3-0.3-0.3h-2c-0.3,0-0.3,0.1-0.3,0.3v7.5c0,6.2,1.3,7.9,6.2,7.9s6.2-1.5,6.2-7.9v-7.5     C248.6,149,248.5,149,248.2,149z"
   fill="#404144" />
			<path
   id="path935"
   d="M253.8,149h-2c-0.2,0-0.3,0.1-0.3,0.3v14.9c0,0.3,0.1,0.3,0.3,0.3h2c0.2,0,0.3-0.1,0.3-0.3v-14.9     C254.1,149,254.1,149,253.8,149z"
   fill="#404144" />
		</g>
		<g
   id="g973">
			<path
   id="path939"
   d="M100.3,179.3c-0.3-0.1-0.8-0.1-1.2-0.1c-0.8,0-2,0.1-2,1.6v1.4h-0.9c-0.2,0-0.2,0.1-0.2,0.2v0.7     c0,0.2,0.1,0.2,0.2,0.2h0.9v6.2c0,0.2,0.1,0.2,0.2,0.2h0.9c0.2,0,0.2-0.1,0.2-0.2v-6.2h1.6c0.1,0,0.2-0.1,0.3-0.2l0.1-0.7     c0-0.2,0-0.3-0.2-0.3h-1.7v-1c0-0.7,0.3-0.8,1.1-0.8h0.8c0.2,0,0.2-0.1,0.2-0.2v-0.6C100.5,179.4,100.5,179.4,100.3,179.3z"
   fill="#404144" />
			<path
   id="path941"
   d="M104.3,182c-2.6,0-3.1,0.8-3.1,3.8s0.5,3.8,3.1,3.8s3.1-0.8,3.1-3.8C107.4,182.7,106.9,182,104.3,182z      M104.3,188.4c-1.7,0-1.9-0.5-1.9-2.6s0.2-2.6,1.9-2.6c1.6,0,1.9,0.5,1.9,2.6C106,187.9,105.9,188.4,104.3,188.4z"
   fill="#404144" />
			<path
   id="path943"
   d="M112.6,182.1c-0.3-0.1-1.2-0.2-1.5-0.2c-0.8,0-2.1,0.1-2.1,1.6v5.7c0,0.2,0.1,0.2,0.2,0.2h0.8     c0.2,0,0.2-0.1,0.2-0.2v-5.4c0-0.6,0.3-0.8,1.2-0.8h1.2c0.2,0,0.3-0.1,0.3-0.2v-0.5C112.8,182.2,112.8,182.2,112.6,182.1z"
   fill="#404144" />
			<path
   id="path945"
   d="M120.9,184.2l3-4.6c0.1-0.2,0.1-0.3-0.2-0.3h-1c-0.3,0-0.3,0.1-0.3,0.3L120,183l-2.4-3.5     c-0.1-0.2-0.2-0.3-0.3-0.3h-1c-0.2,0-0.3,0.1-0.2,0.3l3.1,4.6l-3.4,5.1c-0.2,0.3,0,0.3,0.2,0.3h1c0.2,0,0.3-0.1,0.3-0.3l2.6-4     l2.6,4c0.1,0.2,0.2,0.3,0.3,0.3h1c0.2,0,0.3-0.1,0.2-0.3L120.9,184.2z"
   fill="#404144" />
			<path
   id="path947"
   d="M127.7,182c-0.6,0-1.3,0-2,0.2c-0.2,0-0.2,0.1-0.2,0.3v0.6c0,0.2,0,0.2,0.2,0.2h2c1.3,0,1.8,0.3,1.8,1.2     v0.9h-2.2c-1.5,0-2.4,0.4-2.4,2.1c0,1.8,0.8,2.2,2.6,2.2c1.4,0,2.5-0.1,3-0.3c0.3-0.1,0.3-0.3,0.3-0.3v-4.7     C130.8,182.7,129.8,182,127.7,182z M129.5,188.2c-0.5,0.2-1.4,0.2-1.7,0.2c-1.1,0-1.5-0.2-1.5-1.1c0-0.8,0.4-1,1.1-1h2.1V188.2z"
   fill="#404144" />
			<path
   id="path949"
   d="M139.5,182c-0.6,0-1.5,0.2-2.2,0.4c-0.5-0.3-1.4-0.4-2.3-0.4c-0.6,0-1.5,0.1-2.3,0.3     c-0.2,0-0.2,0.1-0.2,0.3v6.8c0,0.2,0.1,0.2,0.2,0.2h0.9c0.2,0,0.2-0.1,0.2-0.2v-6.2h1.4c1.3,0,1.7,0.1,1.7,2v4.1     c0,0.2,0.1,0.2,0.2,0.2h0.9c0.1,0,0.2,0,0.2-0.2v-4.1c0-0.8-0.1-1.4-0.3-1.9c0.4-0.1,1-0.1,1.6-0.1c1.3,0,1.7,0.1,1.7,2.1v4     c0,0.2,0.1,0.2,0.2,0.2h0.8c0.2,0,0.2-0.1,0.2-0.2v-4.1C142.6,182.3,141.8,182,139.5,182z"
   fill="#404144" />
			<path
   id="path951"
   d="M146.7,182c-0.6,0-1.3,0-2,0.2c-0.2,0-0.2,0.1-0.2,0.3v0.6c0,0.2,0,0.2,0.2,0.2h2c1.3,0,1.8,0.3,1.8,1.2     v0.9h-2.2c-1.5,0-2.4,0.4-2.4,2.1c0,1.8,0.8,2.2,2.6,2.2c1.4,0,2.5-0.1,3-0.3c0.3-0.1,0.3-0.3,0.3-0.3v-4.7     C149.8,182.7,148.8,182,146.7,182z M148.4,188.2c-0.5,0.2-1.4,0.2-1.7,0.2c-1.1,0-1.5-0.2-1.5-1.1c0-0.8,0.4-1,1.1-1h2.1     L148.4,188.2L148.4,188.2z"
   fill="#404144" />
			<path
   id="path953"
   d="M155.2,182.1c-0.3-0.1-1.2-0.2-1.5-0.2c-0.8,0-2.1,0.1-2.1,1.6v5.7c0,0.2,0.1,0.2,0.2,0.2h0.8     c0.2,0,0.2-0.1,0.2-0.2v-5.4c0-0.6,0.3-0.8,1.2-0.8h1.2c0.2,0,0.3-0.1,0.3-0.2v-0.5C155.4,182.2,155.3,182.2,155.2,182.1z"
   fill="#404144" />
			<path
   id="path955"
   d="M157.1,179.1c-0.5,0-0.8,0.3-0.8,0.8s0.3,0.8,0.8,0.8s0.8-0.3,0.8-0.8C157.9,179.4,157.7,179.1,157.1,179.1     z"
   fill="#404144" />
			<path
   id="path957"
   d="M157.6,182.1h-0.9c-0.2,0-0.2,0.1-0.2,0.2v7c0,0.2,0.1,0.2,0.2,0.2h0.9c0.2,0,0.2-0.1,0.2-0.2v-7     C157.8,182.1,157.7,182.1,157.6,182.1z"
   fill="#404144" />
			<path
   id="path959"
   d="M162.7,182c-0.7,0-1.8,0-2.8,0.3c-0.2,0-0.2,0-0.2,0.3v6.8c0,0.2,0.1,0.2,0.2,0.2h0.9     c0.2,0,0.2-0.1,0.2-0.2v-6.2h1.9c1.3,0,1.7,0.1,1.7,2.1v4c0,0.2,0.1,0.2,0.2,0.2h0.8c0.2,0,0.3-0.1,0.3-0.2v-4.1     C165.8,182.3,165.1,182,162.7,182z"
   fill="#404144" />
			<path
   id="path961"
   d="M168.2,188c-0.5,0-0.8,0.3-0.8,0.8s0.3,0.8,0.8,0.8s0.8-0.3,0.8-0.8C168.9,188.2,168.7,188,168.2,188z"
   fill="#404144" />
			<path
   id="path963"
   d="M177.3,179.3H171c-0.2,0-0.2,0.1-0.2,0.2v9.8c0,0.2,0.1,0.2,0.2,0.2h0.9c0.2,0,0.2-0.1,0.2-0.2v-4.1h4.6     c0.2,0,0.2-0.1,0.2-0.2v-0.8c0-0.2-0.1-0.2-0.2-0.2h-4.6v-3.5h5.2c0.2,0,0.2-0.1,0.2-0.2v-0.8     C177.5,179.3,177.4,179.3,177.3,179.3z"
   fill="#404144" />
			<path
   id="path965"
   d="M181.4,182c-2.6,0-3.1,0.8-3.1,3.8s0.5,3.8,3.1,3.8s3.1-0.8,3.1-3.8C184.6,182.7,184.1,182,181.4,182z      M181.4,188.4c-1.7,0-1.9-0.5-1.9-2.6s0.2-2.6,1.9-2.6c1.6,0,1.9,0.5,1.9,2.6C183.3,187.9,183.1,188.4,181.4,188.4z"
   fill="#404144" />
			<path
   id="path967"
   d="M189.9,182.1c-0.3-0.1-1.2-0.2-1.5-0.2c-0.8,0-2.1,0.1-2.1,1.6v5.7c0,0.2,0.1,0.2,0.2,0.2h0.8     c0.2,0,0.2-0.1,0.2-0.2v-5.4c0-0.6,0.3-0.8,1.2-0.8h1.2c0.2,0,0.3-0.1,0.3-0.2v-0.5C190,182.2,190,182.2,189.9,182.1z"
   fill="#404144" />
			<path
   id="path969"
   d="M198.1,182c-0.6,0-1.5,0.2-2.2,0.4c-0.5-0.3-1.4-0.4-2.3-0.4c-0.6,0-1.5,0.1-2.3,0.3     c-0.2,0-0.2,0.1-0.2,0.3v6.8c0,0.2,0.1,0.2,0.2,0.2h0.9c0.2,0,0.2-0.1,0.2-0.2v-6.2h1.4c1.3,0,1.7,0.1,1.7,2v4.1     c0,0.2,0.1,0.2,0.2,0.2h0.9c0.1,0,0.2,0,0.2-0.2v-4.1c0-0.8-0.1-1.4-0.3-1.9c0.4-0.1,1-0.1,1.6-0.1c1.3,0,1.7,0.1,1.7,2.1v4     c0,0.2,0.1,0.2,0.2,0.2h0.8c0.2,0,0.2-0.1,0.2-0.2v-4.1C201.1,182.3,200.4,182,198.1,182z"
   fill="#404144" />
			<path
   id="path971"
   d="M206.6,185.7l-1.8-0.7c-0.7-0.3-0.8-0.6-0.8-0.9v-0.2c0-0.5,0.3-0.7,1-0.7h2.5c0.2,0,0.2-0.1,0.2-0.2v-0.6     c0-0.1-0.1-0.2-0.2-0.3c-0.8-0.1-1.4-0.1-2-0.1c-1.4,0-2.7,0.2-2.7,1.7v0.3c0,0.8,0.3,1.5,1.3,1.9l1.9,0.8     c0.6,0.3,0.8,0.5,0.8,0.9v0.2c0,0.6-0.3,0.7-1.4,0.7h-2.5c-0.2,0-0.2,0.1-0.2,0.2v0.6c0,0.1,0,0.2,0.2,0.2c0.3,0,1.3,0.1,2.4,0.1     c1.9,0,2.7-0.3,2.7-1.8v-0.2C208,186.9,207.9,186.1,206.6,185.7z"
   fill="#404144" />
		</g>
		<path
   id="path975"
   d="M179.7,33.3c-1.4-2.4-4.1-3.9-6.7-3.9h-42c-2.7,0-5.3,1.5-6.7,3.8l-21,36.5c-1.4,2.4-1.4,5.3,0,7.7l21,36.5    c1.4,2.4,4,3.8,6.7,3.8h42.1c2.7,0,5.3-1.5,6.7-3.8l21-36.5c1.4-2.4,1.4-5.3,0-7.7L179.7,33.3z M173.3,95c0.3,0.6-0.2,1.4-0.8,1.4    h-7.3c-0.3,0-0.7-0.2-0.8-0.5L152.2,74c-0.1-0.1-0.1-0.3-0.1-0.3c0,0.1,0,0.3-0.1,0.3l-12.3,22c-0.2,0.3-0.5,0.5-0.8,0.5h-7.3    c-0.7,0-1.2-0.8-0.8-1.4l12.1-21.4l-12-21.5c-0.3-0.5,0-1.3,0.6-1.4c0,0,0.1,0,0.2,0h7.3c0.3,0,0.6,0.2,0.8,0.5l12.3,22    c0.1,0.1,0.1,0.3,0.1,0.3c0-0.1,0-0.3,0.1-0.3l12.2-22c0.2-0.3,0.5-0.5,0.8-0.5h7.3c0.7,0,1.1,0.8,0.8,1.4l-12,21.4L173.3,95z"
   fill="#2088FF" />
	</g>
</g>
</svg>