<?xml version="1.0" encoding="UTF-8" standalone="no"?>
<svg
   xmlns:dc="http://purl.org/dc/elements/1.1/"
   xmlns:cc="http://creativecommons.org/ns#"
   xmlns:rdf="http://www.w3.org/1999/02/22-rdf-syntax-ns#"
   xmlns:svg="http://www.w3.org/2000/svg"
   xmlns="http://www.w3.org/2000/svg"
   height="24px"
   width="24px"
   xml:space="preserve"
   viewBox="-3 -3 24 24"
   y="0px"
   x="0px"
   id="Layer_1"
   version="1.1"><metadata
   id="metadata30"><rdf:RDF><cc:Work
       rdf:about=""><dc:format>image/svg+xml</dc:format><dc:type
         rdf:resource="http://purl.org/dc/dcmitype/StillImage" /><dc:title></dc:title></cc:Work></rdf:RDF></metadata><defs
   id="defs28" />
<path
   style="fill:#7c8086"
   id="path21"
   d="M 9,0 C 4,0 0,4 0,9 c 0,5 4,9 9,9 0.8,0 1.5,-0.7 1.5,-1.5 0,-0.4 -0.1,-0.7 -0.4,-1 -0.2,-0.3 -0.4,-0.6 -0.4,-1 0,-0.8 0.7,-1.5 1.5,-1.5 H 13 c 2.8,0 5,-2.2 5,-5 C 18,3.6 14,0 9,0 Z M 3.5,9 C 2.7,9 2,8.3 2,7.5 2,6.7 2.7,6 3.5,6 4.3,6 5,6.7 5,7.5 5,8.3 4.3,9 3.5,9 Z m 3,-4 C 5.7,5 5,4.3 5,3.5 5,2.7 5.7,2 6.5,2 7.3,2 8,2.7 8,3.5 8,4.3 7.3,5 6.5,5 Z m 5,0 C 10.7,5 10,4.3 10,3.5 10,2.7 10.7,2 11.5,2 12.3,2 13,2.7 13,3.5 13,4.3 12.3,5 11.5,5 Z m 3,4 C 13.7,9 13,8.3 13,7.5 13,6.7 13.7,6 14.5,6 15.3,6 16,6.7 16,7.5 16,8.3 15.3,9 14.5,9 Z" />
<path
   style="fill:none"
   id="path23"
   d="M 0,-6 H 24 V 18 H 0 Z" />
</svg>